<svg width="104" height="55" viewBox="0 0 104 55" fill="none" xmlns="http://www.w3.org/2000/svg">
  <path opacity="0.5" fill-rule="evenodd" clip-rule="evenodd" d="M1.99999 0C2.69035 0 3.24999 0.559641 3.24999 1.24999V48.7497C3.24999 50.8208 4.92891 52.4997 6.99997 52.4997L20.7473 52.4997V1.24999C20.7473 0.559641 21.3069 0 21.9973 0C22.6876 0 23.2472 0.559641 23.2472 1.24999V52.4997H40.7487V1.24999C40.7487 0.559641 41.3083 0 41.9987 0C42.689 0 43.2487 0.559641 43.2487 1.24999V52.4997H60.7481V1.24999C60.7481 0.559641 61.3077 0 61.998 0C62.6884 0 63.248 0.559641 63.248 1.24999V52.4997H80.7474V1.24999C80.7474 0.559641 81.307 0 81.9974 0C82.6877 0 83.2474 0.559641 83.2474 1.24999V52.4997L96.9995 52.4997C99.0706 52.4997 100.749 50.8208 100.749 48.7497V1.24999C100.749 0.559641 101.309 0 101.999 0C102.69 0 103.249 0.559641 103.249 1.24999V48.7497C103.249 52.2015 100.451 54.9997 96.9995 54.9997H6.99997C3.54821 54.9997 0.75 52.2015 0.75 48.7497V1.24999C0.75 0.559641 1.30964 0 1.99999 0Z" fill="#FEFEFE"/>
  <path d="M17.4961 38.5005C17.4961 36.8436 18.8392 35.5005 20.4961 35.5005H23.4961C25.1529 35.5005 26.496 36.8436 26.496 38.5005V55.0004H17.4961V38.5005Z" fill="#FEFEFE"/>
  <path d="M36.9961 29.5005C36.9961 27.8436 38.3392 26.5005 39.9961 26.5005H42.9961C44.6529 26.5005 45.996 27.8436 45.996 29.5005V55.0003H36.9961V29.5005Z" fill="#FEFEFE"/>
  <path d="M57.9961 22.0005C57.9961 20.3436 59.3392 19.0005 60.9961 19.0005H63.9961C65.6529 19.0005 66.996 20.3436 66.996 22.0005V55.0003H57.9961V22.0005Z" fill="#FEFEFE"/>
  <path d="M77.4961 14.5005C77.4961 12.8436 78.8392 11.5005 80.4961 11.5005H83.4961C85.1529 11.5005 86.496 12.8436 86.496 14.5005V55.0003H77.4961V14.5005Z" fill="#FEFEFE"/>
  </svg>
  