<svg width="219" height="154" viewBox="0 0 219 154" fill="none" xmlns="http://www.w3.org/2000/svg">
  <g clip-path="url(#clip0_2509_13770)">
  <path d="M57.0466 30.4262C59.5721 30.8431 70.0085 39.1669 70.2766 40.6831C70.5448 42.1993 71.2599 54.5076 70.7236 56.2022C70.1873 57.8969 60.4575 62.5532 58.3051 62.3656C56.1527 62.178 42.1216 56.6454 40.8834 56.2618C38.0284 55.3773 36.3972 47.3724 36.4565 45.2616C36.5073 43.4563 40.3302 36.2237 41.4922 35.0642C42.6545 33.9046 54.0688 29.9346 57.0466 30.4262Z" fill="#6F29C3"/>
  <path d="M58.4336 62.8074C59.8418 62.8074 62.9795 61.5215 65.3126 60.3818C66.9297 59.5918 70.7349 57.6159 71.1408 56.3335C71.7236 54.492 70.9502 41.9797 70.7075 40.607C70.4819 39.3324 65.7291 35.5452 64.7785 34.7989C62.0191 32.6326 58.5576 30.233 57.1178 29.9951C55.1604 29.6718 50.4074 31.0866 48.4549 31.7098C45.4662 32.6637 41.9157 34.0236 41.1826 34.755C39.9667 35.9682 36.0729 43.3222 36.0187 45.249C35.9592 47.3636 37.5655 55.691 40.7532 56.6786C41.073 56.7776 42.3715 57.2684 44.0155 57.8897C50.3992 60.3023 56.7583 62.6689 58.2668 62.8004C58.3192 62.805 58.375 62.8072 58.4337 62.8072L58.4336 62.8074ZM56.9748 30.8569C58.0072 31.0274 60.9174 32.881 64.217 35.4697C67.9124 38.3689 69.76 40.34 69.8453 40.7592C70.0984 42.1904 70.8096 54.4789 70.3058 56.0705C70.1386 56.5992 68.2374 57.9803 64.9275 59.5972C62.0015 61.0267 59.2334 62.0081 58.3427 61.9303C56.8288 61.7984 48.6952 58.7243 44.3254 57.0729C42.6029 56.4219 41.3581 55.9514 41.0128 55.8444C38.5004 55.066 36.8331 47.4326 36.8937 45.2737C36.9411 43.5897 40.7084 36.4635 41.8015 35.3728C42.2425 34.9329 45.0136 33.7255 48.7217 32.5419C52.6031 31.303 55.7652 30.6573 56.9748 30.857V30.8569Z" fill="#6F29C3"/>
  <path d="M56.2412 59.6802L57.2246 73.2371L45.1567 74.0398L44.4855 60.0434L56.2412 59.6802Z" fill="#EEEEEE"/>
  <path d="M45.1583 74.4769C45.168 74.4769 45.1777 74.4765 45.1874 74.4759L57.2553 73.6732C57.3129 73.6693 57.3692 73.6542 57.4209 73.6286C57.4726 73.603 57.5187 73.5675 57.5565 73.524C57.5944 73.4806 57.6233 73.4301 57.6416 73.3755C57.6598 73.3209 57.6671 73.2632 57.6629 73.2058L56.6797 59.6489C56.6715 59.5365 56.6202 59.4315 56.5363 59.356C56.4524 59.2805 56.3424 59.2403 56.2295 59.2439L44.4738 59.6071C44.4157 59.6088 44.3586 59.6221 44.3057 59.6462C44.2528 59.6702 44.2053 59.7046 44.1658 59.7471C44.1264 59.7897 44.0959 59.8397 44.076 59.8942C44.0561 59.9487 44.0473 60.0066 44.0502 60.0645L44.7213 74.0609C44.7268 74.173 44.7752 74.2786 44.8566 74.356C44.938 74.4334 45.0461 74.4767 45.1585 74.4767L45.1583 74.4769ZM56.7577 72.8307L45.5742 73.5747L44.9456 60.4665L55.8365 60.13L56.7577 72.8308V72.8307Z" fill="#6F29C3"/>
  <path d="M64.7343 42.5558C64.7418 44.8748 61.1713 59.1058 59.3708 61.375C57.6723 63.5155 50.1335 66.7624 47.8988 66.1382C45.664 65.5139 41.1233 59.1256 40.7772 56.9156C40.3303 54.0614 42.3863 39.8803 43.459 37.7396C44.1097 36.441 48.9119 32.1206 55.7057 33.5477C61.8793 34.8445 64.7292 40.9588 64.7344 42.5559L64.7343 42.5558Z" fill="#EEEEEE"/>
  <path d="M48.5844 66.6521C51.6381 66.6521 58.1217 63.6525 59.7137 61.6459C61.6033 59.2645 65.1792 44.8323 65.1719 42.5543C65.1662 40.8145 62.2324 34.472 55.7956 33.1201C48.6629 31.6221 43.7486 36.1844 43.0671 37.5441C42.439 38.7975 41.6227 43.4205 41.1145 46.9985C40.578 50.7763 40.0939 55.3829 40.3444 56.9828C40.7005 59.2566 45.3127 65.8691 47.7805 66.5585C48.0087 66.6223 48.2794 66.6522 48.5842 66.6522L48.5844 66.6521ZM64.2964 42.5571C64.3033 44.7179 60.783 58.891 59.0274 61.1037C57.3937 63.1625 49.9858 66.2672 48.0167 65.7174C47.1167 65.4659 45.5701 63.988 43.9806 61.8602C42.501 59.8798 41.3616 57.8187 41.2097 56.8479C40.7564 53.9536 42.8905 39.8502 43.8505 37.9348C44.4439 36.7506 49.0753 32.6011 55.6154 33.975C61.5893 35.2298 64.2918 41.17 64.2964 42.5571Z" fill="#6F29C3"/>
  <path d="M63.3468 49.6125C63.3468 49.6125 66.1865 47.1768 66.9488 49.6872C67.9521 52.991 61.3632 56.6274 61.3632 56.6274L63.3468 49.6125Z" fill="#EEEEEE"/>
  <path d="M61.3637 57.0643C61.4378 57.0643 61.5107 57.0455 61.5755 57.0097C61.8571 56.8542 68.4615 53.161 67.3682 49.5606C67.087 48.6347 66.5466 48.3006 66.1428 48.1833C64.8356 47.8036 63.2396 49.129 63.0619 49.2813C62.9966 49.3373 62.9494 49.4113 62.926 49.4939L60.9424 56.5088C60.9241 56.5738 60.921 56.6421 60.9336 56.7084C60.9461 56.7747 60.9739 56.8372 61.0147 56.891C61.0556 56.9448 61.1083 56.9885 61.1689 57.0185C61.2294 57.0486 61.2961 57.0642 61.3638 57.0642L61.3637 57.0643ZM65.6432 48.9884C65.7329 48.9884 65.8186 48.999 65.8988 49.0224C66.0048 49.0533 66.3277 49.1474 66.5302 49.8141C67.1576 51.8806 64.0913 54.3855 62.0858 55.6822L63.7312 49.8633C64.1205 49.5568 64.9871 48.9885 65.6433 48.9885L65.6432 48.9884Z" fill="#6F29C3"/>
  <path d="M41.4068 48.2495C41.5402 47.1135 39.8134 44.2212 38.4526 45.2909C35.9944 47.2234 38.8251 53.5856 40.7792 54.0605C40.923 52.2652 41.2734 49.3855 41.4068 48.2495Z" fill="#EEEEEE"/>
  <path d="M40.78 54.4975C40.8901 54.4975 40.9962 54.4562 41.0771 54.3817C41.1579 54.3071 41.2077 54.205 41.2165 54.0955C41.3428 52.519 41.6319 50.079 41.7872 48.7681L41.8425 48.3005C41.9567 47.3289 41.0407 45.4819 39.9113 44.8516C39.3058 44.5134 38.6916 44.5478 38.1825 44.948C37.1456 45.7631 36.8113 47.2975 37.241 49.2688C37.7281 51.5031 39.2248 54.1324 40.6765 54.4851C40.7107 54.4934 40.7454 54.4975 40.78 54.4975ZM39.0892 45.4945C39.1986 45.4945 39.3283 45.5272 39.4837 45.614C40.3347 46.089 41.0437 47.5944 40.9726 48.1989L40.9175 48.6657C40.7815 49.8131 40.5435 51.8219 40.4 53.3738C39.562 52.7117 38.5061 50.9625 38.0963 49.0831C37.8909 48.141 37.6992 46.4399 38.7241 45.6343C38.815 45.5628 38.9309 45.4946 39.089 45.4946L39.0892 45.4945ZM52.7248 32.3271C53.7975 33.8153 61.8742 47.0789 64.7346 47.8499C67.5952 48.621 68.3997 40.6256 63.3937 36.5069C58.3878 32.3883 52.7247 32.3271 52.7247 32.3271H52.7248Z" fill="#6F29C3"/>
  <path d="M65.1157 48.3393C65.8295 48.3393 66.4555 47.8997 66.8792 47.0812C67.5183 45.8465 67.6325 43.868 67.1772 41.9178C66.6433 39.6317 65.3985 37.5902 63.672 36.1696C58.605 32.0009 52.9667 31.8926 52.7293 31.8901H52.7245C52.644 31.8902 52.565 31.9123 52.4963 31.9543C52.4276 31.9962 52.3718 32.0562 52.335 32.1277C52.2983 32.1992 52.282 32.2795 52.2881 32.3596C52.2941 32.4397 52.3222 32.5167 52.3692 32.5819C52.5527 32.8367 52.9577 33.4622 53.518 34.328C57.9774 41.2177 62.4088 47.6753 64.6202 48.2713C64.7816 48.3157 64.9482 48.3386 65.1157 48.3393ZM53.5902 32.8322C55.3407 33.0326 59.4325 33.8141 63.1148 36.8437C66.5732 39.689 67.1935 44.5701 66.1012 46.6803C65.7741 47.3125 65.3522 47.5637 64.8484 47.428C64.3346 47.2894 62.99 46.3984 59.7591 41.9862C57.6747 39.1398 55.533 35.831 54.2533 33.8541C53.9989 33.461 53.7762 33.1169 53.59 32.8322H53.5902ZM57.851 44.9549C57.9199 44.9549 57.9879 44.9387 58.0494 44.9075C58.1109 44.8764 58.1641 44.8312 58.2047 44.7756C58.2454 44.7201 58.2723 44.6557 58.2833 44.5878C58.2943 44.5199 58.2891 44.4504 58.2681 44.3849C57.5428 42.1234 51.5859 33.1518 51.3327 32.771C51.2679 32.6761 51.1681 32.6105 51.0551 32.5885C50.9421 32.5664 50.825 32.5896 50.729 32.6531C50.6331 32.7166 50.566 32.8153 50.5425 32.9277C50.5189 33.0402 50.5407 33.1574 50.6032 33.2539C50.6646 33.3462 56.7456 42.5041 57.4342 44.6511C57.4625 44.7393 57.5181 44.8162 57.593 44.8708C57.6679 44.9254 57.7582 44.9548 57.851 44.9549Z" fill="#6F29C3"/>
  <path d="M53.6628 37.172C54.2388 38.0865 48.7978 37.8195 45.3406 37.2617C44.8289 37.1791 41.5666 46.9262 41.5666 46.9262C41.5666 46.9262 40.3674 39.829 42.1174 36.491C43.9493 32.9967 51.0421 33.1141 51.7359 34.1807C52.4297 35.2474 53.0318 36.1702 53.6627 37.172H53.6628Z" fill="#6F29C3"/>
  <path d="M41.5671 47.3628C41.6589 47.3628 41.7484 47.3339 41.8228 47.2804C41.8973 47.2268 41.953 47.1513 41.9821 47.0644C43.3402 43.0068 44.9624 38.5819 45.4875 37.7268C47.0595 37.9693 48.9625 38.1471 50.5121 38.1945C53.6073 38.2888 53.8992 37.8486 54.0399 37.6368C54.179 37.4273 54.1767 37.1665 54.0336 36.9394C53.4548 36.0205 52.9099 35.1829 52.2792 34.213L52.1034 33.9427C51.6282 33.2121 49.7893 33.0308 48.3573 33.0979C47.1657 33.1536 43.166 33.5483 41.7296 36.2882C39.932 39.7171 41.0851 46.7028 41.135 46.9985C41.1522 47.1004 41.2051 47.1928 41.2842 47.2595C41.3633 47.3262 41.4635 47.3627 41.567 47.3627L41.5671 47.3628ZM45.3131 36.8219C44.95 36.8219 44.7019 37.2058 44.1313 38.5683C43.7943 39.373 43.3633 40.4987 42.8502 41.9141C42.4807 42.9363 42.1189 43.9612 41.7649 44.9887C41.5408 42.6926 41.3826 38.8352 42.5055 36.693C43.686 34.4415 47.1557 34.0487 48.1911 33.9819C50.1479 33.8558 51.2425 34.2379 51.3692 34.4185L51.5447 34.6885C52.1254 35.5812 52.6329 36.3615 53.1603 37.1949C52.2284 37.4574 48.6425 37.3516 45.4107 36.8302C45.3784 36.8248 45.3457 36.822 45.313 36.8219H45.3131Z" fill="#6F29C3"/>
  <path d="M53.7045 42.6361C53.7697 42.6362 53.8341 42.6217 53.893 42.5938C53.9519 42.5659 54.0037 42.5252 54.0448 42.4746C54.0859 42.4241 54.1152 42.3651 54.1305 42.3019C54.1458 42.2386 54.1468 42.1728 54.1333 42.1091C53.8002 40.5325 51.0488 35.7221 50.8041 35.3234C50.7741 35.2745 50.7347 35.232 50.6882 35.1983C50.6417 35.1645 50.589 35.1403 50.5331 35.1269C50.4772 35.1134 50.4192 35.1111 50.3624 35.1201C50.3057 35.129 50.2512 35.1491 50.2022 35.179C50.1532 35.209 50.1105 35.2483 50.0767 35.2946C50.0429 35.341 50.0186 35.3936 50.0052 35.4494C49.9917 35.5051 49.9894 35.563 49.9984 35.6197C50.0074 35.6763 50.0274 35.7306 50.0574 35.7796C50.5323 36.5536 53.0061 41.0096 53.2766 42.2894C53.2973 42.3874 53.3511 42.4753 53.429 42.5384C53.5069 42.6016 53.6041 42.636 53.7045 42.6361ZM56.8302 67.7994L44.9083 68.8618L45.1567 74.0401L57.2246 73.2374L56.8302 67.7994Z" fill="#6F29C3"/>
  <path d="M45.1583 74.4766C45.168 74.4766 45.1777 74.4763 45.1874 74.4756L57.2553 73.6729C57.3129 73.6691 57.3692 73.6539 57.4209 73.6283C57.4726 73.6028 57.5187 73.5672 57.5565 73.5238C57.5944 73.4803 57.6233 73.4299 57.6416 73.3753C57.6598 73.3206 57.6671 73.263 57.6629 73.2055L57.2685 67.7677C57.2643 67.7098 57.2487 67.6534 57.2225 67.6016C57.1962 67.5499 57.1599 67.5039 57.1156 67.4663C57.0714 67.4287 57.0201 67.4003 56.9647 67.3828C56.9093 67.3652 56.8509 67.3589 56.793 67.3641L44.8712 68.4265C44.7587 68.4365 44.6544 68.4895 44.5801 68.5745C44.5059 68.6594 44.4674 68.7698 44.4728 68.8824L44.7212 74.0607C44.7265 74.1728 44.7749 74.2785 44.8563 74.356C44.9377 74.4334 45.0458 74.4766 45.1583 74.4766ZM56.7577 72.8304L45.5742 73.5744L45.3672 69.2593L56.4272 68.2737L56.7577 72.8304Z" fill="#6F29C3"/>
  <path d="M46.6764 72.3452C46.6764 72.3452 39.078 69.0451 36.4856 69.7588C33.8933 70.4723 9.85418 102.276 8.42394 104.149C6.99371 106.022 13.5193 110.407 15.5754 109.768C18.0855 108.988 47.5703 85.813 47.5703 85.813L46.6764 72.3453V72.3452Z" fill="#6F29C3"/>
  <path d="M15.1184 110.265C15.3342 110.265 15.5317 110.24 15.7072 110.185C18.265 109.39 46.6364 87.1045 47.8429 86.1562C47.8987 86.1123 47.943 86.0555 47.9719 85.9907C48.0008 85.9259 48.0135 85.855 48.0088 85.7843L47.1149 72.3165C47.1096 72.2365 47.0823 72.1595 47.0361 72.094C46.9898 72.0284 46.9264 71.9768 46.8527 71.9449C46.5367 71.8076 39.081 68.5916 36.371 69.3377C35.9085 69.4651 34.6801 69.8031 22.7796 84.8509C18.7009 90.0084 13.9056 96.2133 8.52665 103.293C8.31028 103.578 8.15793 103.779 8.07738 103.884C7.74871 104.315 7.52938 105.073 8.35077 106.244C9.65744 108.106 13.139 110.265 15.1184 110.265ZM47.1199 85.6124C38.8032 92.1462 17.4281 108.735 15.4468 109.351C14.1783 109.746 10.3624 107.587 9.06808 105.743C8.7821 105.335 8.49896 104.774 8.77389 104.414C8.85466 104.308 9.00756 104.107 9.22459 103.821C14.5999 96.7455 19.3918 90.5451 23.467 85.3921C34.0473 72.0135 36.1787 70.2969 36.6038 70.1799C38.5343 69.6487 44.0052 71.6854 46.259 72.641L47.1199 85.6124Z" fill="#6F29C3"/>
  <path d="M9.18579 87.8532C12.0934 80.1015 16.8131 71.2378 17.0666 70.1713C17.4241 68.6669 19.0332 62.0668 19.1226 61.175C19.212 60.2831 25.9686 56.9863 28.7769 53.1031C29.3623 52.2938 30.4381 53.9388 29.4995 55.2321C28.762 56.2482 25.7343 59.1915 23.878 60.6658C23.4111 61.0366 23.6166 61.7831 24.2069 61.8706C25.2277 62.0218 26.6769 62.4014 28.3653 63.9781C29.2314 64.7869 26.2812 70.1191 24.9779 71.1526C24.1733 71.7904 22.3929 72.535 21.5362 72.8026C21.052 73.3823 18.3835 90.3885 18.3835 90.3885C18.3835 90.3885 7.99196 91.036 9.18579 87.8532Z" fill="#EEEEEE"/>
  <path d="M11.3555 110.844C13.0727 110.844 15.047 110.614 15.8091 110.139C16.2037 109.892 17.1283 109.315 19.1456 93.4044C20.1305 85.6356 20.9018 77.9071 20.9095 77.8299C20.9209 77.7146 20.886 77.5995 20.8124 77.5099C20.7388 77.4203 20.6326 77.3636 20.517 77.3521C20.4015 77.3407 20.2861 77.3755 20.1963 77.4489C20.1065 77.5223 20.0496 77.6284 20.0382 77.7436C20.0307 77.8194 19.2735 85.4071 18.3022 93.095C16.5063 107.311 15.5826 109.174 15.3366 109.403C14.8256 109.713 13.008 110.015 10.9335 109.965C8.81328 109.914 7.20212 109.5 6.82902 108.911C5.86688 107.391 5.08501 102.699 6.87444 96.0042C8.04825 91.6125 12.1652 82.4224 14.8894 76.3411C16.5143 72.7138 17.368 70.7966 17.4927 70.2719C17.5475 70.0415 17.6317 69.6916 17.7352 69.2608C18.624 65.5628 19.457 62.0438 19.5535 61.2606C19.7231 60.9941 20.8008 60.2923 21.7538 59.6714C24.0303 58.1887 27.4704 55.9479 29.1457 53.3385C29.276 53.1354 29.2167 52.8653 29.0132 52.7351C28.8096 52.6049 28.5389 52.6641 28.4085 52.8673C26.8345 55.3188 23.4891 57.4979 21.2752 58.9399C19.3924 60.1662 18.7386 60.6165 18.687 61.1313C18.6144 61.857 17.4016 66.9025 16.8836 69.0571C16.78 69.4888 16.6956 69.8395 16.6406 70.0704C16.5291 70.5395 15.3987 73.0628 14.0899 75.9846C11.3542 82.0913 7.21996 91.3199 6.0282 95.779C4.28484 102.302 4.83743 107.401 6.08862 109.377C6.84095 110.565 9.43361 110.803 10.9122 110.838C11.0571 110.842 11.2054 110.843 11.3553 110.843L11.3555 110.844Z" fill="#6F29C3"/>
  <path d="M21.1782 64.7331C21.2324 64.7331 21.2873 64.723 21.3406 64.7017C21.6687 64.5708 22.1194 64.3247 22.6414 64.0396C23.5146 63.5628 24.7106 62.9097 25.3264 62.8585C25.3414 62.8573 25.3565 62.8567 25.3715 62.8567C26.0191 62.8567 27.5762 63.8844 28.4999 64.6349C28.59 64.7072 28.7051 64.741 28.8201 64.729C28.9351 64.7169 29.0407 64.6599 29.1138 64.5705C29.1868 64.481 29.2214 64.3664 29.21 64.2515C29.1986 64.1367 29.1421 64.0311 29.0529 63.9576C28.627 63.6114 26.4378 61.8885 25.2537 61.988C24.453 62.0546 23.2672 62.7022 22.221 63.2735C21.7446 63.5336 21.2946 63.7793 21.0154 63.8908C20.921 63.9285 20.8426 63.9979 20.7938 64.087C20.745 64.176 20.7289 64.2793 20.7481 64.379C20.7674 64.4787 20.8208 64.5686 20.8993 64.6332C20.9778 64.6978 21.0763 64.7332 21.1781 64.7332L21.1782 64.7331ZM21.1786 67.8101C21.2578 67.8101 21.3354 67.7886 21.4032 67.7479C22.398 67.1534 25.2842 65.7945 26.6727 66.6321C26.7219 66.6631 26.7768 66.684 26.8342 66.6935C26.8916 66.7031 26.9504 66.7011 27.007 66.6878C27.0636 66.6744 27.117 66.6499 27.164 66.6157C27.2111 66.5815 27.2508 66.5383 27.2809 66.4886C27.311 66.439 27.3309 66.3838 27.3393 66.3264C27.3478 66.2689 27.3448 66.2104 27.3303 66.1541C27.3158 66.0979 27.2903 66.0451 27.2551 65.9988C27.22 65.9526 27.1759 65.9138 27.1256 65.8847C25.0027 64.6037 21.1173 66.9004 20.9528 66.9988C20.9036 67.0283 20.8606 67.0672 20.8263 67.1133C20.7921 67.1593 20.7673 67.2117 20.7534 67.2673C20.7394 67.3229 20.7366 67.3808 20.7451 67.4375C20.7535 67.4942 20.7731 67.5487 20.8027 67.5979C20.8416 67.6627 20.8967 67.7163 20.9626 67.7535C21.0285 67.7907 21.1029 67.8102 21.1786 67.8102V67.8101ZM21.5359 70.6078C21.5917 70.6078 21.6484 70.5971 21.7032 70.5745C23.0088 70.0351 24.6858 69.5661 25.1196 69.749C25.1727 69.7722 25.2299 69.7848 25.2878 69.7858C25.3458 69.7868 25.4034 69.7763 25.4573 69.7549C25.5112 69.7336 25.5603 69.7017 25.6017 69.6613C25.6432 69.6208 25.6762 69.5725 25.6987 69.5193C25.7213 69.466 25.7331 69.4087 25.7333 69.3509C25.7336 69.293 25.7223 69.2357 25.7002 69.1822C25.678 69.1288 25.6454 69.0802 25.6043 69.0394C25.5632 68.9986 25.5144 68.9663 25.4607 68.9445C24.4945 68.537 22.084 69.4715 21.368 69.7677C21.2742 69.8062 21.1968 69.8761 21.149 69.9653C21.1011 70.0545 21.0858 70.1575 21.1056 70.2567C21.1254 70.3559 21.1791 70.4452 21.2576 70.5093C21.336 70.5733 21.4344 70.6083 21.5358 70.6081L21.5359 70.6078ZM72.3328 73.5047C74.583 81.106 83.6856 120.151 86.0098 136.74H52.2196C52.2196 136.74 49.6786 125.012 48.7333 121.578C47.8797 118.477 39.9728 106.683 39.1684 104.008C38.5099 101.818 39.1684 75.7789 39.2578 73.8167C39.3472 71.8546 71.3111 70.0528 72.3329 73.5045L72.3328 73.5047Z" fill="#6F29C3"/>
  <path d="M52.2192 137.177H86.0094C86.072 137.177 86.1339 137.164 86.1909 137.138C86.2479 137.112 86.2987 137.075 86.3398 137.027C86.3809 136.98 86.4114 136.925 86.4292 136.865C86.447 136.805 86.4517 136.742 86.443 136.68C84.0517 119.612 74.8647 80.5166 72.7522 73.381C72.5172 72.5866 71.3537 72.0432 69.0912 71.6708C67.2767 71.3721 64.8171 71.1929 61.7807 71.138C56.3659 71.0402 49.7 71.3607 44.7986 71.9548C43.0659 72.1648 41.6914 72.3936 40.7135 72.635C39.3739 72.9656 38.843 73.2914 38.8199 73.7972C38.7623 75.0636 38.0407 101.779 38.7486 104.133C39.1432 105.446 41.1039 108.739 43.1794 112.225C45.3804 115.922 47.875 120.111 48.3107 121.694C49.242 125.077 51.7659 136.716 51.7913 136.833C51.8124 136.931 51.8664 137.018 51.9443 137.081C52.0221 137.143 52.1192 137.178 52.2192 137.178V137.177ZM85.5052 136.304H52.5723C52.1441 134.337 50.0014 124.537 49.1551 121.463C48.6881 119.766 46.2704 115.706 43.9322 111.779C41.9749 108.491 39.9509 105.092 39.5872 103.882C38.9663 101.817 39.5852 76.5139 39.6911 73.9193C40.2568 73.4464 44.4657 72.6226 52.387 72.1993C58.2612 71.8853 65.925 71.8511 69.8171 72.6968C71.6681 73.099 71.8874 73.5435 71.9126 73.6285C74.0004 80.6815 83.014 119.02 85.5051 136.304L85.5052 136.304Z" fill="#6F29C3"/>
  <path d="M89.829 118.495C89.829 118.495 87.8233 120.338 85.9162 120.16C84.0092 119.981 82.5887 118.679 81.2158 118.028C80.223 117.557 78.4683 122.927 79.7198 123.64C80.9713 124.354 85.1508 127.236 86.9851 127.236C88.5875 127.236 91.5324 126.126 92.188 125.056C92.8435 123.986 89.8291 118.495 89.8291 118.495L89.829 118.495Z" fill="#EEEEEE"/>
  <path d="M86.9844 127.672C88.5712 127.672 91.7672 126.579 92.5607 125.284C92.8073 124.881 92.9271 124.053 91.6536 121.197C90.9823 119.691 90.2199 118.299 90.2122 118.285C90.1803 118.227 90.1355 118.177 90.0813 118.139C90.027 118.1 89.9648 118.075 89.8992 118.064C89.8336 118.053 89.7665 118.057 89.7028 118.077C89.6391 118.096 89.5806 118.129 89.5318 118.174C89.499 118.204 87.6392 119.882 85.9564 119.725C84.731 119.61 83.7102 118.985 82.7228 118.381C82.2698 118.104 81.842 117.842 81.4031 117.633C81.0314 117.457 80.4538 117.503 79.8139 118.725C79.0436 120.196 78.2576 123.31 79.5019 124.02C79.7377 124.154 80.096 124.377 80.5108 124.636C82.9753 126.173 85.5052 127.672 86.9843 127.672H86.9844ZM89.6939 119.173C89.9697 119.698 90.431 120.604 90.8547 121.554C92.0881 124.321 91.8253 124.809 91.8136 124.828C91.2834 125.694 88.5755 126.799 86.9844 126.799C85.6325 126.799 82.6027 124.91 80.9749 123.895C80.5348 123.621 80.1873 123.404 79.9364 123.261C79.836 123.204 79.6662 122.872 79.742 122.027C79.889 120.387 80.7133 118.664 81.0805 118.448C81.4605 118.633 81.8518 118.872 82.2649 119.126C83.2875 119.752 84.4465 120.461 85.8747 120.595C87.4162 120.739 88.9634 119.733 89.6939 119.173Z" fill="#EEEEEE"/>
  <path d="M84.1666 120.979C84.3459 120.979 84.5202 120.921 84.6631 120.813C84.806 120.705 84.9095 120.553 84.9578 120.381C85.0062 120.209 84.9967 120.026 84.9309 119.859C84.8651 119.693 84.7465 119.553 84.5932 119.46C84.5756 119.449 82.8073 118.378 81.0033 117.322C77.1715 115.077 76.9416 115.077 76.6504 115.077C76.2815 115.077 75.8707 115.248 75.125 115.558C74.3659 115.874 73.3262 116.306 72.127 116.614C72.0221 116.641 71.9233 116.687 71.8365 116.752C71.7497 116.816 71.6765 116.897 71.6212 116.99C71.5658 117.083 71.5294 117.186 71.514 117.292C71.4987 117.399 71.5046 117.508 71.5316 117.613C71.5585 117.717 71.606 117.815 71.6711 117.902C71.7362 117.988 71.8178 118.06 71.9112 118.115C72.0045 118.17 72.1078 118.205 72.215 118.22C72.3222 118.235 72.4313 118.228 72.5359 118.201C73.8494 117.864 74.9518 117.405 75.7569 117.07C76.0511 116.947 76.4038 116.8 76.5947 116.739C77.4031 117.098 80.7594 119.054 83.7414 120.86C83.8695 120.938 84.0166 120.979 84.1666 120.979Z" fill="#EEEEEE"/>
  <path d="M71.6843 123.2C71.8406 123.2 71.9936 123.155 72.1252 123.071C74.0357 121.855 76.1861 120.502 76.7243 120.191C77.3108 120.2 79.4819 120.636 81.2719 121.062C81.3768 121.087 81.4855 121.091 81.592 121.074C81.6984 121.057 81.8005 121.02 81.8923 120.963C81.9841 120.907 82.0639 120.833 82.1272 120.746C82.1904 120.659 82.2358 120.56 82.2608 120.456C82.2858 120.351 82.2899 120.243 82.2729 120.136C82.2559 120.03 82.2181 119.928 82.1616 119.837C82.1051 119.745 82.0311 119.665 81.9438 119.602C81.8565 119.539 81.7576 119.494 81.6528 119.469C76.8031 118.315 76.3566 118.538 76.0892 118.671C75.6274 118.901 71.9703 121.227 71.2419 121.691C71.0921 121.786 70.9773 121.927 70.9149 122.093C70.8524 122.259 70.8456 122.441 70.8955 122.611C70.9453 122.781 71.0492 122.93 71.1914 123.037C71.3336 123.143 71.5066 123.2 71.6842 123.2L71.6843 123.2Z" fill="#EEEEEE"/>
  <path d="M72.7926 125.129C72.9769 125.129 73.1558 125.067 73.3003 124.953C74.5161 123.998 78.1514 121.597 80.3488 121.952C80.7967 122.024 81.2177 121.721 81.2901 121.274C81.3626 120.828 81.0585 120.407 80.6109 120.335C77.3124 119.802 72.7886 123.269 72.2839 123.666C72.1499 123.772 72.0522 123.916 72.0043 124.08C71.9565 124.243 71.9608 124.417 72.0168 124.578C72.0728 124.739 72.1776 124.878 72.3166 124.977C72.4557 125.076 72.6221 125.129 72.7927 125.129H72.7926Z" fill="#EEEEEE"/>
  <path d="M74.6239 126.466C74.7762 126.466 74.9303 126.424 75.068 126.335C76.8613 125.182 79.8413 123.62 80.8568 123.761C81.305 123.823 81.7206 123.511 81.7831 123.063C81.8456 122.615 81.5322 122.201 81.0832 122.139C79.1073 121.864 74.9845 124.44 74.178 124.959C74.0291 125.055 73.9152 125.196 73.8536 125.362C73.7919 125.528 73.7857 125.709 73.8359 125.879C73.8861 126.048 73.99 126.197 74.1321 126.303C74.2741 126.409 74.4467 126.466 74.624 126.466L74.6239 126.466Z" fill="#EEEEEE"/>
  <path d="M54.9909 71.632C54.9909 71.632 65.5652 65.2163 67.625 65.9293C71.49 67.2672 105.833 88.4999 106.101 92.8703C106.369 97.2406 95.1632 124.56 91.8556 126.255C90.1571 123.668 88.2728 118.831 88.2728 118.831L94.055 97.0694L67.0176 83.9322L54.9909 71.6321V71.632Z" fill="#6F29C3"/>
  <path d="M91.8559 126.691C91.9253 126.691 91.9938 126.675 92.0555 126.643C94.4158 125.433 99.2863 114.16 100.723 110.734C103.724 103.575 106.686 95.2667 106.538 92.8433C106.493 92.1068 105.848 90.6649 100.791 86.6626C97.7599 84.2632 93.4936 81.2326 88.4535 77.8982C79.1298 71.7301 69.6781 66.1774 67.7685 65.5163C67.1392 65.2985 65.6834 65.3318 60.3324 68.126C57.4522 69.6298 54.7898 71.2424 54.7633 71.2584C54.7071 71.2926 54.6593 71.3389 54.6235 71.3941C54.5877 71.4492 54.5648 71.5117 54.5565 71.5769C54.5483 71.642 54.5548 71.7082 54.5758 71.7705C54.5967 71.8328 54.6314 71.8896 54.6773 71.9367L66.7041 84.2367C66.7392 84.2727 66.7805 84.3023 66.8258 84.3244L93.5394 97.3043L87.8495 118.719C87.8257 118.808 87.831 118.903 87.8646 118.989C87.9423 119.188 89.7853 123.898 91.4893 126.493C91.5292 126.554 91.5836 126.604 91.6476 126.638C91.7116 126.673 91.7831 126.691 91.8559 126.691V126.691ZM67.2349 66.3102C67.359 66.3102 67.4356 66.3258 67.4815 66.3416C69.3427 66.9859 78.6978 72.4925 87.9696 78.6263C104.236 89.3871 105.625 92.2695 105.664 92.8967C105.781 94.8119 103.363 102.172 99.9151 110.397C96.5851 118.339 93.4875 124.264 91.9782 125.631C90.5461 123.296 89.0298 119.551 88.7327 118.804L94.4781 97.181C94.5041 97.0831 94.4952 96.9793 94.453 96.8873C94.4108 96.7952 94.3378 96.7207 94.2466 96.6764L67.2777 83.5724L55.691 71.7224C56.5791 71.1957 58.6002 70.0164 60.7418 68.8982C65.0457 66.6512 66.6557 66.3103 67.2349 66.3103V66.3102Z" fill="#6F29C3"/>
  <path d="M86.009 136.741C86.7539 142.538 86.7539 148.96 86.7539 148.96H48.494L52.2187 136.741H86.009Z" fill="#EEEEEE"/>
  <path d="M48.4958 149.396H86.7556C86.8717 149.396 86.983 149.35 87.0651 149.268C87.1472 149.187 87.1934 149.075 87.1934 148.96C87.1934 148.895 87.1848 142.443 86.445 136.685C86.4314 136.58 86.3799 136.483 86.2999 136.413C86.22 136.342 86.1172 136.304 86.0107 136.304H52.2205C52.1266 136.304 52.0352 136.334 51.9598 136.39C51.8844 136.445 51.8289 136.524 51.8016 136.613L48.077 148.833C48.0571 148.898 48.0529 148.967 48.0645 149.034C48.0762 149.101 48.1035 149.165 48.1442 149.22C48.1849 149.274 48.2379 149.319 48.299 149.35C48.36 149.38 48.4275 149.396 48.4958 149.396ZM86.3147 148.523H49.0866L52.5451 137.177H85.6242C86.2039 141.915 86.2991 147.023 86.3147 148.523ZM56.2432 47.3629C56.2956 47.3629 56.349 47.3534 56.4008 47.3335C57.0825 47.0717 59.088 46.5039 60.1678 47.0139C60.2198 47.039 60.2763 47.0535 60.3339 47.0567C60.3916 47.0598 60.4493 47.0516 60.5038 47.0324C60.5583 47.0132 60.6084 46.9835 60.6513 46.9449C60.6941 46.9063 60.7289 46.8596 60.7537 46.8075C60.7784 46.7554 60.7925 46.699 60.7953 46.6414C60.798 46.5838 60.7894 46.5263 60.7697 46.4721C60.7501 46.4179 60.7199 46.3681 60.6809 46.3256C60.6419 46.2831 60.5949 46.2487 60.5425 46.2244C58.9018 45.449 56.1995 46.4745 56.0852 46.5186C55.9899 46.5553 55.9104 46.6242 55.8605 46.7132C55.8107 46.8023 55.7937 46.906 55.8124 47.0062C55.8312 47.1065 55.8845 47.1971 55.9631 47.2622C56.0418 47.3274 56.1408 47.363 56.2431 47.3629H56.2432ZM55.8261 50.5031C55.8839 50.5031 55.9412 50.4916 55.9945 50.4692C57.2421 49.9495 59.09 50.4382 59.1084 50.4432C59.2197 50.4712 59.3376 50.4545 59.4367 50.3966C59.5358 50.3387 59.6081 50.2443 59.6381 50.1337C59.6681 50.0231 59.6533 49.9052 59.597 49.8054C59.5407 49.7055 59.4474 49.6317 59.3371 49.5999C59.2495 49.5763 57.1783 49.0293 55.6572 49.663C55.5638 49.7019 55.4867 49.7718 55.4392 49.861C55.3916 49.9502 55.3765 50.053 55.3964 50.1521C55.4163 50.2511 55.47 50.3402 55.5484 50.4042C55.6267 50.4681 55.7248 50.503 55.8261 50.5029V50.5031ZM47.7978 49.5796C47.8845 49.5797 47.9693 49.5541 48.0413 49.506C48.1134 49.458 48.1696 49.3897 48.2027 49.3097C48.2358 49.2298 48.2443 49.1418 48.2272 49.057C48.2101 48.9722 48.1681 48.8944 48.1066 48.8334C48.0425 48.7696 46.5156 47.27 44.8797 47.0677C44.7656 47.0556 44.6512 47.0887 44.5613 47.16C44.4714 47.2312 44.4131 47.3347 44.399 47.4484C44.3849 47.5621 44.4161 47.6767 44.4858 47.7677C44.5556 47.8586 44.6584 47.9186 44.772 47.9347C46.1083 48.0999 47.4758 49.4395 47.4894 49.453C47.5747 49.5374 47.6864 49.5796 47.7978 49.5796ZM49.2708 58.8981C49.3376 58.8981 49.4036 58.8828 49.4635 58.8533C51.0502 58.0757 54.3772 58.0656 54.4107 58.0656C54.4682 58.0656 54.5251 58.0543 54.5782 58.0323C54.6314 58.0104 54.6796 57.9782 54.7203 57.9376C54.8023 57.8557 54.8485 57.7446 54.8484 57.6288C54.8484 57.5129 54.8023 57.4018 54.7202 57.3199C54.6381 57.238 54.5267 57.192 54.4106 57.192C54.2659 57.192 50.8468 57.202 49.0774 58.0692C48.9886 58.1127 48.9171 58.1849 48.8747 58.2741C48.8323 58.3633 48.8214 58.4642 48.8439 58.5604C48.8663 58.6565 48.9207 58.7423 48.9983 58.8036C49.0758 58.8649 49.1719 58.8983 49.2708 58.8981ZM48.7941 46.0249C48.8764 46.0249 48.957 46.0017 49.0267 45.958C49.0964 45.9143 49.1524 45.8519 49.1881 45.7779C49.2239 45.704 49.238 45.6214 49.2289 45.5398C49.2198 45.4582 49.1878 45.3808 49.1366 45.3165C49.0644 45.2257 47.3448 43.0968 45.5037 43.4032C45.3892 43.4222 45.2869 43.4859 45.2194 43.5801C45.1519 43.6744 45.1247 43.7916 45.1438 43.9058C45.1532 43.9624 45.1737 44.0166 45.2042 44.0653C45.2346 44.114 45.2743 44.1562 45.3211 44.1896C45.3679 44.2229 45.4208 44.2467 45.4768 44.2596C45.5329 44.2726 45.5909 44.2743 45.6476 44.2649C46.7597 44.0802 48.0482 45.3535 48.451 45.8597C48.492 45.9113 48.5441 45.953 48.6036 45.9816C48.663 46.0102 48.7281 46.025 48.7941 46.0249ZM6.45909 109.144C5.38641 107.449 4.66385 102.581 6.45176 95.8915C7.078 93.5485 8.42824 89.8126 9.93356 85.8829C12.7614 84.7996 16.6041 86.1028 18.6634 88.0283C17.5047 97.9489 16.7253 109.052 15.5771 109.768C14.2513 110.595 7.53188 110.838 6.45909 109.144Z" fill="#6F29C3"/>
  <path d="M11.3546 110.844C13.072 110.844 15.0462 110.614 15.8083 110.139C16.2678 109.852 16.6566 108.948 17.1741 105.331C17.5381 102.786 17.8913 99.3821 18.2653 95.7783C18.5277 93.2483 18.7992 90.6321 19.0974 88.0792C19.1053 88.0113 19.0972 87.9426 19.0737 87.8785C19.0501 87.8144 19.0119 87.7566 18.962 87.7099C16.8164 85.7038 12.7936 84.3194 9.77577 85.4753C9.71839 85.4973 9.66629 85.5311 9.62286 85.5745C9.57944 85.6178 9.54565 85.6699 9.52371 85.7271C7.72224 90.4301 6.57875 93.7181 6.02791 95.7791C4.28455 102.302 4.83714 107.4 6.08821 109.377C6.84055 110.566 9.4332 110.803 10.9118 110.838C11.0567 110.842 11.2049 110.844 11.3547 110.844L11.3546 110.844ZM15.3373 109.402C14.8279 109.712 13.0065 110.015 10.9328 109.965C8.81264 109.914 7.2015 109.5 6.82839 108.911C5.86626 107.391 5.08437 102.699 6.87392 96.0044C7.40955 94.0003 8.52087 90.8004 10.27 86.2259C12.8418 85.3549 16.2981 86.5346 18.2017 88.2014C17.9131 90.6888 17.6495 93.2292 17.3943 95.6884C17.028 99.2182 16.6821 102.552 16.3276 105.064C15.8278 108.606 15.4708 109.279 15.3373 109.402ZM87.1416 128.435C89.3692 128.435 91.4735 127.364 92.5913 126.247C92.6326 126.206 92.6655 126.158 92.6881 126.105C92.7106 126.052 92.7224 125.995 92.7227 125.937C92.7229 125.879 92.7117 125.822 92.6896 125.768C92.6676 125.715 92.6351 125.666 92.5941 125.626C92.5531 125.585 92.5045 125.553 92.4509 125.531C92.3973 125.509 92.3399 125.498 92.282 125.498C92.2241 125.498 92.1669 125.51 92.1136 125.533C92.0603 125.555 92.012 125.588 91.9716 125.63C90.5443 127.057 87.3028 128.403 84.5657 126.928C84.5151 126.9 84.4594 126.883 84.402 126.877C84.3445 126.87 84.2863 126.875 84.2309 126.892C84.1754 126.908 84.1237 126.935 84.0788 126.971C84.0339 127.008 83.9966 127.052 83.9691 127.103C83.9417 127.154 83.9245 127.21 83.9188 127.267C83.913 127.324 83.9186 127.382 83.9354 127.438C83.9522 127.493 83.9798 127.544 84.0166 127.589C84.0534 127.633 84.0986 127.67 84.1497 127.697C85.1195 128.219 86.1432 128.435 87.1416 128.435V128.435Z" fill="#6F29C3"/>
  </g>
  <g clip-path="url(#clip1_2509_13770)">
  <path d="M40.4542 56.7509C34.5867 56.7509 29.8302 52.0343 29.8302 46.216C29.8302 40.3978 34.5867 35.6812 40.4542 35.6812C46.3216 35.6812 51.0781 40.3978 51.0781 46.216C51.0781 52.0343 46.3216 56.7509 40.4542 56.7509Z" fill="#EEEEEE"/>
  <path d="M40.4502 57.5625C43.5358 57.5626 46.6124 56.3365 48.8656 53.9163C53.1472 49.3172 52.8572 42.1215 48.2194 37.8758C45.9728 35.8191 43.0527 34.7524 39.9976 34.8741C36.9425 34.9952 34.1174 36.2889 32.0435 38.5165C29.9693 40.7444 28.8943 43.6398 29.0163 46.6695C29.1384 49.6991 30.4429 52.5003 32.6897 54.557C34.8869 56.5684 37.6723 57.5623 40.4502 57.5624V57.5625ZM40.4641 36.4978C42.9336 36.4978 45.2773 37.4049 47.1023 39.0757C51.073 42.7106 51.3212 48.8711 47.6556 52.8086C45.7268 54.8804 43.0923 55.9302 40.4507 55.9303C38.0721 55.9303 35.688 55.0794 33.8065 53.3572C31.883 51.5964 30.7662 49.1981 30.6617 46.6044C30.5572 44.0105 31.4776 41.5317 33.2533 39.6242C35.029 37.7169 37.4474 36.6094 40.0632 36.5058C40.1967 36.5005 40.3303 36.4978 40.4639 36.4978H40.4641Z" fill="#6F29C3"/>
  <path d="M26.4465 62.6232C26.6361 62.6235 26.8236 62.5847 26.9972 62.5093C27.1709 62.434 27.3268 62.3237 27.4552 62.1854L33.845 55.322C34.3591 54.7698 34.3244 53.9088 33.7676 53.399C33.2105 52.8892 32.3425 52.9236 31.8283 53.4759L25.4386 60.3393C24.9245 60.8916 24.9592 61.7525 25.5161 62.2623C25.7692 62.4947 26.1015 62.6236 26.4465 62.6232Z" fill="#6F29C3"/>
  </g>
  <g clip-path="url(#clip2_2509_13770)">
  <path d="M47.5233 45.4152C47.6093 45.4152 47.6934 45.3897 47.7652 45.3418C47.8369 45.2939 47.893 45.2257 47.9265 45.1458C47.9599 45.0659 47.9693 44.9778 47.9534 44.8925C47.9374 44.8073 47.8969 44.7287 47.8369 44.6665C46.5771 43.3592 44.3979 41.9715 42.4028 42.364C42.2889 42.3864 42.1886 42.4535 42.1238 42.5505C42.059 42.6475 42.0351 42.7665 42.0573 42.8813C42.0795 42.9961 42.146 43.0973 42.2422 43.1626C42.3384 43.2279 42.4564 43.2521 42.5703 43.2297C44.2218 42.9044 46.1021 44.1319 47.2096 45.2816C47.2503 45.3239 47.2991 45.3575 47.353 45.3805C47.4069 45.4034 47.4648 45.4152 47.5233 45.4152ZM44.5684 51.2578C45.3711 51.2578 46.098 51.1072 46.6208 50.7972C46.6911 50.7556 46.7484 50.6949 46.7863 50.6222C46.8242 50.5494 46.8412 50.4674 46.8354 50.3855C46.7133 48.6725 45.8043 47.3685 44.2756 46.7135C42.3792 45.9012 40.0316 46.2586 39.029 47.1028C38.9751 47.1483 38.9328 47.2061 38.9057 47.2715C38.8787 47.3369 38.8676 47.4079 38.8736 47.4785C38.9729 48.6622 39.7785 49.7054 41.1418 50.4168C42.2042 50.9603 43.3771 51.2482 44.5684 51.2578ZM45.9327 50.1572C44.8762 50.5857 42.9592 50.3713 41.5437 49.6332C40.9584 49.3279 39.9914 48.6785 39.7796 47.6441C40.5995 47.1405 42.4062 46.8709 43.9338 47.5253C44.7415 47.8714 45.7195 48.607 45.9327 50.1572Z" fill="#6F29C3"/>
  <path d="M42.9202 50.3265C42.2802 50.0925 42.0196 49.1848 42.3381 48.2993C42.6565 47.4137 43.4336 46.8856 44.0736 47.1196C44.7136 47.3537 44.9742 48.2613 44.6558 49.1469C44.3373 50.0325 43.5603 50.5606 42.9202 50.3265Z" fill="#6F29C3"/>
  </g>
  <g clip-path="url(#clip3_2509_13770)">
  <path d="M182.425 26.788C182.459 26.7002 185.428 14.9041 186.139 13.0278C186.849 11.1514 190.309 7.33705 192.499 7.78361C194.69 8.23016 195.996 10.7046 196.445 12.6704C196.893 14.6361 192.14 21.9927 190.795 22.7374C189.45 23.482 188.135 28.1283 187.896 28.724C187.657 29.3197 181.901 28.1446 182.425 26.788ZM121.77 52.7638C124.322 53.7292 132.346 53.9159 134.348 52.9758C135.988 52.2061 136.624 45.8588 136.281 42.7364C135.905 39.3168 132.252 29.5009 129.961 26.8749C128.604 25.3195 123.819 21.8354 118.298 23.7303C112.776 25.6251 108.115 36.6763 109.525 38.7666C110.935 40.857 113.466 44.9707 114.499 46.2105C115.532 47.4503 119.662 51.9661 121.77 52.7639V52.7638Z" fill="#EEEEEE"/>
  <path d="M129.008 51.2109L127.724 67.5326L116.006 64.9298L117.321 45.9678L129.008 51.2109Z" fill="#EEEEEE"/>
  <path d="M116.615 56.1557C116.615 56.7605 116.123 60.5684 116.123 60.5684C116.123 60.5684 124.95 64.8159 127.193 65.8314C127.193 65.8314 123.158 69.3461 120.647 73.099C116.701 69.7036 111.411 60.8577 111.14 59.7855C110.87 58.7133 116.615 55.551 116.615 56.1557ZM130.96 60.2182C132.753 62.8236 133.144 70.4184 133.144 70.4184L127.193 65.8314C128.18 64.404 129.008 59.3387 129.008 59.3387C129.008 59.3387 129.939 58.736 130.96 60.2181L130.96 60.2182ZM146.294 86.0551C147.602 83.9436 154.365 78.6835 154.365 78.6835C154.365 78.6835 176.142 64.3424 177.181 63.8064C178.219 63.2702 182.524 58.1772 183.241 54.7818C183.958 51.3865 188.263 36.4274 188.353 35.4631C188.442 34.4989 186.918 34.0521 186.918 34.0521C186.918 34.0521 188.891 28.1549 188.891 27.7975C188.891 27.4401 181.358 25.0276 181.089 25.5637C180.82 26.0999 179.475 30.5674 179.475 30.5674C179.475 30.5674 177.667 30.2994 177.181 31.2822C176.695 32.265 168.228 53.3029 168.228 53.3029C167.311 53.9869 143.567 61.7842 139.711 63.5712C135.855 65.3582 144.987 88.1665 146.294 86.0549V86.0551Z" fill="#EEEEEE"/>
  <path d="M148.276 60.3725L131.288 60.7825C131.288 60.7825 111.879 60.2183 108.449 60.2183C106.021 60.2183 99.0856 61.6503 96.6196 65.8315C95.3997 67.9 95.3566 118.847 95.2669 120.813C95.1772 122.779 100.109 129.748 100.109 129.748L137.415 125.459C137.415 125.459 146.059 87.1054 146.293 86.055C147.691 79.7679 151.177 60.3023 148.276 60.3723L148.276 60.3725Z" fill="#EEEEEE"/>
  <path d="M128.904 54.0861C131.324 54.0861 133.606 53.8083 134.536 53.3719C136.609 52.399 137.011 45.3546 136.718 42.689C136.324 39.1045 132.43 29.3351 130.308 26.6071C130.273 26.5616 130.229 26.5236 130.179 26.4951C130.129 26.4666 130.074 26.4482 130.016 26.441C129.959 26.4337 129.901 26.4378 129.845 26.453C129.79 26.4681 129.738 26.494 129.692 26.5292C129.647 26.5644 129.608 26.6082 129.58 26.6581C129.551 26.708 129.533 26.7631 129.525 26.8201C129.518 26.8771 129.522 26.935 129.537 26.9904C129.553 27.0459 129.579 27.0978 129.614 27.1432C131.627 29.7315 135.47 39.3793 135.844 42.7844C136.225 46.2439 135.403 51.9975 134.161 52.5803C133.326 52.9724 130.576 53.3142 127.59 53.1825C124.445 53.0439 122.226 52.4111 121.799 51.5313C121.774 51.479 121.739 51.432 121.696 51.3932C121.653 51.3544 121.603 51.3245 121.548 51.3052C121.493 51.2859 121.435 51.2776 121.377 51.2808C121.319 51.284 121.262 51.2986 121.21 51.3238C121.158 51.349 121.111 51.3843 121.073 51.4276C121.034 51.4709 121.005 51.5214 120.986 51.5761C120.967 51.6309 120.959 51.6888 120.963 51.7465C120.967 51.8043 120.982 51.8607 121.008 51.9125C121.769 53.48 124.986 53.9438 127.551 54.0569C128.002 54.0767 128.455 54.0863 128.904 54.0863V54.0861Z" fill="#6F29C3"/>
  <path d="M128.178 60.6558C128.288 60.6557 128.395 60.6141 128.476 60.5393C128.557 60.4645 128.607 60.362 128.615 60.2522L129.123 53.7742C129.128 53.7169 129.121 53.6593 129.103 53.6047C129.085 53.55 129.057 53.4994 129.019 53.4557C128.982 53.4121 128.936 53.3762 128.884 53.3501C128.833 53.3241 128.777 53.3084 128.719 53.3039C128.662 53.2993 128.604 53.306 128.549 53.3237C128.494 53.3415 128.443 53.3698 128.4 53.4072C128.356 53.4446 128.32 53.4902 128.294 53.5415C128.267 53.5928 128.252 53.6487 128.247 53.7061L127.74 60.1841C127.735 60.2443 127.743 60.3048 127.763 60.3618C127.783 60.4188 127.814 60.4711 127.855 60.5154C127.896 60.5597 127.946 60.595 128.002 60.6192C128.057 60.6433 128.117 60.6558 128.178 60.6557L128.178 60.6558ZM127.959 37.1561C128.001 37.1561 128.044 37.1501 128.086 37.1374L130.657 36.366C130.767 36.3317 130.86 36.2553 130.914 36.1534C130.968 36.0516 130.98 35.9326 130.947 35.8222C130.913 35.7118 130.837 35.619 130.736 35.5639C130.634 35.5088 130.515 35.4959 130.404 35.528L127.833 36.2994C127.732 36.3296 127.645 36.395 127.589 36.4836C127.532 36.5723 127.509 36.6782 127.525 36.7821C127.54 36.8861 127.592 36.981 127.672 37.0497C127.752 37.1183 127.854 37.1561 127.959 37.1561ZM122.336 38.8697C122.453 38.8697 122.565 38.8237 122.647 38.7416C122.729 38.6596 122.776 38.5483 122.776 38.4322C122.776 38.3162 122.729 38.2049 122.647 38.1228C122.565 38.0407 122.453 37.9945 122.337 37.9945L115.053 37.9895H115.052C114.936 37.9894 114.824 38.0355 114.742 38.1175C114.659 38.1995 114.613 38.3108 114.613 38.4269C114.613 38.5429 114.659 38.6543 114.742 38.7364C114.824 38.8184 114.936 38.8646 115.052 38.8646L122.336 38.8697H122.336ZM118.641 27.3331C121.182 26.9706 129.081 26.8748 130.256 27.3331C131.393 28.8645 133.19 33.1096 133.19 33.1096C133.19 33.1096 135.48 29.9919 135.48 28.8917C135.48 27.7915 134.468 21.8319 131.892 20.64C129.315 19.4481 120.39 18.898 118.641 19.6315C116.893 20.365 114.592 21.4652 114.5 24.2158C114.408 26.9663 116.626 27.6206 118.641 27.333V27.3331Z" fill="#6F29C3"/>
  <path d="M133.191 33.5474C133.26 33.5474 133.328 33.5312 133.389 33.5001C133.451 33.469 133.504 33.4239 133.545 33.3684C133.942 32.8285 135.92 30.0753 135.92 28.8921C135.92 27.7264 134.873 21.5371 132.077 20.2435C129.318 18.9671 120.326 18.4506 118.471 19.2285C116.967 19.8595 114.168 21.0339 114.062 24.2015C114.022 25.3813 114.365 26.3037 115.081 26.9431C116.206 27.9486 117.834 27.8906 118.704 27.7666C121.136 27.4195 128.573 27.3311 129.984 27.7052C131.081 29.2651 132.769 33.2391 132.786 33.2801C132.82 33.3594 132.876 33.4271 132.948 33.4747C133.02 33.5222 133.104 33.5476 133.191 33.5476L133.191 33.5474ZM121.905 19.7304C125.197 19.7304 129.968 20.2327 131.707 21.0372C133.969 22.0837 135.041 27.6428 135.041 28.892C135.041 29.4498 134.121 31.0012 133.283 32.221C132.713 30.9298 131.488 28.2556 130.61 27.0731C130.561 27.0069 130.494 26.9559 130.417 26.9259C129.103 26.4132 121.146 26.5339 118.579 26.9002C117.357 27.0745 116.295 26.8527 115.667 26.2915C115.154 25.833 114.909 25.1396 114.939 24.2307C115.02 21.8246 116.98 20.8034 118.812 20.0351C119.309 19.8265 120.466 19.7305 121.905 19.7305V19.7304Z" fill="#6F29C3"/>
  <path d="M116.281 61.0825C116.39 61.0823 116.495 61.0417 116.576 60.9687C116.657 60.8956 116.707 60.7953 116.718 60.6872C116.754 60.314 117.609 51.5281 117.516 49.8635C117.475 49.1126 116.595 48.0288 115.043 46.1779C113.272 44.065 110.847 41.1712 111.329 39.7598C111.597 38.9737 112.189 38.7547 112.638 38.7093C113.68 38.6038 114.949 39.2901 115.526 40.2712C116.136 41.3097 116.694 41.7456 117.186 41.5656C117.409 41.4844 117.758 41.2159 117.603 40.3304C117.449 39.4538 118.505 28.0304 120.239 24.2128C120.286 24.1071 120.29 23.9869 120.249 23.8785C120.208 23.7701 120.125 23.6824 120.019 23.6346C119.913 23.5868 119.793 23.5829 119.684 23.6237C119.575 23.6645 119.487 23.7466 119.438 23.8521C117.645 27.8011 116.549 39.4082 116.737 40.4815L116.738 40.4869C116.618 40.3462 116.464 40.1355 116.284 39.8291C115.535 38.5549 113.928 37.6995 112.55 37.8387C111.552 37.9394 110.823 38.5217 110.497 39.4782C109.857 41.3549 112.254 44.2153 114.369 46.7389C115.421 47.9929 116.612 49.4143 116.64 49.9121C116.729 51.5105 115.853 60.5117 115.844 60.6025C115.838 60.6633 115.845 60.7247 115.864 60.7827C115.883 60.8407 115.915 60.894 115.956 60.9392C115.997 60.9844 116.047 61.0205 116.104 61.0452C116.16 61.0698 116.22 61.0825 116.282 61.0825H116.281Z" fill="#6F29C3"/>
  <path d="M120.646 73.5368C120.718 73.5368 120.789 73.519 120.853 73.485C120.917 73.451 120.971 73.4018 121.011 73.3419C123.09 70.2344 126.276 67.2511 127.213 66.401L132.874 70.7647C132.94 70.8161 133.02 70.8473 133.104 70.8548C133.188 70.8622 133.272 70.8455 133.346 70.8067C133.421 70.7679 133.483 70.7086 133.524 70.6358C133.566 70.5631 133.586 70.4799 133.581 70.3963C133.565 70.0811 133.163 62.6473 131.321 59.9709C130.322 58.5202 129.214 58.6832 128.768 58.9721C128.716 59.0053 128.673 59.0489 128.639 59.0999C128.606 59.151 128.583 59.2085 128.573 59.2687C128.365 60.5403 127.711 63.8829 127.013 65.2692C124.262 64.0123 116.59 60.4112 115.729 59.8519C115.631 59.7901 115.513 59.7691 115.4 59.7935C115.287 59.8179 115.188 59.8856 115.125 59.9821C115.062 60.0786 115.04 60.196 115.063 60.3089C115.086 60.4217 115.153 60.5209 115.249 60.5849C116.167 61.1811 123.634 64.6812 126.402 65.9524C125.288 66.9738 122.566 69.5844 120.566 72.4399C116.683 68.8474 111.781 60.5363 111.565 59.6792C111.565 59.6779 111.582 59.2401 113.258 58.2058C114.203 57.6222 115.175 57.1606 115.185 57.156C115.237 57.1317 115.285 57.0972 115.324 57.0546C115.363 57.012 115.393 56.9621 115.413 56.9077C115.433 56.8533 115.442 56.7955 115.439 56.7378C115.436 56.68 115.422 56.6234 115.397 56.5711C115.372 56.5189 115.337 56.4721 115.294 56.4334C115.251 56.3948 115.2 56.365 115.145 56.3459C115.091 56.3268 115.033 56.3187 114.975 56.322C114.917 56.3254 114.86 56.3402 114.808 56.3655C114.765 56.3858 113.741 56.8718 112.733 57.5003C111.166 58.4776 110.543 59.2154 110.713 59.8923C111.006 61.054 116.373 70.0004 120.359 73.4305C120.439 73.4995 120.541 73.5368 120.646 73.5368ZM129.49 59.6534C129.734 59.6534 130.131 59.7895 130.596 60.4659C131.929 62.4012 132.464 67.3687 132.636 69.4747L127.766 65.7207C128.58 64.1436 129.228 60.6383 129.398 59.6602C129.428 59.6556 129.459 59.6534 129.49 59.6534Z" fill="#6F29C3"/>
  <path d="M100.109 130.186C100.126 130.186 100.143 130.185 100.16 130.183L137.465 125.894C137.555 125.884 137.64 125.846 137.708 125.785C137.775 125.725 137.823 125.645 137.843 125.557C138.739 121.649 146.567 87.4829 146.728 86.1087C146.952 85.4067 150.908 81.9706 154.622 79.0383C162.151 74.0798 176.577 64.6104 177.381 64.1951C178.499 63.6177 182.909 58.4683 183.669 54.8722C184.044 53.0998 185.421 48.0881 186.635 43.6665C187.942 38.9128 188.744 35.9753 188.788 35.5038C188.867 34.6547 188.121 34.084 187.466 33.7908C188.346 31.1547 189.328 28.1347 189.328 27.7979C189.328 27.4425 188.992 27.2753 188.439 27.0419C188.052 26.8783 187.51 26.6768 186.872 26.4593C185.534 26.0026 184.029 25.5605 182.945 25.3055C181.424 24.9478 180.898 24.9624 180.694 25.3684C180.452 25.8508 179.491 28.9924 179.156 30.0994C178.507 30.0673 177.256 30.1381 176.785 31.0892C176.297 32.0763 168.888 50.615 168.573 51.4037C168.483 51.6282 168.593 51.8827 168.818 51.9721C169.044 52.0615 169.299 51.952 169.389 51.7274C172.054 45.0575 177.195 32.2412 177.573 31.4761C177.852 30.9115 179.021 30.9447 179.409 31.0008C179.513 31.0159 179.62 30.9933 179.708 30.9369C179.797 30.8805 179.863 30.7942 179.893 30.6936C180.362 29.1368 181.137 26.6376 181.413 25.9196C182.464 25.9266 187.325 27.425 188.403 27.9783C188.166 28.8635 187.153 31.961 186.499 33.9142C186.481 33.97 186.473 34.0289 186.478 34.0875C186.483 34.1461 186.499 34.2031 186.527 34.2552C186.554 34.3073 186.592 34.3534 186.637 34.3907C186.683 34.428 186.735 34.4558 186.792 34.4724C187.097 34.5632 187.959 34.9333 187.913 35.4231C187.875 35.8422 186.814 39.7024 185.788 43.4356C184.57 47.8691 183.189 52.8941 182.81 54.6922C182.127 57.9233 177.951 62.9156 176.977 63.4183C175.93 63.9588 155.011 77.7327 154.122 78.3189C154.111 78.3258 154.101 78.3331 154.091 78.3409C154.071 78.3567 152.066 79.9404 150.077 81.6349C145.926 85.1695 145.88 85.7222 145.855 86.019C145.761 86.9658 139.539 114.227 137.056 125.06L100.319 129.284C98.4423 126.605 95.6469 122.121 95.7057 120.833C95.7237 120.437 95.7344 118.249 95.7505 114.938C95.8109 102.533 95.9713 69.5794 97.041 65.9551C97.3601 64.8739 98.4611 63.8004 100.225 62.8506C103.427 61.1267 107.56 60.4075 108.322 60.6371C108.377 60.6538 108.435 60.6594 108.493 60.6538C108.55 60.6481 108.606 60.6312 108.657 60.6041C108.708 60.577 108.752 60.5401 108.789 60.4957C108.826 60.4512 108.853 60.4 108.87 60.345C108.886 60.29 108.892 60.2323 108.886 60.1751C108.881 60.1179 108.864 60.0624 108.837 60.0117C108.809 59.961 108.772 59.9162 108.728 59.8798C108.683 59.8434 108.632 59.8161 108.577 59.7995C107.456 59.4613 102.987 60.3683 99.8073 62.0807C97.8048 63.159 96.5904 64.3795 96.1983 65.7081C95.0935 69.4512 94.9384 101.324 94.8722 114.934C94.8561 118.234 94.8455 120.415 94.8283 120.793C94.7345 122.849 99.2368 129.275 99.7505 130C99.7911 130.058 99.8449 130.104 99.9073 130.137C99.9698 130.169 100.039 130.186 100.109 130.186L100.109 130.186ZM146.73 86.0916C146.73 86.0944 146.73 86.0972 146.729 86.1002L146.73 86.0916Z" fill="#6F29C3"/>
  <path d="M143.871 62.6358C143.92 62.6358 143.97 62.6274 144.02 62.6098L168.86 53.7147C168.915 53.6958 168.966 53.6663 169.009 53.6277C169.053 53.5892 169.088 53.5424 169.113 53.4902C169.138 53.4379 169.153 53.3812 169.156 53.3233C169.159 53.2654 169.15 53.2075 169.13 53.1529C169.111 53.0983 169.08 53.0482 169.041 53.0055C169.002 52.9627 168.954 52.9281 168.902 52.9038C168.849 52.8794 168.792 52.8658 168.733 52.8636C168.675 52.8614 168.617 52.8708 168.563 52.8911L143.723 61.7863C143.625 61.8211 143.543 61.889 143.491 61.9781C143.439 62.0672 143.42 62.1717 143.438 62.2733C143.456 62.3748 143.509 62.4669 143.588 62.5332C143.667 62.5995 143.768 62.6358 143.871 62.6358Z" fill="#6F29C3"/>
  <path d="M131.288 61.2203L131.299 61.2201L149.03 60.7921C149.088 60.7907 149.145 60.778 149.198 60.7547C149.25 60.7314 149.298 60.698 149.338 60.6564C149.418 60.5724 149.462 60.46 149.459 60.344C149.456 60.228 149.407 60.1178 149.323 60.0378C149.238 59.9577 149.126 59.9143 149.009 59.9171L131.277 60.3452C131.162 60.3478 131.052 60.3957 130.971 60.4786C130.891 60.5615 130.847 60.6726 130.848 60.7879C130.849 60.9031 130.896 61.0132 130.979 61.0941C131.061 61.1751 131.172 61.2204 131.288 61.2203Z" fill="#6F29C3"/>
  <path d="M182.86 25.7355C182.86 25.7355 183.777 22.6155 183.956 21.8113C184.136 21.0072 181.625 18.952 182.073 17.7012C182.521 16.4502 184.494 11.3572 184.584 10.8211C184.674 10.285 187.992 8.49797 188.888 7.6938C189.785 6.88962 190.625 8.46942 190.087 9.45235C189.549 10.4352 186.826 13.4124 186.826 13.4124" fill="#EEEEEE"/>
  <path d="M182.861 26.173C182.956 26.1729 183.049 26.1422 183.125 26.0854C183.201 26.0287 183.256 25.949 183.283 25.8582C183.32 25.7302 184.205 22.715 184.386 21.9061C184.506 21.3692 184.064 20.7619 183.506 19.9929C183.001 19.2978 182.309 18.3459 182.487 17.8481C182.627 17.459 182.917 16.691 183.252 15.8017C184.209 13.2648 184.902 11.4145 185.008 10.9411C185.203 10.6629 186.397 9.90054 187.192 9.39261C188.013 8.86784 188.789 8.37227 189.183 8.0187C189.369 7.85187 189.45 7.91543 189.509 7.96203C189.761 8.16004 189.953 8.7848 189.702 9.24241C189.281 10.0108 187.25 12.3 186.502 13.1173C186.426 13.2035 186.387 13.3161 186.393 13.4308C186.399 13.5455 186.45 13.6532 186.536 13.7306C186.621 13.808 186.733 13.8489 186.848 13.8445C186.964 13.84 187.073 13.7906 187.152 13.7069C187.264 13.5837 189.916 10.6791 190.473 9.66162C190.937 8.81489 190.624 7.72453 190.054 7.27546C189.609 6.92517 189.05 6.96072 188.596 7.36834C188.255 7.67421 187.473 8.17328 186.718 8.65604C184.917 9.80646 184.229 10.2849 184.152 10.749C184.094 11.0849 183.052 13.8448 182.43 15.4939C182.093 16.3868 181.802 17.1578 181.661 17.5538C181.326 18.4857 182.106 19.5592 182.794 20.5062C183.09 20.9133 183.537 21.5284 183.527 21.7242C183.354 22.4972 182.449 25.5815 182.44 25.6124C182.421 25.6777 182.417 25.7465 182.429 25.8134C182.441 25.8803 182.469 25.9435 182.51 25.9979C182.551 26.0523 182.604 26.0965 182.665 26.1268C182.726 26.1572 182.793 26.173 182.862 26.173H182.861ZM130.298 30.063C130.384 30.063 130.467 30.0381 130.539 29.9913C130.61 29.9445 130.667 29.8779 130.701 29.7997C130.735 29.7215 130.745 29.6351 130.731 29.5511C130.716 29.467 130.677 29.3891 130.619 29.3268C130.019 28.6861 127.93 26.5956 126.251 26.5915H126.25C126.134 26.5914 126.022 26.6373 125.939 26.7193C125.857 26.8013 125.81 26.9125 125.81 27.0286C125.81 27.1446 125.856 27.256 125.939 27.3381C126.021 27.4203 126.132 27.4665 126.249 27.4667C127.304 27.4693 128.917 28.792 129.977 29.924C130.018 29.9679 130.068 30.003 130.123 30.0269C130.178 30.0508 130.238 30.0631 130.298 30.063ZM126.25 29.8185C126.336 29.8185 126.419 29.7936 126.491 29.7469C126.562 29.7003 126.619 29.6338 126.653 29.5557C126.687 29.4776 126.697 29.3912 126.683 29.3072C126.669 29.2233 126.63 29.1453 126.572 29.0829C125.747 28.1993 122.902 26.6044 121.748 26.6608C121.691 26.6636 121.634 26.6777 121.582 26.7022C121.53 26.7268 121.483 26.7613 121.445 26.8039C121.406 26.8465 121.376 26.8962 121.356 26.9503C121.337 27.0045 121.328 27.0618 121.331 27.1192C121.334 27.1768 121.348 27.2332 121.372 27.2853C121.397 27.3374 121.431 27.3841 121.474 27.4228C121.517 27.4615 121.567 27.4913 121.621 27.5105C121.676 27.5298 121.734 27.5381 121.791 27.535C122.561 27.497 125.146 28.8402 125.928 29.6789C125.969 29.723 126.019 29.7582 126.075 29.7822C126.13 29.8062 126.19 29.8186 126.25 29.8185ZM100.11 129.748V132.608C100.11 132.608 97.868 135.735 97.5989 137.254C97.33 138.773 96.3435 148.959 96.3435 148.959H139.029C139.478 138.952 137.415 128.497 137.415 128.497V125.46L100.11 129.748L100.11 129.748Z" fill="#6F29C3"/>
  <path d="M96.3432 149.397H139.029C139.142 149.397 139.251 149.353 139.333 149.275C139.414 149.197 139.463 149.091 139.468 148.978C139.899 139.356 137.997 129.199 137.854 128.456V125.459C137.854 125.398 137.841 125.337 137.816 125.28C137.79 125.224 137.753 125.174 137.707 125.133C137.661 125.091 137.606 125.061 137.547 125.042C137.488 125.023 137.426 125.017 137.364 125.025L100.059 129.313C99.9522 129.326 99.8535 129.377 99.7818 129.457C99.7101 129.537 99.6705 129.641 99.6705 129.748V132.469C99.2524 133.064 97.4221 135.733 97.1662 137.178C96.8972 138.696 95.9464 148.5 95.906 148.917C95.9001 148.978 95.907 149.039 95.9263 149.097C95.9456 149.155 95.9768 149.208 96.018 149.253C96.0592 149.298 96.1094 149.334 96.1654 149.359C96.2214 149.384 96.2819 149.397 96.3432 149.397ZM138.608 148.521H96.8271C97.026 146.487 97.8014 138.627 98.0313 137.33C98.2376 136.165 99.8594 133.709 100.467 132.862C100.52 132.788 100.549 132.699 100.549 132.607V130.138L136.976 125.95V128.497C136.976 128.525 136.978 128.554 136.984 128.581C137.004 128.684 138.974 138.809 138.608 148.521V148.521ZM102.8 126.791C102.877 126.791 102.953 126.77 103.02 126.732C103.087 126.693 103.142 126.638 103.181 126.571C103.219 126.505 103.239 126.429 103.239 126.352C103.239 126.275 103.219 126.2 103.18 126.133L99.5928 119.968C99.5343 119.868 99.4383 119.795 99.3257 119.765C99.2131 119.735 99.0932 119.751 98.9925 119.809C98.8917 119.867 98.8182 119.963 98.7883 120.075C98.7583 120.187 98.7743 120.307 98.8328 120.407L102.42 126.572C102.458 126.639 102.514 126.694 102.581 126.732C102.647 126.771 102.723 126.791 102.8 126.791Z" fill="#6F29C3"/>
  <path d="M131.37 126.216C131.466 126.216 131.559 126.185 131.635 126.127C131.712 126.07 131.767 125.989 131.793 125.897L135.902 111.372C135.933 111.261 135.918 111.142 135.861 111.041C135.804 110.94 135.71 110.866 135.598 110.834C135.486 110.803 135.366 110.817 135.265 110.873C135.163 110.93 135.089 111.024 135.057 111.135L130.948 125.66C130.929 125.725 130.926 125.793 130.939 125.86C130.951 125.926 130.979 125.989 131.02 126.043C131.061 126.097 131.114 126.14 131.175 126.17C131.236 126.201 131.303 126.216 131.37 126.216Z" fill="#6F29C3"/>
  <path d="M113.164 133.016C113.269 133.016 113.373 132.994 113.469 132.953C113.565 132.912 113.652 132.851 113.724 132.776C113.796 132.7 113.851 132.61 113.887 132.512C113.923 132.414 113.939 132.31 113.932 132.205L113.574 126.04C113.562 125.837 113.47 125.648 113.317 125.513C113.165 125.377 112.965 125.308 112.762 125.32C112.558 125.332 112.368 125.424 112.232 125.575C112.097 125.727 112.027 125.926 112.039 126.129L112.398 132.294C112.409 132.489 112.495 132.672 112.637 132.806C112.78 132.941 112.969 133.015 113.164 133.016ZM134.006 130.514C134.11 130.514 134.214 130.493 134.309 130.452C134.405 130.411 134.492 130.351 134.564 130.276C134.636 130.201 134.691 130.111 134.727 130.014C134.764 129.916 134.779 129.813 134.774 129.709L134.505 124.526C134.495 124.324 134.404 124.133 134.252 123.997C134.101 123.861 133.901 123.791 133.698 123.801C133.494 123.812 133.303 123.902 133.167 124.053C133.03 124.204 132.96 124.403 132.97 124.605L133.239 129.788C133.249 129.984 133.334 130.168 133.477 130.303C133.62 130.439 133.809 130.514 134.006 130.514ZM136.738 76.4672C139.956 68.7916 143.692 65.951 145.395 65.3256C147.099 64.7002 150.338 70.873 150.507 72.2057C150.828 74.7405 144.902 78.2571 144.588 77.6174C144.588 77.6174 142.615 73.4565 142.436 74.4378C142.257 75.419 140.468 79.5031 138.67 79.4879C137.287 79.4762 136.291 77.5345 136.738 76.4672H136.738Z" fill="#EEEEEE"/>
  <path d="M136.739 76.9048C136.827 76.9048 136.912 76.8787 136.985 76.8297C137.058 76.7807 137.114 76.7111 137.147 76.6299C140.729 67.7242 145.066 65.9132 145.548 65.7361C145.733 65.6685 146.008 65.8183 146.156 65.914C147.823 66.9914 150.007 71.2959 150.07 72.2348C150.078 72.3505 150.131 72.4584 150.219 72.5348C150.307 72.6112 150.421 72.6498 150.537 72.6423C150.595 72.6385 150.651 72.6234 150.703 72.5979C150.754 72.5724 150.801 72.537 150.839 72.4938C150.877 72.4505 150.906 72.4003 150.924 72.3458C150.943 72.2914 150.95 72.2338 150.946 72.1765C150.861 70.9 148.507 66.3909 146.634 65.1798C146.127 64.8517 145.659 64.7627 145.245 64.9148C144.396 65.2264 139.978 67.2395 136.331 76.3043C136.305 76.3707 136.295 76.4427 136.302 76.5138C136.31 76.5849 136.335 76.6531 136.375 76.7124C136.415 76.7716 136.47 76.8202 136.533 76.8537C136.596 76.8873 136.667 76.9048 136.739 76.9048Z" fill="#6F29C3"/>
  <path d="M147.906 74.8753C147.974 74.8753 148.041 74.8596 148.102 74.8294C148.163 74.7993 148.216 74.7554 148.257 74.7014C148.298 74.6473 148.326 74.5845 148.338 74.5179C148.351 74.4514 148.348 74.3828 148.329 74.3177L146.715 68.6745C146.699 68.6193 146.672 68.5677 146.636 68.5226C146.601 68.4776 146.556 68.4401 146.506 68.4121C146.455 68.3842 146.4 68.3664 146.343 68.3598C146.285 68.3532 146.227 68.3579 146.172 68.3737C146.117 68.3894 146.065 68.4159 146.02 68.4516C145.974 68.4873 145.937 68.5316 145.909 68.5818C145.881 68.632 145.863 68.6872 145.856 68.7443C145.849 68.8014 145.854 68.8592 145.87 68.9144L147.484 74.5576C147.51 74.649 147.566 74.7295 147.642 74.7868C147.718 74.8442 147.811 74.8753 147.906 74.8754L147.906 74.8753ZM146.472 76.5221C146.55 76.5221 146.627 76.5012 146.694 76.4618C146.762 76.4223 146.817 76.3657 146.855 76.2977C146.893 76.2297 146.913 76.1528 146.911 76.075C146.909 75.9971 146.887 75.9212 146.846 75.8549L144.082 71.3865C144.052 71.3376 144.012 71.2951 143.965 71.2614C143.919 71.2277 143.866 71.2036 143.81 71.1903C143.753 71.177 143.695 71.1749 143.638 71.184C143.581 71.1931 143.527 71.2134 143.478 71.2435C143.429 71.2736 143.386 71.3131 143.352 71.3597C143.318 71.4063 143.294 71.459 143.281 71.5149C143.268 71.5709 143.265 71.6288 143.275 71.6856C143.284 71.7423 143.304 71.7967 143.334 71.8456L146.098 76.314C146.137 76.3777 146.192 76.4303 146.258 76.4667C146.323 76.5031 146.397 76.5222 146.472 76.5221ZM138.669 79.9252C138.681 79.9252 138.692 79.9248 138.703 79.924C140.563 79.785 142.192 76.5671 142.711 75.0686C143.102 75.6559 143.712 76.7934 144.191 77.8041C144.215 77.8572 144.25 77.9049 144.292 77.9446C144.335 77.9842 144.385 78.015 144.44 78.0352C144.495 78.0553 144.553 78.0643 144.611 78.0618C144.67 78.0592 144.727 78.0451 144.78 78.0203C144.832 77.9954 144.88 77.9603 144.919 77.9171C144.958 77.8738 144.988 77.8233 145.007 77.7683C145.026 77.7134 145.034 77.6552 145.03 77.5972C145.027 77.5392 145.011 77.4824 144.985 77.4303C143.243 73.7556 142.766 73.8173 142.48 73.8547C142.387 73.8667 142.081 73.9387 142.004 74.3592C141.832 75.3003 140.099 78.9421 138.637 79.0514C138.524 79.0598 138.418 79.1116 138.342 79.196C138.267 79.2804 138.227 79.3907 138.231 79.5039C138.235 79.617 138.283 79.7242 138.365 79.8028C138.447 79.8814 138.556 79.9252 138.669 79.9252Z" fill="#6F29C3"/>
  <path d="M113.74 75.869L124.828 93.7223C127.668 89.0585 135.346 76.4511 135.711 75.869C136.159 75.1542 143.513 83.8214 143.064 84.1788C142.616 84.5362 140.374 86.5913 140.374 86.5913C140.374 86.5913 142.257 88.5571 141.54 89.9867C140.822 91.4163 132.751 108.081 130.51 110.337C128.268 112.593 126.026 114.022 124.95 113.486C123.874 112.95 107.463 100.709 100.109 84.3576L113.74 75.869Z" fill="#EEEEEE"/>
  <path d="M124.95 94.3558C125.028 94.3558 125.105 94.3349 125.172 94.2954C125.24 94.2559 125.295 94.1991 125.333 94.1311C125.371 94.063 125.39 93.986 125.389 93.9081C125.387 93.8302 125.364 93.7542 125.323 93.688L114.113 75.6388C114.083 75.5895 114.044 75.5466 113.997 75.5126C113.95 75.4786 113.897 75.4542 113.841 75.4407C113.784 75.4273 113.726 75.4251 113.669 75.4343C113.611 75.4434 113.556 75.4638 113.507 75.4942C113.458 75.5246 113.415 75.5643 113.381 75.6113C113.348 75.6582 113.324 75.7113 113.31 75.7675C113.297 75.8238 113.296 75.8821 113.305 75.939C113.315 75.9959 113.336 76.0504 113.367 76.0993L124.576 94.1484C124.615 94.2119 124.67 94.2643 124.736 94.3006C124.801 94.3369 124.875 94.3559 124.95 94.3558Z" fill="#6F29C3"/>
  <path d="M125.476 114.037C127.239 114.037 129.732 111.742 130.822 110.645C132.194 109.265 135.789 102.67 141.508 91.0433C141.649 90.7559 141.791 90.469 141.933 90.1824C142.589 88.8746 141.532 87.3062 140.985 86.6272C141.615 86.0514 143.006 84.7856 143.339 84.5204C143.417 84.4584 143.588 84.2783 143.498 83.9459C143.253 83.0408 140.37 79.6979 140.043 79.3197C137.86 76.8013 136.462 75.4814 135.889 75.3966C135.663 75.3632 135.453 75.4555 135.339 75.6371C134.894 76.3462 123.877 94.4403 123.409 95.2101C123.348 95.3093 123.33 95.4284 123.358 95.5412C123.385 95.6539 123.457 95.751 123.556 95.8112C123.656 95.8715 123.776 95.8898 123.889 95.8622C124.002 95.8346 124.099 95.7633 124.16 95.6641C124.268 95.4856 134.464 78.7402 135.924 76.3605C136.45 76.7269 137.747 78.0028 139.462 79.9887C141.112 81.8994 142.28 83.4548 142.579 84.0141C141.878 84.6191 140.159 86.1943 140.077 86.2692C140.034 86.3086 140 86.3561 139.975 86.409C139.951 86.4618 139.937 86.519 139.936 86.5771C139.934 86.6352 139.943 86.6931 139.964 86.7474C139.985 86.8017 140.016 86.8514 140.057 86.8935C140.52 87.3794 141.621 88.8479 141.147 89.791C141.075 89.9354 140.928 90.2345 140.719 90.6582C133.648 105.034 131.095 109.127 130.198 110.029C127.649 112.594 125.792 113.417 125.147 113.095C123.932 112.49 107.71 100.187 100.511 84.1787C100.463 84.0728 100.375 83.99 100.266 83.9487C100.212 83.9282 100.155 83.9186 100.097 83.9202C100.04 83.9218 99.9828 83.9348 99.9302 83.9583C99.8776 83.9818 99.8301 84.0154 99.7905 84.0572C99.7509 84.099 99.7199 84.1481 99.6994 84.2018C99.6789 84.2555 99.6691 84.3127 99.6708 84.3702C99.6724 84.4276 99.6854 84.4842 99.709 84.5366C103.581 93.1457 109.929 100.504 114.572 105.161C119.912 110.516 124.231 113.617 124.754 113.878C124.974 113.988 125.217 114.037 125.476 114.037L125.476 114.037ZM115.988 79.9254C116.049 79.9255 116.111 79.9125 116.167 79.8874C116.224 79.8622 116.274 79.8254 116.316 79.7794C116.357 79.7335 116.388 79.6793 116.407 79.6205C116.425 79.5617 116.431 79.4997 116.424 79.4384L115.925 75.061C115.919 75.0038 115.901 74.9484 115.873 74.8981C115.845 74.8477 115.808 74.8033 115.763 74.7675C115.717 74.7317 115.666 74.7051 115.61 74.6894C115.554 74.6736 115.496 74.6689 115.439 74.6756C115.323 74.6887 115.218 74.7471 115.145 74.8379C115.073 74.9287 115.039 75.0445 115.052 75.1598L115.552 79.5372C115.564 79.6439 115.615 79.7425 115.695 79.814C115.776 79.8856 115.88 79.9253 115.988 79.9254ZM121.403 32.6532C121.443 32.6532 121.483 32.6477 121.523 32.6362C122.083 32.4771 123.692 32.0941 124.412 32.2285C124.527 32.2499 124.645 32.2251 124.741 32.1596C124.837 32.094 124.903 31.9931 124.925 31.8791C124.946 31.765 124.921 31.6471 124.856 31.5513C124.79 31.4555 124.689 31.3897 124.574 31.3683C123.521 31.1714 121.508 31.7303 121.282 31.7946C121.18 31.8235 121.092 31.8882 121.035 31.9767C120.977 32.0652 120.953 32.1715 120.968 32.2761C120.982 32.3807 121.035 32.4764 121.115 32.5457C121.195 32.615 121.297 32.6531 121.403 32.653L121.403 32.6532ZM129.523 45.6833C130.785 45.6833 132.781 45.1886 133.712 44.6453C133.762 44.6165 133.806 44.5781 133.841 44.5322C133.876 44.4864 133.902 44.4341 133.917 44.3783C133.932 44.3225 133.935 44.2644 133.927 44.2072C133.92 44.15 133.901 44.0949 133.871 44.0452C133.842 43.9954 133.803 43.9518 133.757 43.9171C133.711 43.8823 133.658 43.857 133.602 43.8426C133.546 43.8282 133.487 43.825 133.43 43.8331C133.373 43.8413 133.318 43.8607 133.268 43.8902C132.54 44.3147 130.746 44.8081 129.523 44.8081C129.407 44.8081 129.295 44.8542 129.213 44.9363C129.13 45.0183 129.084 45.1296 129.084 45.2457C129.084 45.3618 129.13 45.4731 129.213 45.5551C129.295 45.6372 129.407 45.6833 129.523 45.6833ZM103.183 30.0838C103.827 27.975 107.876 25.5912 110.453 24.0325C113.029 22.4738 115.698 23.1156 116.066 23.3907L119.624 24.552C118.001 28.8204 116.994 39.4027 117.17 40.406C117.354 41.4527 116.754 41.4955 115.905 40.0501C114.798 38.1661 111.672 37.3938 110.913 39.619C110.363 41.2314 112.65 44.0035 114.592 46.3225C112.519 46.1705 109.499 45.213 107.968 44.1116C104.655 41.7277 102.539 32.1925 103.183 30.0838H103.183Z" fill="#6F29C3"/>
  <path d="M114.592 46.7601C114.675 46.76 114.757 46.7363 114.827 46.6916C114.898 46.6469 114.954 46.5832 114.989 46.5079C115.025 46.4325 115.038 46.3487 115.027 46.2662C115.016 46.1837 114.982 46.106 114.929 46.0421C113.303 44.102 110.847 41.1699 111.328 39.7599C111.596 38.9738 112.188 38.7548 112.637 38.7094C113.679 38.6039 114.948 39.2902 115.525 40.2712C116.135 41.31 116.694 41.7455 117.185 41.5657C117.408 41.4844 117.758 41.216 117.602 40.3305C117.445 39.438 118.415 28.963 120.034 24.7071C120.055 24.6518 120.065 24.5929 120.062 24.5337C120.06 24.4746 120.045 24.4166 120.02 24.3633C119.994 24.3099 119.958 24.2623 119.913 24.2232C119.869 24.1842 119.816 24.1546 119.76 24.1362L116.253 22.9917C115.555 22.5879 112.797 22.102 110.224 23.6584L109.95 23.824C107.199 25.4854 103.433 27.7608 102.762 29.9562C102.405 31.1273 102.778 34.0719 103.67 37.117C104.285 39.2187 105.629 42.9683 107.71 44.4663C109.238 45.5656 112.31 46.594 114.56 46.7589C114.57 46.7597 114.581 46.7601 114.592 46.7601ZM112.848 37.8237C112.747 37.8237 112.647 37.8285 112.549 37.8386C111.551 37.9392 110.823 38.5215 110.496 39.4781C109.932 41.1307 111.759 43.5873 113.542 45.748C111.626 45.4128 109.388 44.5942 108.225 43.7568C106.859 42.7745 105.506 40.265 104.513 36.8718C103.61 33.7912 103.341 31.0661 103.603 30.2111C104.175 28.3358 107.924 26.0711 110.405 24.5725L110.68 24.4065C113.028 22.9858 115.461 23.5218 115.806 23.7439C115.844 23.7726 115.883 23.7916 115.928 23.8065L119.057 24.8279C117.513 29.363 116.54 39.3643 116.736 40.4815L116.737 40.4869C116.617 40.3462 116.463 40.1355 116.283 39.8291C115.588 38.6461 114.154 37.8238 112.848 37.8238L112.848 37.8237Z" fill="#6F29C3"/>
  <path d="M122.339 38.4319C121.51 36.2536 122.071 34.0229 123.59 33.4495C125.109 32.876 127.012 34.177 127.84 36.3552C128.669 38.5335 128.108 40.7642 126.589 41.3376C125.07 41.9111 123.167 40.6101 122.339 38.4319Z" fill="#EEEEEE"/>
  <path d="M125.849 41.9081C126.154 41.9081 126.454 41.8561 126.743 41.747C128.486 41.089 129.162 38.6009 128.25 36.2004C127.337 33.7999 125.176 32.3826 123.433 33.0405C122.56 33.3701 121.929 34.1487 121.657 35.2329C121.399 36.2597 121.494 37.4509 121.927 38.5871C122.688 40.5896 124.318 41.9081 125.849 41.9081ZM124.351 33.7498C125.515 33.7498 126.799 34.8566 127.428 36.5104C128.169 38.4595 127.722 40.4415 126.432 40.9285C125.141 41.4157 123.489 40.2261 122.748 38.277C122.379 37.3062 122.294 36.3005 122.508 35.4452C122.709 34.6473 123.148 34.0839 123.744 33.8589C123.938 33.786 124.144 33.749 124.351 33.7497L124.351 33.7498Z" fill="#6F29C3"/>
  <path d="M130.739 36.6037C129.911 34.4255 130.471 32.1948 131.99 31.6213C133.51 31.0479 135.413 32.3489 136.241 34.5271C137.069 36.7054 136.509 38.9361 134.989 39.5095C133.47 40.0829 131.567 38.782 130.739 36.6037Z" fill="#EEEEEE"/>
  <path d="M134.25 40.0804C134.555 40.0804 134.855 40.0285 135.144 39.9194C136.017 39.5898 136.648 38.8112 136.921 37.727C137.179 36.7002 137.083 35.509 136.651 34.3728C135.738 31.9723 133.577 30.5549 131.834 31.2128C130.091 31.8709 129.415 34.3591 130.327 36.7595C131.089 38.762 132.719 40.0804 134.25 40.0804ZM132.752 31.9222C133.916 31.9222 135.2 33.0289 135.829 34.6828C136.198 35.6536 136.283 36.6593 136.069 37.5145C135.868 38.3125 135.429 38.8759 134.833 39.1009C133.543 39.588 131.89 38.3984 131.149 36.4493C130.408 34.5002 130.855 32.5183 132.145 32.0312C132.339 31.9584 132.545 31.9215 132.752 31.9222H132.752Z" fill="#6F29C3"/>
  <path d="M193.017 7.75219C193.113 5.94605 200.719 13.4128 199.381 15.2561L197.408 17.2541C196.504 15.3805 194.382 14.8659 193.017 15.2561C192.866 15.2992 192.97 8.636 193.017 7.75219Z" fill="#EEEEEE"/>
  <path d="M193.017 15.7262C193.084 15.7263 193.151 15.7108 193.211 15.6811C193.272 15.6514 193.325 15.6082 193.366 15.5548C193.407 15.5015 193.435 15.4394 193.448 15.3734C193.461 15.3075 193.459 15.2394 193.441 15.1745C193.203 14.2955 193.355 9.04733 193.451 8.18879C193.481 7.91628 193.386 7.68097 193.184 7.52628C192.663 7.12819 191.517 7.48482 190.881 7.73293C190.774 7.77598 190.688 7.85952 190.642 7.96539C190.596 8.07125 190.594 8.19088 190.636 8.29828C190.678 8.40567 190.761 8.49214 190.867 8.53889C190.973 8.58564 191.093 8.58889 191.201 8.54794C191.712 8.34905 192.297 8.21056 192.566 8.21778C192.481 9.29676 192.308 14.3503 192.593 15.4025C192.618 15.4953 192.673 15.5773 192.75 15.6358C192.826 15.6943 192.92 15.7261 193.017 15.7262H193.017ZM195.192 15.7262C195.253 15.7263 195.314 15.7136 195.37 15.689C195.426 15.6644 195.476 15.6284 195.517 15.5833C195.558 15.5382 195.59 15.485 195.609 15.4271C195.628 15.3693 195.635 15.308 195.63 15.2473C195.483 13.7065 196.045 9.40222 196.05 9.35889C196.063 9.2449 196.031 9.13039 195.96 9.04004C195.889 8.94968 195.785 8.8907 195.671 8.8758C195.557 8.8609 195.441 8.89126 195.349 8.96036C195.257 9.02946 195.196 9.13176 195.179 9.24523C195.156 9.42595 194.599 13.6913 194.755 15.33C194.766 15.4383 194.816 15.5389 194.897 15.6122C194.978 15.6855 195.083 15.7261 195.192 15.7262ZM196.422 16.5304C196.502 16.5304 196.581 16.5084 196.65 16.4667C196.719 16.425 196.775 16.3652 196.812 16.2939L198.785 12.4964C198.838 12.3933 198.849 12.2732 198.813 12.1626C198.778 12.052 198.7 11.9599 198.597 11.9065C198.493 11.8532 198.373 11.8429 198.262 11.8781C198.151 11.9133 198.058 11.9909 198.005 12.094L196.032 15.8915C195.997 15.9582 195.98 16.0326 195.983 16.1077C195.985 16.1827 196.007 16.2559 196.047 16.32C196.086 16.3842 196.141 16.4372 196.206 16.4741C196.272 16.5109 196.346 16.5304 196.422 16.5304ZM197.408 17.6919C197.466 17.6919 197.523 17.6807 197.576 17.6587C197.63 17.6366 197.678 17.6044 197.719 17.5636L199.692 15.5979C199.732 15.5573 199.765 15.509 199.787 15.4559C199.809 15.4028 199.82 15.3459 199.82 15.2885C199.82 15.231 199.809 15.1741 199.787 15.121C199.765 15.0679 199.732 15.0197 199.692 14.979C199.651 14.9384 199.602 14.9061 199.549 14.8842C199.496 14.8622 199.439 14.8508 199.381 14.8508C199.323 14.8508 199.266 14.8622 199.213 14.8842C199.16 14.9061 199.111 14.9384 199.071 14.979L197.098 16.9448C197.036 17.006 196.994 17.0839 196.977 17.1688C196.96 17.2537 196.969 17.3418 197.002 17.4218C197.036 17.5018 197.092 17.5701 197.164 17.6182C197.236 17.6663 197.321 17.6919 197.408 17.6919Z" fill="#6F29C3"/>
  <path d="M146.148 76.0651L158.42 70.869L163.476 42.0905L179.187 53.4505L193.73 18.7278L202.651 30.5791L211.818 11.96L208.631 10.4023L202.016 23.8401L192.845 11.6575L177.639 47.9614L160.96 35.9011L155.256 68.3657L144.76 72.8101L146.148 76.0651Z" fill="#6F29C3"/>
  <path d="M146.149 76.5029C146.208 76.5029 146.266 76.491 146.321 76.4679L158.592 71.2718C158.659 71.2433 158.718 71.1984 158.764 71.1412C158.81 71.0841 158.84 71.0165 158.853 70.9446L163.788 42.8564L178.929 53.8048C178.983 53.8435 179.044 53.8697 179.11 53.8813C179.175 53.8929 179.242 53.8896 179.306 53.8718C179.369 53.8539 179.428 53.8219 179.478 53.7782C179.528 53.7344 179.567 53.68 179.592 53.6191L193.84 19.6027L202.3 30.842C202.345 30.9019 202.405 30.9493 202.474 30.9797C202.543 31.01 202.618 31.0222 202.693 31.0152C202.768 31.0082 202.839 30.9822 202.901 30.9396C202.963 30.897 203.013 30.8393 203.046 30.7721L212.213 12.153C212.264 12.0488 212.272 11.9285 212.234 11.8187C212.197 11.7089 212.117 11.6185 212.012 11.5674L208.825 10.0097C208.774 9.98432 208.717 9.96939 208.66 9.96573C208.602 9.96207 208.544 9.96975 208.49 9.98834C208.435 10.0069 208.385 10.036 208.342 10.074C208.298 10.112 208.263 10.1581 208.238 10.2097L201.937 23.0064L193.196 11.3951C193.15 11.3334 193.088 11.285 193.017 11.2549C192.946 11.2247 192.868 11.2139 192.791 11.2235C192.714 11.233 192.641 11.2626 192.579 11.3093C192.518 11.3559 192.47 11.418 192.44 11.4891L177.448 47.2825L161.219 35.5471C161.158 35.5035 161.088 35.476 161.014 35.467C160.94 35.458 160.865 35.468 160.796 35.4958C160.727 35.5237 160.666 35.5686 160.619 35.6264C160.572 35.6841 160.541 35.7527 160.528 35.8259L154.865 68.0562L144.589 72.4077C144.535 72.4301 144.487 72.4628 144.447 72.5038C144.406 72.5448 144.374 72.5933 144.353 72.6466C144.331 72.7 144.32 72.757 144.321 72.8145C144.321 72.872 144.333 72.9288 144.356 72.9817L145.744 76.2367C145.778 76.3157 145.835 76.3831 145.906 76.4305C145.978 76.4779 146.063 76.5032 146.149 76.5031L146.149 76.5029ZM158.028 70.5594L146.381 75.4913L145.336 73.0417L155.428 68.7685C155.495 68.7399 155.555 68.695 155.6 68.6379C155.646 68.5808 155.676 68.5132 155.689 68.4413L161.272 36.6669L177.382 48.3157C177.435 48.3545 177.497 48.3807 177.562 48.3923C177.627 48.404 177.694 48.4008 177.758 48.3829C177.822 48.3651 177.881 48.333 177.931 48.2893C177.98 48.2455 178.019 48.1911 178.045 48.1301L192.955 12.5323L201.665 24.1027C201.71 24.1626 201.769 24.21 201.838 24.2404C201.907 24.2707 201.982 24.283 202.057 24.276C202.132 24.2689 202.204 24.2429 202.266 24.2003C202.327 24.1577 202.377 24.1 202.41 24.0328L208.833 10.9881L211.231 12.1604L202.573 29.7456L194.082 18.4654C194.035 18.4036 193.973 18.3552 193.902 18.3251C193.831 18.2949 193.753 18.2841 193.676 18.2937C193.599 18.3032 193.526 18.3328 193.465 18.3795C193.403 18.4262 193.355 18.4882 193.325 18.5594L178.996 52.7716L163.735 41.7367C163.674 41.693 163.604 41.6654 163.53 41.6564C163.456 41.6474 163.381 41.6573 163.312 41.6852C163.243 41.7131 163.182 41.758 163.135 41.8158C163.088 41.8736 163.057 41.9423 163.044 42.0154L158.028 70.5596V70.5594Z" fill="#6F29C3"/>
  <path d="M213.023 5.28467L213.598 13.7525L205.95 10.0145L213.023 5.28467Z" fill="#6F29C3"/>
  <path d="M213.598 14.1159C213.648 14.1159 213.697 14.1057 213.743 14.0859C213.789 14.066 213.83 14.037 213.865 14.0006C213.899 13.9642 213.925 13.9212 213.942 13.8742C213.959 13.8273 213.965 13.7774 213.962 13.7276L213.387 5.2598C213.383 5.19606 213.362 5.13457 213.326 5.08152C213.291 5.02847 213.241 4.98572 213.184 4.95758C213.126 4.92945 213.062 4.91692 212.998 4.92125C212.934 4.92558 212.873 4.94662 212.82 4.98226L205.747 9.71213C205.694 9.74769 205.651 9.79659 205.623 9.85392C205.594 9.91124 205.582 9.97497 205.586 10.0387C205.59 10.1024 205.612 10.1639 205.647 10.2169C205.683 10.2699 205.732 10.3126 205.79 10.3407L213.437 14.0787C213.488 14.1036 213.543 14.1159 213.598 14.1159ZM212.702 5.9374L213.191 13.1481L206.679 9.96506L212.702 5.9374Z" fill="#6F29C3"/>
  <path d="M193.017 7.75219C193.113 5.94605 200.719 13.4128 199.381 15.2561C198.574 16.0734 197.949 16.7532 197.408 17.2541C196.999 17.6332 195.391 15.6489 195.177 15.0712C194.726 15.7531 193.186 15.9468 193.017 15.2563C192.98 15.1043 192.97 8.63611 193.017 7.75229L193.017 7.75219Z" fill="#EEEEEE"/>
  <path d="M193.017 15.7262C193.084 15.7263 193.151 15.7108 193.211 15.6811C193.272 15.6514 193.325 15.6082 193.366 15.5548C193.407 15.5015 193.435 15.4394 193.448 15.3734C193.461 15.3075 193.459 15.2394 193.441 15.1745C193.203 14.2955 193.355 9.04733 193.451 8.18879C193.481 7.91628 193.386 7.68097 193.184 7.52628C192.663 7.12819 191.517 7.48482 190.881 7.73293C190.774 7.77598 190.688 7.85952 190.642 7.96539C190.596 8.07125 190.594 8.19088 190.636 8.29828C190.678 8.40567 190.761 8.49214 190.867 8.53889C190.973 8.58564 191.093 8.58889 191.201 8.54794C191.712 8.34905 192.297 8.21056 192.566 8.21778C192.481 9.29676 192.308 14.3503 192.593 15.4025C192.618 15.4953 192.673 15.5773 192.75 15.6358C192.826 15.6943 192.92 15.7261 193.017 15.7262H193.017ZM195.192 15.7262C195.253 15.7263 195.314 15.7136 195.37 15.689C195.426 15.6644 195.476 15.6284 195.517 15.5833C195.558 15.5382 195.59 15.485 195.609 15.4271C195.628 15.3693 195.635 15.308 195.63 15.2473C195.483 13.7065 196.045 9.40222 196.05 9.35889C196.063 9.2449 196.031 9.13039 195.96 9.04004C195.889 8.94968 195.785 8.8907 195.671 8.8758C195.557 8.8609 195.441 8.89126 195.349 8.96036C195.257 9.02946 195.196 9.13176 195.179 9.24523C195.156 9.42595 194.599 13.6913 194.755 15.33C194.766 15.4383 194.816 15.5389 194.897 15.6122C194.978 15.6855 195.083 15.7261 195.192 15.7262ZM196.422 16.5304C196.502 16.5304 196.581 16.5084 196.65 16.4667C196.719 16.425 196.775 16.3652 196.812 16.2939L198.785 12.4964C198.838 12.3933 198.849 12.2732 198.813 12.1626C198.778 12.052 198.7 11.9599 198.597 11.9065C198.493 11.8532 198.373 11.8429 198.262 11.8781C198.151 11.9133 198.058 11.9909 198.005 12.094L196.032 15.8915C195.997 15.9582 195.98 16.0326 195.983 16.1077C195.985 16.1827 196.007 16.2559 196.047 16.32C196.086 16.3842 196.141 16.4372 196.206 16.4741C196.272 16.5109 196.346 16.5304 196.422 16.5304ZM197.408 17.6919C197.466 17.6919 197.523 17.6807 197.576 17.6587C197.63 17.6366 197.678 17.6044 197.719 17.5636L199.692 15.5979C199.732 15.5573 199.765 15.509 199.787 15.4559C199.809 15.4028 199.82 15.3459 199.82 15.2885C199.82 15.231 199.809 15.1741 199.787 15.121C199.765 15.0679 199.732 15.0197 199.692 14.979C199.651 14.9384 199.602 14.9061 199.549 14.8842C199.496 14.8622 199.439 14.8508 199.381 14.8508C199.323 14.8508 199.266 14.8622 199.213 14.8842C199.16 14.9061 199.111 14.9384 199.071 14.979L197.098 16.9448C197.036 17.006 196.994 17.0839 196.977 17.1688C196.96 17.2537 196.969 17.3418 197.002 17.4218C197.036 17.5018 197.092 17.5701 197.164 17.6182C197.236 17.6663 197.321 17.6919 197.408 17.6919Z" fill="#6F29C3"/>
  <path d="M145.395 65.3256C147.099 64.7002 150.338 70.873 150.507 72.2057C150.828 74.7405 144.902 78.2571 144.588 77.6174L142.517 74.1582C142.517 74.1582 145.019 65.4639 145.395 65.3256Z" fill="#EEEEEE"/>
  <path d="M150.508 72.6433C150.568 72.6434 150.627 72.6311 150.683 72.6073C150.738 72.5835 150.788 72.5486 150.829 72.5048C150.87 72.461 150.901 72.4093 150.922 72.3528C150.942 72.2963 150.95 72.2363 150.946 72.1765C150.861 70.9 148.507 66.3909 146.634 65.1798C146.127 64.8517 145.659 64.7627 145.245 64.9148C144.791 65.0816 144.271 65.361 143.742 65.7228C143.693 65.7551 143.652 65.7965 143.62 65.8447C143.588 65.893 143.566 65.9471 143.555 66.0039C143.544 66.0608 143.544 66.1192 143.556 66.1759C143.568 66.2325 143.591 66.2863 143.624 66.334C143.657 66.3817 143.699 66.4225 143.747 66.4539C143.796 66.4853 143.851 66.5068 143.908 66.5171C143.965 66.5273 144.024 66.5262 144.081 66.5137C144.137 66.5013 144.191 66.4777 144.238 66.4444C144.833 66.0382 145.279 65.835 145.549 65.736C145.733 65.6684 146.008 65.8182 146.156 65.9139C147.823 66.9913 150.007 71.2958 150.07 72.2347C150.077 72.3454 150.127 72.4491 150.208 72.525C150.289 72.6008 150.396 72.6431 150.508 72.6432L150.508 72.6433Z" fill="#6F29C3"/>
  <path d="M147.906 74.8752C147.974 74.8753 148.041 74.8596 148.102 74.8294C148.163 74.7993 148.216 74.7554 148.257 74.7014C148.298 74.6473 148.326 74.5845 148.338 74.5179C148.351 74.4514 148.348 74.3828 148.329 74.3177L146.715 68.6745C146.699 68.6193 146.672 68.5677 146.636 68.5226C146.601 68.4776 146.556 68.4401 146.506 68.4121C146.455 68.3842 146.4 68.3664 146.343 68.3598C146.285 68.3532 146.227 68.3579 146.172 68.3737C146.117 68.3894 146.065 68.4159 146.02 68.4516C145.974 68.4873 145.937 68.5315 145.909 68.5818C145.881 68.632 145.863 68.6872 145.856 68.7443C145.849 68.8014 145.854 68.8592 145.87 68.9144L147.484 74.5576C147.51 74.649 147.566 74.7295 147.642 74.7868C147.718 74.8442 147.811 74.8753 147.906 74.8754L147.906 74.8752ZM146.472 76.5221C146.55 76.5221 146.627 76.5012 146.694 76.4618C146.762 76.4223 146.817 76.3657 146.855 76.2977C146.893 76.2297 146.913 76.1528 146.911 76.075C146.909 75.9971 146.887 75.9212 146.846 75.8549L144.082 71.3865C144.052 71.3376 144.012 71.2951 143.965 71.2614C143.919 71.2277 143.866 71.2036 143.81 71.1903C143.754 71.177 143.695 71.1749 143.638 71.184C143.581 71.1931 143.527 71.2134 143.478 71.2435C143.429 71.2736 143.386 71.3131 143.352 71.3597C143.318 71.4063 143.294 71.459 143.281 71.5149C143.268 71.5709 143.265 71.6288 143.275 71.6856C143.284 71.7423 143.304 71.7967 143.334 71.8456L146.098 76.314C146.137 76.3777 146.192 76.4303 146.258 76.4667C146.323 76.5031 146.397 76.5222 146.472 76.5221ZM144.589 78.0549C144.663 78.0548 144.736 78.0361 144.8 78.0006C144.865 77.965 144.92 77.9136 144.96 77.8513C144.999 77.789 145.022 77.7178 145.027 77.6442C145.031 77.5705 145.017 77.497 144.986 77.4303C143.243 73.7556 142.766 73.8173 142.48 73.8547C142.387 73.8667 142.081 73.9387 142.004 74.3592C141.991 74.4328 141.996 74.5085 142.021 74.5793C142.045 74.65 142.087 74.7134 142.143 74.7633C142.199 74.8133 142.266 74.8482 142.34 74.8646C142.413 74.8811 142.489 74.8785 142.561 74.8573C142.931 75.3372 143.646 76.6529 144.192 77.8041C144.227 77.8792 144.283 77.9426 144.354 77.987C144.424 78.0314 144.505 78.0549 144.589 78.0549Z" fill="#6F29C3"/>
  <path d="M127.412 71.452C126.84 71.452 126.375 70.9895 126.375 70.4189C126.375 69.8483 126.84 69.3857 127.412 69.3857C127.985 69.3857 128.449 69.8483 128.449 70.4189C128.449 70.9895 127.985 71.452 127.412 71.452Z" fill="#6F29C3"/>
  <path d="M127.141 81.2416C126.568 81.2416 126.104 80.779 126.104 80.2084C126.104 79.6378 126.568 79.1753 127.141 79.1753C127.714 79.1753 128.178 79.6378 128.178 80.2084C128.178 80.779 127.714 81.2416 127.141 81.2416Z" fill="#6F29C3"/>
  </g>
  <defs>
  <clipPath id="clip0_2509_13770">
  <rect width="101.616" height="119.449" fill="white" transform="matrix(-1 0 0 1 106.543 29.9473)"/>
  </clipPath>
  <clipPath id="clip1_2509_13770">
  <rect width="26.8275" height="27.7586" fill="white" transform="matrix(-1 0 0 1 51.9023 34.8647)"/>
  </clipPath>
  <clipPath id="clip2_2509_13770">
  <rect width="9.0885" height="8.96143" fill="white" transform="matrix(-1 0 0 1 47.9609 42.2964)"/>
  </clipPath>
  <clipPath id="clip3_2509_13770">
  <rect width="119.136" height="144.476" fill="white" transform="matrix(-1 0 0 1 213.963 4.9209)"/>
  </clipPath>
  </defs>
  </svg>
  