<svg width="100" height="55" viewBox="0 0 100 55" fill="none" xmlns="http://www.w3.org/2000/svg">
<path opacity="0.5" fill-rule="evenodd" clip-rule="evenodd" d="M2.5672 6.82424C2.5672 4.80915 4.20075 3.1756 6.21585 3.1756H19.591V11.9324H2.5672V6.82424ZM2.5672 14.3649H19.591V25.0677H2.5672V14.3649ZM2.5672 27.5001V38.2029H19.591V27.5001H2.5672ZM2.5672 48.1756V40.6353H19.591V51.8242L6.21585 51.8242C4.20075 51.8242 2.5672 50.1907 2.5672 48.1756ZM22.0235 51.8242V40.6353H39.0515V51.8242H22.0235ZM41.4839 51.8242H58.5119V40.6353H41.4839V51.8242ZM77.9702 51.8242H60.9443V40.6353H77.9702V51.8242ZM80.4027 51.8242L93.7834 51.8242C95.7985 51.8242 97.4321 50.1907 97.4321 48.1756V40.6353H80.4027V51.8242ZM80.4027 38.2029H97.4321V27.5001H80.4027V38.2029ZM77.9702 27.5001H60.9443V38.2029H77.9702V27.5001ZM77.9702 25.0677H60.9443V14.3649H77.9702V25.0677ZM80.4027 25.0677H97.4321V14.3649H80.4027V25.0677ZM80.4027 11.9324H97.4321V6.82425C97.4321 4.80915 95.7985 3.1756 93.7834 3.1756H80.4027V11.9324ZM77.9702 3.1756H60.9443V11.9324H77.9702V3.1756ZM79.1865 0.743164H59.7281H40.2677H20.8072H6.21585C2.85736 0.743164 0.134766 3.46576 0.134766 6.82424V48.1756C0.134766 51.5341 2.85736 54.2567 6.21585 54.2567H93.7834C97.1419 54.2567 99.8645 51.5341 99.8645 48.1756V6.82425C99.8645 3.46576 97.1419 0.743164 93.7834 0.743164H79.1865ZM41.4839 27.5001H58.5119V38.2029H41.4839V27.5001ZM41.4839 25.0677H58.5119V14.3649H41.4839V25.0677ZM41.4839 3.1756H58.5119V11.9324H41.4839V3.1756ZM39.0515 14.3649V25.0677H22.0235V14.3649H39.0515ZM39.0515 3.1756V11.9324H22.0235V3.1756H39.0515ZM39.0515 27.5001V38.2029H22.0235V27.5001H39.0515Z" fill="#FEFEFE"/>
<path fill-rule="evenodd" clip-rule="evenodd" d="M60.9492 27.5H77.9751V38.2028H60.9492V27.5Z" fill="#FEFEFE"/>
<path opacity="0.25" fill-rule="evenodd" clip-rule="evenodd" d="M6.21505 3.17578C4.19996 3.17578 2.56641 4.80934 2.56641 6.82443V11.9326H19.5902V3.17578H6.21505ZM97.4313 11.9326H80.4019V3.17578H93.7826C95.7977 3.17578 97.4313 4.80934 97.4313 6.82443V11.9326ZM60.9435 3.17578H77.9694V11.9326H60.9435V3.17578ZM58.5111 3.17578H41.4831V11.9326H58.5111V3.17578ZM39.0507 11.9326V3.17578H22.0227V11.9326H39.0507Z" fill="#FEFEFE"/>
</svg>
