<svg width="16" height="17" viewBox="0 0 16 17" fill="none" xmlns="http://www.w3.org/2000/svg">
  <path d="M2 4.49992H3.33333M3.33333 4.49992H14M3.33333 4.49992L3.33333 13.8333C3.33333 14.1869 3.47381 14.526 3.72386 14.7761C3.97391 15.0261 4.31304 15.1666 4.66667 15.1666H11.3333C11.687 15.1666 12.0261 15.0261 12.2761 14.7761C12.5262 14.526 12.6667 14.1869 12.6667 13.8333V4.49992M5.33333 4.49992V3.16659C5.33333 2.81296 5.47381 2.47382 5.72386 2.22378C5.97391 1.97373 6.31304 1.83325 6.66667 1.83325H9.33333C9.68696 1.83325 10.0261 1.97373 10.2761 2.22378C10.5262 2.47382 10.6667 2.81296 10.6667 3.16659V4.49992M6.66667 7.83325V11.8333M9.33333 7.83325V11.8333" stroke="#1E1E1E" stroke-width="1.6" stroke-linecap="round" stroke-linejoin="round"/>
</svg>
  