<svg width="312" height="300" viewBox="0 0 312 300" fill="none" xmlns="http://www.w3.org/2000/svg">
  <path d="M83.6893 90.917C83.5936 91.011 83.5398 91.1394 83.5398 91.2735C83.5398 91.4076 83.5936 91.5361 83.6893 91.6301L144.001 150.926C144.144 151.068 144.359 151.109 144.544 151.031C144.73 150.953 144.851 150.771 144.851 150.57V66.7114C144.851 66.4353 144.627 66.2114 144.351 66.2114C121.601 66.2114 99.7805 75.0966 83.6893 90.917Z" fill="#86DA94" stroke="white" stroke-linejoin="round"/>
  <path d="M44.7666 150.648C44.7666 150.924 44.9905 151.148 45.2666 151.148H145.821C146.024 151.148 146.206 151.026 146.284 150.838C146.361 150.651 146.317 150.436 146.174 150.293L75.0715 79.6453C74.8765 79.4516 74.5617 79.4516 74.3667 79.6453C55.4135 98.4774 44.7666 124.018 44.7666 150.648Z" fill="#339E40" stroke="white" stroke-linejoin="round"/>
  <path d="M62.4322 223.185C62.512 223.291 62.6309 223.361 62.7625 223.38C62.8941 223.398 63.0276 223.364 63.1336 223.283L157.81 151.695C157.971 151.573 158.043 151.366 157.992 151.17C157.941 150.975 157.778 150.829 157.578 150.801L40.2308 134.309C39.9574 134.27 39.7046 134.461 39.6661 134.734C35.2596 166.088 43.4475 197.905 62.4322 223.185Z" fill="#D0FFDD" stroke="white" stroke-linejoin="round"/>
  <path d="M205.317 263.114C205.573 263.011 205.696 262.72 205.593 262.464L158.147 144.471C158.098 144.347 158.001 144.249 157.879 144.197C157.756 144.145 157.618 144.144 157.495 144.194L39.6589 192.029C39.4036 192.133 39.2802 192.424 39.383 192.679C47.7428 213.469 61.4261 231.684 79.0491 245.479L79.0492 245.479C114.922 273.551 163.057 280.27 205.317 263.114Z" fill="#3BB44B" stroke="white" stroke-linejoin="round"/>
  <path d="M114.056 274.532L114.056 274.532C158.045 286.356 204.979 273.733 237.177 241.428C237.372 241.233 237.372 240.917 237.177 240.722L145.399 148.647C145.304 148.552 145.174 148.499 145.039 148.5C144.904 148.502 144.776 148.557 144.683 148.655L56.9047 240.73C56.7176 240.926 56.721 241.236 56.9125 241.428C72.731 257.299 92.4437 268.719 114.056 274.532Z" fill="#60C770" stroke="white" stroke-linejoin="round"/>
  <path d="M143.679 20.5C143.403 20.5 143.179 20.7239 143.179 21V150.781C143.179 150.913 143.231 151.04 143.325 151.134L234.862 242.902C234.956 242.996 235.084 243.048 235.216 243.048C235.349 243.048 235.477 242.996 235.57 242.902C243.601 234.85 250.547 225.783 256.226 215.92C279.442 175.612 279.442 125.949 256.226 85.6408C233.01 45.332 190.106 20.5 143.679 20.5Z" fill="#E2EE41" stroke="white" stroke-linejoin="round"/>
  </svg>
  