<svg width="287" height="300" viewBox="0 0 287 300" fill="none" xmlns="http://www.w3.org/2000/svg">
  <g clip-path="url(#clip0_1849_9310)">
  <rect x="0.25" y="78.25" width="0.5" height="189.5" stroke="#E9EBF1" stroke-width="0.5"/>
  <rect x="14.25" y="78.25" width="0.5" height="189.5" stroke="#E9EBF1" stroke-width="0.5"/>
  <rect x="41.25" y="78.25" width="0.5" height="189.5" stroke="#E9EBF1" stroke-width="0.5"/>
  <rect x="68.25" y="78.25" width="0.5" height="189.5" stroke="#E9EBF1" stroke-width="0.5"/>
  <rect x="95.25" y="78.25" width="0.5" height="189.5" stroke="#E9EBF1" stroke-width="0.5"/>
  <rect x="122.25" y="78.25" width="0.5" height="189.5" stroke="#E9EBF1" stroke-width="0.5"/>
  <rect x="149.25" y="78.25" width="0.5" height="189.5" stroke="#E9EBF1" stroke-width="0.5"/>
  <rect x="176.25" y="78.25" width="0.5" height="189.5" stroke="#E9EBF1" stroke-width="0.5"/>
  <rect x="203.25" y="78.25" width="0.5" height="189.5" stroke="#E9EBF1" stroke-width="0.5"/>
  <rect x="230.25" y="78.25" width="0.5" height="189.5" stroke="#E9EBF1" stroke-width="0.5"/>
  <rect x="257.25" y="78.25" width="0.5" height="189.5" stroke="#E9EBF1" stroke-width="0.5"/>
  <rect x="286.25" y="78.25" width="0.5" height="189.5" stroke="#E9EBF1" stroke-width="0.5"/>
  <rect x="0.25" y="221.25" width="384.5" height="0.5" stroke="#E9EBF1" stroke-width="0.5"/>
  <rect x="0.25" y="78.25" width="384.5" height="0.5" stroke="#E9EBF1" stroke-width="0.5"/>
  <rect x="0.25" y="126.25" width="384.5" height="0.5" stroke="#E9EBF1" stroke-width="0.5"/>
  <rect x="0.25" y="174.25" width="384.5" height="0.5" stroke="#E9EBF1" stroke-width="0.5"/>
  <path fill-rule="evenodd" clip-rule="evenodd" d="M0 222C0 222 4.27902 191.868 20.4781 187.338C28.5832 185.071 34.7753 169.231 40.8157 153.967C46.8479 138.724 53.9512 124.056 61.4344 124.056C70.2405 124.056 74.2914 139.448 81.7888 152.131C87.0422 161.019 91.5426 168.894 103.002 168.894C110.748 168.894 116.253 168.003 122.788 165.832C130.134 163.392 137.154 160.723 143.537 157.789C151.864 153.96 156.265 149.814 164.129 149.814C169.186 149.814 176.109 150.913 184.235 151.937C190.667 152.747 198.58 153.28 205.506 154.791C212.665 156.353 219.443 158.609 225.757 160.976C235.004 164.442 241.679 169.109 245.43 174.455C250.205 181.26 257.615 180.436 266.436 170.754C272.296 164.323 286.999 139.32 286.999 139.32V222H0Z" fill="#FFF4C7"/>
  <path fill-rule="evenodd" clip-rule="evenodd" d="M0.614502 221.364C0.614502 221.364 13.8857 207.308 20.5811 203.461C24.5748 201.166 28.5826 199.626 32.6047 198.841C36.0303 198.172 38.8115 197.687 41.21 197.177C50.1173 195.286 50.0912 193.693 61.8528 180.441C68.6123 172.826 74.0445 166.581 81.9609 163.81C87.5294 161.861 94.2855 161.64 103.267 163.951C109.716 165.611 113.65 167.318 122.779 171.886C129.975 175.488 138.521 176.818 144.849 176.077C152.18 175.218 158.385 171.99 164.844 167.655C171.909 162.915 177.904 156.017 184.323 150.284C189.509 145.652 198.796 136.198 205.042 135.088C211.287 133.978 221.37 137.285 225.338 138.268C230.222 139.479 237.031 142.136 245.766 145.624C250.02 147.323 257.724 150.462 266.43 154.426C272.281 157.089 286.999 163.951 286.999 163.951V221.386L0.614502 221.364Z" fill="#E8D5BE" fill-opacity="0.7"/>
  <path fill-rule="evenodd" clip-rule="evenodd" d="M0.307373 221.871C0.307373 221.871 4.57988 199.785 20.7544 197.832C30.2471 196.685 35.8636 201.886 41.2013 203.874C44.9585 205.273 49.6724 205.141 55.8499 200.838C57.745 199.517 59.5858 198.244 61.4061 197.048C68.01 192.708 74.3432 189.386 82.0131 188.548C88.7864 187.808 103.273 192.03 103.458 192.108C108.767 194.355 119.128 198.853 124.515 201.33C131.704 204.635 136.905 207.075 144.962 209.916C151.575 212.248 157.698 214.233 165.409 215.64C174.068 217.22 175.194 217.236 185.856 216.912C192.849 216.699 199.774 215.124 206.183 212.63C214.115 209.543 221.256 205.047 226.754 199.983C230.031 196.964 232.725 193.743 234.653 190.497C239.072 183.062 242.728 175.808 247.144 171.223C250.046 168.21 253.277 166.35 257.268 166.35C261.604 166.35 263.882 167.265 267.339 169.848C274.911 175.505 284.301 197.854 285.344 205.782C286.388 213.71 286.999 221.871 286.999 221.871H0.307373Z" fill="#FCC563" fill-opacity="0.7"/>
  </g>
  <defs>
  <clipPath id="clip0_1849_9310">
  <rect width="287" height="143.5" fill="white" transform="translate(0 78)"/>
  </clipPath>
  </defs>
  </svg>
  