<svg width="400" height="300" viewBox="0 0 400 300" fill="none" xmlns="http://www.w3.org/2000/svg">
  <rect x="5" y="47" width="389.244" height="205" fill="white"/>
  <g clip-path="url(#clip0_250_623)">
  <path fill-rule="evenodd" clip-rule="evenodd" d="M9.69892 207.536C10.5282 208.238 11.7662 208.131 12.4641 207.296C18.9403 199.55 22.5038 191.071 25.5174 183.901C26.4032 181.793 27.2414 179.799 28.0922 177.969C30.0045 173.856 31.9449 170.608 34.5219 168.37C37.0266 166.194 40.276 164.852 45.0778 164.852C58.8181 164.852 67.1404 174.765 75.251 185.637C75.7444 186.298 76.2375 186.964 76.7312 187.63C80.2051 192.318 83.7109 197.049 87.5763 200.72C92.0414 204.96 97.1996 208 103.667 208C108.048 208 112.533 205.578 116.987 202.432C120.019 200.29 123.259 197.641 126.629 194.886C128.24 193.568 129.882 192.226 131.545 190.904C142.018 182.573 153.767 174.658 167.448 174.658C173.795 174.658 179.609 172.162 185.047 168.624C190.278 165.219 195.325 160.737 200.274 156.342C200.452 156.183 200.63 156.025 200.809 155.867C205.981 151.275 211.062 146.812 216.363 143.482C221.646 140.164 227.007 138.063 232.712 138.063C235.67 138.063 238.975 139.312 242.872 141.396C245.163 142.621 247.476 144.027 249.951 145.531C251.75 146.625 253.634 147.77 255.657 148.935C265.027 154.332 276.319 159.494 290.085 157.586C295.95 156.773 301.303 152.749 306.336 147.675C310.272 143.707 314.224 138.866 318.224 133.967C319.365 132.57 320.51 131.168 321.659 129.78C326.894 123.458 332.271 117.367 338.076 112.854C343.864 108.353 349.933 105.535 356.565 105.535C365.956 105.535 372.974 104.951 378.951 101.397C384.937 97.8389 389.568 91.4983 394.796 80.8514C395.277 79.8734 394.878 78.6885 393.907 78.205C392.935 77.7215 391.758 78.1225 391.278 79.1005C386.123 89.5971 381.912 95.0481 376.955 97.9954C371.989 100.948 365.961 101.584 356.565 101.584C348.761 101.584 341.865 104.915 335.676 109.727C329.503 114.527 323.891 120.914 318.644 127.25C317.447 128.696 316.27 130.137 315.11 131.557C311.133 136.428 307.347 141.064 303.559 144.883C298.641 149.842 294.068 153.046 289.55 153.672C277.109 155.396 266.774 150.786 257.606 145.506C255.777 144.452 253.946 143.341 252.151 142.251C249.564 140.682 247.049 139.156 244.714 137.907C240.7 135.761 236.679 134.112 232.712 134.112C226.013 134.112 219.927 136.586 214.285 140.13C208.663 143.661 203.345 148.347 198.212 152.904L197.776 153.291C192.747 157.757 187.896 162.065 182.916 165.306C177.809 168.629 172.744 170.707 167.448 170.707C152.293 170.707 139.597 179.463 129.111 187.803C127.342 189.211 125.645 190.598 124.009 191.936C120.708 194.636 117.652 197.135 114.732 199.198C110.337 202.303 106.731 204.049 103.667 204.049C98.5656 204.049 94.3238 201.696 90.2696 197.846C86.6725 194.43 83.3914 190.005 79.8876 185.28C79.3932 184.614 78.8944 183.941 78.3896 183.264C70.4063 172.563 61.0028 160.901 45.0778 160.901C39.4476 160.901 35.2563 162.513 31.9578 165.378C28.7315 168.181 26.5063 172.06 24.5373 176.294C23.5851 178.342 22.6831 180.485 21.7554 182.688C18.7691 189.782 15.5162 197.509 9.46098 204.752C8.76311 205.587 8.86964 206.833 9.69892 207.536Z" fill="#60C770"/>
  <g clip-path="url(#clip1_250_623)">
  <g clip-path="url(#clip2_250_623)" filter="url(#filter0_d_250_623)">
  <path fill-rule="evenodd" clip-rule="evenodd" d="M174 66.2852C171.791 66.2852 170 68.076 170 70.2852V98.2852C170 100.494 171.791 102.285 174 102.285H233.875L238.495 107.565C239.292 108.476 240.708 108.476 241.505 107.565L246.125 102.285H308C310.209 102.285 312 100.494 312 98.2852V70.2852C312 68.076 310.209 66.2852 308 66.2852H174Z" fill="white"/>
  </g>
  </g>
  <g clip-path="url(#clip3_250_623)">
  <path d="M45.7656 227.923C45.7277 227.587 45.5715 227.326 45.2969 227.142C45.0223 226.955 44.6766 226.861 44.2599 226.861C43.9616 226.861 43.7036 226.908 43.4858 227.003C43.268 227.096 43.0987 227.223 42.978 227.387C42.8596 227.548 42.8004 227.731 42.8004 227.937C42.8004 228.11 42.8407 228.259 42.9212 228.385C43.004 228.51 43.1117 228.615 43.2443 228.701C43.3793 228.783 43.5237 228.853 43.6776 228.91C43.8314 228.965 43.9794 229.01 44.1214 229.045L44.8317 229.23C45.0637 229.287 45.3016 229.364 45.5455 229.461C45.7893 229.558 46.0154 229.685 46.2237 229.844C46.4321 230.003 46.6001 230.199 46.728 230.434C46.8582 230.668 46.9233 230.949 46.9233 231.275C46.9233 231.687 46.8168 232.053 46.6037 232.373C46.393 232.692 46.0864 232.944 45.6839 233.129C45.2839 233.314 44.7997 233.406 44.2315 233.406C43.687 233.406 43.2159 233.319 42.8182 233.147C42.4205 232.974 42.1091 232.729 41.8842 232.412C41.6593 232.092 41.535 231.713 41.5114 231.275H42.6122C42.6335 231.538 42.7188 231.757 42.8679 231.932C43.0194 232.105 43.2124 232.234 43.4467 232.319C43.6835 232.402 43.9427 232.444 44.2244 232.444C44.5346 232.444 44.8104 232.395 45.0518 232.298C45.2957 232.199 45.4875 232.061 45.6271 231.886C45.7668 231.708 45.8366 231.501 45.8366 231.265C45.8366 231.049 45.7751 230.873 45.652 230.735C45.5313 230.598 45.3667 230.484 45.1584 230.395C44.9524 230.305 44.7192 230.225 44.4588 230.157L43.5994 229.922C43.017 229.764 42.5554 229.53 42.2145 229.223C41.8759 228.915 41.7067 228.508 41.7067 228.001C41.7067 227.582 41.8203 227.216 42.0476 226.904C42.2749 226.591 42.5826 226.349 42.9709 226.176C43.3591 226.001 43.7971 225.913 44.2848 225.913C44.7772 225.913 45.2116 225.999 45.5881 226.172C45.9669 226.345 46.2652 226.583 46.483 226.886C46.7008 227.187 46.8144 227.532 46.8239 227.923H45.7656ZM50.5002 233.395C49.9628 233.395 49.4999 233.28 49.1117 233.051C48.7258 232.819 48.4275 232.493 48.2168 232.074C48.0085 231.653 47.9043 231.159 47.9043 230.593C47.9043 230.035 48.0085 229.542 48.2168 229.116C48.4275 228.69 48.7211 228.357 49.0975 228.118C49.4763 227.879 49.919 227.76 50.4256 227.76C50.7334 227.76 51.0317 227.81 51.3205 227.912C51.6093 228.014 51.8685 228.174 52.0982 228.392C52.3278 228.609 52.5089 228.892 52.6415 229.24C52.7741 229.586 52.8404 230.006 52.8404 230.501V230.877H48.5044V230.082H51.7999C51.7999 229.803 51.7431 229.555 51.6294 229.34C51.5158 229.122 51.356 228.95 51.15 228.825C50.9464 228.699 50.7073 228.637 50.4327 228.637C50.1344 228.637 49.874 228.71 49.6515 228.857C49.4313 229.001 49.2608 229.191 49.1401 229.425C49.0217 229.657 48.9625 229.909 48.9625 230.181V230.803C48.9625 231.167 49.0265 231.478 49.1543 231.733C49.2845 231.989 49.4656 232.184 49.6976 232.319C49.9296 232.452 50.2007 232.518 50.5108 232.518C50.7121 232.518 50.8955 232.49 51.0613 232.433C51.227 232.374 51.3702 232.286 51.4909 232.17C51.6117 232.054 51.704 231.911 51.7679 231.74L52.7729 231.922C52.6924 232.217 52.548 232.477 52.3397 232.699C52.1337 232.919 51.8745 233.091 51.562 233.214C51.2518 233.335 50.8979 233.395 50.5002 233.395ZM54.0185 235.331V227.831H55.0554V228.715H55.1442C55.2057 228.601 55.2945 228.47 55.4105 228.321C55.5265 228.172 55.6875 228.041 55.8935 227.93C56.0994 227.816 56.3717 227.76 56.7102 227.76C57.1506 227.76 57.5436 227.871 57.8892 228.093C58.2348 228.316 58.5059 228.637 58.7024 229.056C58.9013 229.475 59.0007 229.979 59.0007 230.569C59.0007 231.158 58.9025 231.663 58.706 232.085C58.5095 232.504 58.2396 232.827 57.8963 233.054C57.553 233.279 57.1612 233.392 56.7209 233.392C56.3894 233.392 56.1184 233.336 55.9077 233.225C55.6993 233.114 55.536 232.983 55.4176 232.834C55.2992 232.685 55.2081 232.552 55.1442 232.436H55.0803V235.331H54.0185ZM55.0589 230.558C55.0589 230.941 55.1146 231.278 55.2259 231.566C55.3371 231.855 55.4981 232.081 55.7088 232.245C55.9195 232.406 56.1776 232.486 56.483 232.486C56.8002 232.486 57.0653 232.402 57.2784 232.234C57.4915 232.064 57.6525 231.833 57.7614 231.542C57.8726 231.25 57.9283 230.922 57.9283 230.558C57.9283 230.198 57.8738 229.875 57.7649 229.588C57.6584 229.302 57.4974 229.076 57.282 228.91C57.0689 228.744 56.8026 228.662 56.483 228.662C56.1752 228.662 55.9148 228.741 55.7017 228.9C55.491 229.058 55.3312 229.279 55.2223 229.564C55.1134 229.848 55.0589 230.179 55.0589 230.558Z" fill="#9AA1A9"/>
  <path d="M108.906 229.649C108.906 230.425 108.764 231.093 108.48 231.652C108.196 232.208 107.806 232.636 107.312 232.937C106.819 233.235 106.259 233.385 105.632 233.385C105.002 233.385 104.44 233.235 103.945 232.937C103.453 232.636 103.064 232.207 102.78 231.648C102.496 231.089 102.354 230.423 102.354 229.649C102.354 228.872 102.496 228.206 102.78 227.65C103.064 227.091 103.453 226.662 103.945 226.364C104.44 226.063 105.002 225.913 105.632 225.913C106.259 225.913 106.819 226.063 107.312 226.364C107.806 226.662 108.196 227.091 108.48 227.65C108.764 228.206 108.906 228.872 108.906 229.649ZM107.819 229.649C107.819 229.057 107.723 228.559 107.532 228.154C107.342 227.747 107.082 227.439 106.75 227.23C106.421 227.02 106.049 226.914 105.632 226.914C105.213 226.914 104.839 227.02 104.51 227.23C104.181 227.439 103.92 227.747 103.728 228.154C103.539 228.559 103.444 229.057 103.444 229.649C103.444 230.241 103.539 230.74 103.728 231.147C103.92 231.552 104.181 231.86 104.51 232.071C104.839 232.279 105.213 232.383 105.632 232.383C106.049 232.383 106.421 232.279 106.75 232.071C107.082 231.86 107.342 231.552 107.532 231.147C107.723 230.74 107.819 230.241 107.819 229.649ZM112.486 233.395C111.959 233.395 111.504 233.276 111.123 233.037C110.744 232.795 110.453 232.462 110.249 232.039C110.046 231.615 109.944 231.13 109.944 230.583C109.944 230.029 110.048 229.54 110.256 229.116C110.465 228.69 110.758 228.357 111.137 228.118C111.516 227.879 111.962 227.76 112.476 227.76C112.89 227.76 113.259 227.837 113.584 227.99C113.908 228.142 114.17 228.355 114.369 228.63C114.57 228.904 114.689 229.225 114.727 229.592H113.694C113.637 229.336 113.507 229.116 113.303 228.931C113.102 228.747 112.832 228.654 112.494 228.654C112.198 228.654 111.938 228.733 111.716 228.889C111.496 229.043 111.324 229.263 111.201 229.549C111.078 229.833 111.016 230.17 111.016 230.558C111.016 230.956 111.077 231.299 111.197 231.588C111.318 231.877 111.489 232.1 111.709 232.259C111.931 232.417 112.193 232.497 112.494 232.497C112.695 232.497 112.877 232.46 113.04 232.387C113.206 232.311 113.345 232.203 113.456 232.064C113.57 231.924 113.649 231.756 113.694 231.559H114.727C114.689 231.912 114.575 232.227 114.383 232.504C114.191 232.781 113.934 232.999 113.612 233.157C113.293 233.316 112.917 233.395 112.486 233.395ZM118.409 227.831V228.683H115.429V227.831H118.409ZM116.228 226.524H117.29V231.684C117.29 231.89 117.321 232.045 117.383 232.149C117.444 232.251 117.523 232.32 117.621 232.358C117.72 232.394 117.828 232.412 117.944 232.412C118.029 232.412 118.103 232.406 118.167 232.394C118.231 232.382 118.281 232.373 118.317 232.365L118.508 233.243C118.447 233.266 118.359 233.29 118.246 233.314C118.132 233.34 117.99 233.354 117.819 233.356C117.54 233.361 117.28 233.311 117.038 233.207C116.797 233.103 116.601 232.942 116.452 232.724C116.303 232.506 116.228 232.233 116.228 231.904V226.524Z" fill="#9AA1A9"/>
  <path d="M169.248 226.012V233.285H168.24L164.543 227.951H164.475V233.285H163.378V226.012H164.394L168.094 231.353H168.161V226.012H169.248ZM173.061 233.395C172.55 233.395 172.104 233.278 171.722 233.044C171.341 232.809 171.045 232.481 170.835 232.06C170.624 231.639 170.519 231.146 170.519 230.583C170.519 230.017 170.624 229.522 170.835 229.098C171.045 228.675 171.341 228.346 171.722 228.111C172.104 227.877 172.55 227.76 173.061 227.76C173.573 227.76 174.019 227.877 174.4 228.111C174.781 228.346 175.077 228.675 175.288 229.098C175.498 229.522 175.604 230.017 175.604 230.583C175.604 231.146 175.498 231.639 175.288 232.06C175.077 232.481 174.781 232.809 174.4 233.044C174.019 233.278 173.573 233.395 173.061 233.395ZM173.065 232.504C173.396 232.504 173.671 232.416 173.889 232.241C174.106 232.066 174.267 231.833 174.372 231.542C174.478 231.25 174.531 230.93 174.531 230.579C174.531 230.231 174.478 229.912 174.372 229.62C174.267 229.327 174.106 229.091 173.889 228.914C173.671 228.736 173.396 228.647 173.065 228.647C172.731 228.647 172.454 228.736 172.234 228.914C172.016 229.091 171.854 229.327 171.747 229.62C171.643 229.912 171.591 230.231 171.591 230.579C171.591 230.93 171.643 231.25 171.747 231.542C171.854 231.833 172.016 232.066 172.234 232.241C172.454 232.416 172.731 232.504 173.065 232.504ZM181.27 227.831L179.292 233.285H178.155L176.174 227.831H177.314L178.695 232.028H178.752L180.13 227.831H181.27Z" fill="#9AA1A9"/>
  <path d="M226.522 233.285H224.168V226.012H226.597C227.309 226.012 227.921 226.158 228.433 226.449C228.944 226.738 229.336 227.154 229.608 227.696C229.883 228.235 230.02 228.883 230.02 229.638C230.02 230.396 229.881 231.047 229.604 231.591C229.33 232.136 228.932 232.555 228.411 232.848C227.89 233.14 227.261 233.285 226.522 233.285ZM225.265 232.326H226.462C227.016 232.326 227.476 232.222 227.843 232.014C228.21 231.803 228.485 231.499 228.667 231.101C228.849 230.701 228.94 230.213 228.94 229.638C228.94 229.068 228.849 228.583 228.667 228.186C228.487 227.788 228.218 227.486 227.861 227.28C227.503 227.074 227.059 226.971 226.529 226.971H225.265V232.326ZM233.65 233.395C233.113 233.395 232.65 233.28 232.262 233.051C231.876 232.819 231.577 232.493 231.367 232.074C231.158 231.653 231.054 231.159 231.054 230.593C231.054 230.035 231.158 229.542 231.367 229.116C231.577 228.69 231.871 228.357 232.247 228.118C232.626 227.879 233.069 227.76 233.576 227.76C233.883 227.76 234.182 227.81 234.47 227.912C234.759 228.014 235.018 228.174 235.248 228.392C235.478 228.609 235.659 228.892 235.791 229.24C235.924 229.586 235.99 230.006 235.99 230.501V230.877H231.654V230.082H234.95C234.95 229.803 234.893 229.555 234.779 229.34C234.666 229.122 234.506 228.95 234.3 228.825C234.096 228.699 233.857 228.637 233.583 228.637C233.284 228.637 233.024 228.71 232.801 228.857C232.581 229.001 232.411 229.191 232.29 229.425C232.172 229.657 232.112 229.909 232.112 230.181V230.803C232.112 231.167 232.176 231.478 232.304 231.733C232.434 231.989 232.616 232.184 232.848 232.319C233.08 232.452 233.351 232.518 233.661 232.518C233.862 232.518 234.045 232.49 234.211 232.433C234.377 232.374 234.52 232.286 234.641 232.17C234.762 232.054 234.854 231.911 234.918 231.74L235.923 231.922C235.842 232.217 235.698 232.477 235.49 232.699C235.284 232.919 235.024 233.091 234.712 233.214C234.402 233.335 234.048 233.395 233.65 233.395ZM239.466 233.395C238.938 233.395 238.483 233.276 238.102 233.037C237.724 232.795 237.432 232.462 237.229 232.039C237.025 231.615 236.923 231.13 236.923 230.583C236.923 230.029 237.028 229.54 237.236 229.116C237.444 228.69 237.738 228.357 238.117 228.118C238.495 227.879 238.942 227.76 239.455 227.76C239.87 227.76 240.239 227.837 240.563 227.99C240.888 228.142 241.149 228.355 241.348 228.63C241.549 228.904 241.669 229.225 241.707 229.592H240.673C240.617 229.336 240.486 229.116 240.283 228.931C240.081 228.747 239.812 228.654 239.473 228.654C239.177 228.654 238.918 228.733 238.695 228.889C238.475 229.043 238.304 229.263 238.18 229.549C238.057 229.833 237.996 230.17 237.996 230.558C237.996 230.956 238.056 231.299 238.177 231.588C238.298 231.877 238.468 232.1 238.688 232.259C238.911 232.417 239.172 232.497 239.473 232.497C239.674 232.497 239.857 232.46 240.02 232.387C240.186 232.311 240.324 232.203 240.435 232.064C240.549 231.924 240.628 231.756 240.673 231.559H241.707C241.669 231.912 241.554 232.227 241.362 232.504C241.17 232.781 240.914 232.999 240.592 233.157C240.272 233.316 239.897 233.395 239.466 233.395Z" fill="#9AA1A9"/>
  <path d="M345.746 233.285V226.012H350.256V226.957H346.844V229.173H349.933V230.114H346.844V233.285H345.746ZM353.471 233.395C352.933 233.395 352.471 233.28 352.082 233.051C351.696 232.819 351.398 232.493 351.188 232.074C350.979 231.653 350.875 231.159 350.875 230.593C350.875 230.035 350.979 229.542 351.188 229.116C351.398 228.69 351.692 228.357 352.068 228.118C352.447 227.879 352.89 227.76 353.396 227.76C353.704 227.76 354.002 227.81 354.291 227.912C354.58 228.014 354.839 228.174 355.069 228.392C355.299 228.609 355.48 228.892 355.612 229.24C355.745 229.586 355.811 230.006 355.811 230.501V230.877H351.475V230.082H354.771C354.771 229.803 354.714 229.555 354.6 229.34C354.487 229.122 354.327 228.95 354.121 228.825C353.917 228.699 353.678 228.637 353.403 228.637C353.105 228.637 352.845 228.71 352.622 228.857C352.402 229.001 352.232 229.191 352.111 229.425C351.992 229.657 351.933 229.909 351.933 230.181V230.803C351.933 231.167 351.997 231.478 352.125 231.733C352.255 231.989 352.436 232.184 352.668 232.319C352.9 232.452 353.171 232.518 353.482 232.518C353.683 232.518 353.866 232.49 354.032 232.433C354.198 232.374 354.341 232.286 354.462 232.17C354.582 232.054 354.675 231.911 354.739 231.74L355.744 231.922C355.663 232.217 355.519 232.477 355.31 232.699C355.104 232.919 354.845 233.091 354.533 233.214C354.223 233.335 353.869 233.395 353.471 233.395ZM357.074 233.285V226.012H358.136V228.715H358.2C358.262 228.601 358.35 228.47 358.466 228.321C358.582 228.172 358.743 228.041 358.949 227.93C359.155 227.816 359.428 227.76 359.766 227.76C360.206 227.76 360.599 227.871 360.945 228.093C361.291 228.316 361.562 228.637 361.758 229.056C361.957 229.475 362.057 229.979 362.057 230.569C362.057 231.158 361.958 231.663 361.762 232.085C361.565 232.504 361.296 232.827 360.952 233.054C360.609 233.279 360.217 233.392 359.777 233.392C359.445 233.392 359.174 233.336 358.964 233.225C358.755 233.114 358.592 232.983 358.474 232.834C358.355 232.685 358.264 232.552 358.2 232.436H358.111V233.285H357.074ZM358.115 230.558C358.115 230.941 358.171 231.278 358.282 231.566C358.393 231.855 358.554 232.081 358.765 232.245C358.975 232.406 359.233 232.486 359.539 232.486C359.856 232.486 360.121 232.402 360.334 232.234C360.547 232.064 360.708 231.833 360.817 231.542C360.929 231.25 360.984 230.922 360.984 230.558C360.984 230.198 360.93 229.875 360.821 229.588C360.714 229.302 360.553 229.076 360.338 228.91C360.125 228.744 359.858 228.662 359.539 228.662C359.231 228.662 358.971 228.741 358.758 228.9C358.547 229.058 358.387 229.279 358.278 229.564C358.169 229.848 358.115 230.179 358.115 230.558Z" fill="#9AA1A9"/>
  <path d="M287.783 226.012H288.877V231.169C288.877 231.635 288.785 232.034 288.6 232.365C288.418 232.697 288.161 232.95 287.83 233.125C287.498 233.298 287.11 233.385 286.665 233.385C286.255 233.385 285.887 233.31 285.56 233.161C285.236 233.012 284.979 232.795 284.79 232.511C284.603 232.225 284.509 231.877 284.509 231.467H285.599C285.599 231.668 285.646 231.842 285.738 231.989C285.833 232.136 285.962 232.251 286.125 232.333C286.291 232.414 286.48 232.454 286.693 232.454C286.925 232.454 287.122 232.406 287.283 232.309C287.446 232.209 287.57 232.064 287.656 231.872C287.741 231.68 287.783 231.446 287.783 231.169V226.012ZM291.976 233.406C291.631 233.406 291.318 233.342 291.039 233.214C290.76 233.084 290.538 232.896 290.375 232.65C290.214 232.403 290.133 232.101 290.133 231.744C290.133 231.436 290.193 231.183 290.311 230.984C290.429 230.785 290.589 230.628 290.79 230.512C290.992 230.396 291.216 230.308 291.465 230.249C291.714 230.19 291.967 230.145 292.225 230.114C292.552 230.076 292.817 230.045 293.02 230.022C293.224 229.996 293.372 229.954 293.464 229.897C293.557 229.841 293.603 229.748 293.603 229.62V229.596C293.603 229.285 293.515 229.045 293.34 228.875C293.167 228.704 292.909 228.619 292.566 228.619C292.208 228.619 291.927 228.698 291.721 228.857C291.517 229.013 291.376 229.187 291.298 229.379L290.3 229.152C290.419 228.82 290.591 228.553 290.819 228.349C291.048 228.143 291.312 227.994 291.611 227.902C291.909 227.807 292.223 227.76 292.552 227.76C292.77 227.76 293 227.786 293.244 227.838C293.49 227.887 293.72 227.98 293.933 228.115C294.149 228.25 294.325 228.443 294.462 228.694C294.6 228.942 294.668 229.265 294.668 229.663V233.285H293.631V232.539H293.589C293.52 232.677 293.417 232.812 293.28 232.944C293.142 233.077 292.966 233.187 292.751 233.275C292.535 233.362 292.277 233.406 291.976 233.406ZM292.207 232.554C292.501 232.554 292.752 232.496 292.96 232.38C293.171 232.264 293.331 232.112 293.439 231.925C293.551 231.736 293.606 231.533 293.606 231.318V230.615C293.569 230.653 293.495 230.688 293.386 230.721C293.28 230.752 293.158 230.779 293.02 230.803C292.883 230.824 292.749 230.844 292.619 230.863C292.489 230.88 292.38 230.894 292.292 230.906C292.087 230.932 291.898 230.976 291.728 231.037C291.56 231.099 291.425 231.188 291.323 231.304C291.224 231.417 291.174 231.569 291.174 231.758C291.174 232.021 291.271 232.22 291.465 232.355C291.659 232.487 291.907 232.554 292.207 232.554ZM297.144 230.047V233.285H296.082V227.831H297.102V228.718H297.169C297.295 228.43 297.491 228.198 297.759 228.022C298.028 227.847 298.368 227.76 298.778 227.76C299.149 227.76 299.475 227.838 299.754 227.994C300.034 228.148 300.25 228.377 300.404 228.683C300.558 228.988 300.635 229.366 300.635 229.816V233.285H299.573V229.944C299.573 229.548 299.47 229.239 299.264 229.017C299.058 228.792 298.775 228.679 298.416 228.679C298.169 228.679 297.95 228.733 297.759 228.839C297.569 228.946 297.419 229.102 297.308 229.308C297.199 229.511 297.144 229.758 297.144 230.047Z" fill="#9AA1A9"/>
  </g>
  </g>
  <defs>
  <filter id="filter0_d_250_623" x="146" y="52.2852" width="190" height="90" filterUnits="userSpaceOnUse" color-interpolation-filters="sRGB">
  <feFlood flood-opacity="0" result="BackgroundImageFix"/>
  <feColorMatrix in="SourceAlpha" type="matrix" values="0 0 0 0 0 0 0 0 0 0 0 0 0 0 0 0 0 0 127 0" result="hardAlpha"/>
  <feOffset dy="10"/>
  <feGaussianBlur stdDeviation="12"/>
  <feColorMatrix type="matrix" values="0 0 0 0 0.113725 0 0 0 0 0.164706 0 0 0 0 0.266667 0 0 0 0.12 0"/>
  <feBlend mode="normal" in2="BackgroundImageFix" result="effect1_dropShadow_250_623"/>
  <feBlend mode="normal" in="SourceGraphic" in2="effect1_dropShadow_250_623" result="shape"/>
  </filter>
  <clipPath id="clip0_250_623">
  <rect width="390" height="160.542" fill="white" transform="translate(5 78.2852)"/>
  </clipPath>
  <clipPath id="clip1_250_623">
  <rect width="142" height="36" fill="white" transform="translate(170 66.2852)"/>
  </clipPath>
  <clipPath id="clip2_250_623">
  <rect width="142" height="42" fill="white" transform="translate(170 66.2852)"/>
  </clipPath>
  <clipPath id="clip3_250_623">
  <rect width="330" height="20" fill="white" transform="translate(41 219.285)"/>
  </clipPath>
  </defs>
  </svg>
  