<svg width="428" height="300" viewBox="0 0 428 300" fill="none" xmlns="http://www.w3.org/2000/svg">
  <g clip-path="url(#clip0_250_691)">
  <rect x="420.75" y="55.25" width="0.5" height="190.5" stroke="#E9EBF1" stroke-width="0.5"/>
  <rect x="392.25" y="55.25" width="0.5" height="190.5" stroke="#E9EBF1" stroke-width="0.5"/>
  <rect x="365.75" y="55.25" width="0.5" height="190.5" stroke="#E9EBF1" stroke-width="0.5"/>
  <rect x="338.25" y="55.25" width="0.5" height="190.5" stroke="#E9EBF1" stroke-width="0.5"/>
  <rect x="310.75" y="55.25" width="0.5" height="190.5" stroke="#E9EBF1" stroke-width="0.5"/>
  <rect x="282.25" y="55.25" width="0.5" height="190.5" stroke="#E9EBF1" stroke-width="0.5"/>
  <rect x="254.75" y="55.25" width="0.5" height="190.5" stroke="#E9EBF1" stroke-width="0.5"/>
  <rect x="227.25" y="55.25" width="0.5" height="190.5" stroke="#E9EBF1" stroke-width="0.5"/>
  <rect x="200.75" y="55.25" width="0.5" height="190.5" stroke="#E9EBF1" stroke-width="0.5"/>
  <rect x="173.25" y="55.25" width="0.5" height="190.5" stroke="#E9EBF1" stroke-width="0.5"/>
  <rect x="144.75" y="55.25" width="0.5" height="190.5" stroke="#E9EBF1" stroke-width="0.5"/>
  <rect x="118.25" y="55.25" width="0.5" height="190.5" stroke="#E9EBF1" stroke-width="0.5"/>
  <rect x="90.75" y="55.25" width="0.5" height="190.5" stroke="#E9EBF1" stroke-width="0.5"/>
  <rect x="36.25" y="55.25" width="0.5" height="190.5" stroke="#E9EBF1" stroke-width="0.5"/>
  <rect x="63.25" y="55.25" width="0.5" height="190.5" stroke="#E9EBF1" stroke-width="0.5"/>
  </g>
  <rect x="36.25" y="54.25" width="384.5" height="0.5" stroke="#E9EBF1" stroke-width="0.5"/>
  <rect x="36.25" y="245.25" width="384.5" height="0.5" stroke="#E9EBF1" stroke-width="0.5"/>
  <rect x="36.25" y="150.25" width="384.5" height="0.5" stroke="#E9EBF1" stroke-width="0.5"/>
  <rect x="36.25" y="198.25" width="384.5" height="0.5" stroke="#E9EBF1" stroke-width="0.5"/>
  <rect x="36.25" y="102.25" width="384.5" height="0.5" stroke="#E9EBF1" stroke-width="0.5"/>
  <path fill-rule="evenodd" clip-rule="evenodd" d="M409.202 77.4102C404.204 80.8498 397.38 84.5098 390.122 84.5098C382.655 84.5098 377.924 88.622 374.113 93.6324C372.732 95.4466 371.531 97.2967 370.358 99.1038C369.882 99.8367 369.411 100.563 368.934 101.276C367.364 103.626 365.667 105.952 363.651 107.309C362.098 108.355 360.13 109.825 357.883 111.502L357.676 111.656C355.363 113.383 352.793 115.298 350.197 117.096C347.606 118.891 344.948 120.598 342.453 121.902C339.999 123.184 337.518 124.177 335.322 124.364C333.039 124.558 331.241 124.13 329.715 123.309C328.3 122.547 327.201 121.48 326.294 120.6L326.218 120.526C325.244 119.582 324.439 118.814 323.427 118.243C322.465 117.699 321.243 117.298 319.462 117.298C316.515 117.298 312.855 118.553 310.001 120.597C307.984 122.042 306.228 124.294 304.451 127.11C303.569 128.506 302.709 129.996 301.816 131.552L301.653 131.837C300.817 133.294 299.951 134.803 299.04 136.283C295.18 142.553 290.169 148.883 281.416 150.173C277.144 150.803 273.628 150.191 270.652 148.697C267.709 147.22 265.437 144.952 263.525 142.503C262.029 140.587 260.68 138.46 259.406 136.45C259.07 135.921 258.74 135.399 258.413 134.892C256.803 132.393 255.26 130.19 253.475 128.528C252.171 127.313 251.215 126.478 250.146 125.908C249.136 125.37 247.936 125.026 246.139 125.026C243.048 125.026 239.965 127.244 236.942 131.504C233.969 135.693 231.383 141.406 229.206 147.359C226.734 154.114 222.454 160.545 217.44 165.308C212.465 170.035 206.521 173.343 200.698 173.343C200.049 173.343 199.32 173.209 198.616 173.043C197.885 172.87 197.052 172.629 196.156 172.355C195.421 172.13 194.657 171.886 193.85 171.63C192.614 171.237 191.279 170.812 189.795 170.371C184.973 168.939 179.268 167.559 173.676 167.559C160.964 167.559 149.808 158.523 144.858 146.23C144.339 144.941 143.238 143.664 141.519 142.461C139.809 141.264 137.601 140.221 135.069 139.364C130.003 137.65 123.9 136.771 118.568 136.771C116.362 136.771 114.892 137.504 113.57 138.82C112.133 140.251 110.895 142.34 109.273 145.163C109.217 145.261 109.16 145.361 109.102 145.461C105.933 150.979 101.709 158.336 92.5404 165.114C83.4166 171.86 78.265 173.728 74.2898 174.35C72.9881 174.554 71.9569 174.628 71.051 174.694C69.0698 174.838 67.6886 174.938 65.3897 176.248C62.8136 177.715 59.8899 180.748 56.8937 184.718C53.9338 188.639 51.0421 193.286 48.4924 197.765C45.9463 202.238 43.7611 206.508 42.2117 209.663C41.4375 211.24 40.8233 212.535 40.4034 213.434C40.1934 213.884 40.0321 214.235 39.9238 214.472C39.8696 214.59 39.8287 214.68 39.8015 214.74L39.7712 214.808L39.7639 214.824L39.7623 214.827C39.3119 215.833 38.144 216.277 37.1541 215.82C36.1642 215.363 35.7269 214.177 36.1773 213.172L37.9696 214C36.1773 213.172 36.1773 213.172 36.1773 213.172L36.1783 213.17L36.1894 213.145L36.2228 213.071C36.2519 213.007 36.295 212.912 36.3513 212.789C36.464 212.542 36.6299 212.181 36.8447 211.721C37.2744 210.801 37.9001 209.481 38.6874 207.878C40.2609 204.674 42.4848 200.327 45.0827 195.763C47.677 191.206 50.6644 186.397 53.7678 182.285C56.8347 178.221 60.1585 174.642 63.463 172.76C66.5705 170.99 69.0812 170.803 71.3826 170.631C72.1711 170.573 72.9351 170.516 73.69 170.397C76.822 169.907 81.3868 168.414 90.2222 161.881C98.7201 155.598 102.6 148.843 105.732 143.391C105.779 143.309 105.825 143.228 105.872 143.147C107.423 140.448 108.925 137.845 110.813 135.965C112.817 133.969 115.258 132.771 118.568 132.771C124.265 132.771 130.794 133.703 136.314 135.57C139.075 136.504 141.649 137.694 143.754 139.168C145.85 140.635 147.597 142.465 148.503 144.717C152.973 155.817 162.871 163.56 173.676 163.56C179.842 163.56 185.982 165.072 190.9 166.533C192.39 166.975 193.834 167.434 195.116 167.841C195.913 168.095 196.648 168.328 197.293 168.526C198.167 168.793 198.904 169.005 199.51 169.148C200.142 169.298 200.514 169.344 200.698 169.344C205.111 169.344 210.135 166.772 214.75 162.388C219.326 158.04 223.259 152.13 225.514 145.966C227.735 139.893 230.467 133.788 233.747 129.166C236.977 124.614 241.085 121.027 246.139 121.027C248.496 121.027 250.337 121.493 251.976 122.367C253.557 123.209 254.857 124.388 256.137 125.581C258.317 127.611 260.088 130.186 261.709 132.703C262.072 133.266 262.426 133.825 262.777 134.377C264.037 136.364 265.247 138.273 266.61 140.018C268.33 142.22 270.174 143.996 272.397 145.112C274.588 146.212 277.288 146.741 280.85 146.216C287.766 145.196 291.948 140.258 295.7 134.163C296.578 132.739 297.413 131.282 298.255 129.814L298.414 129.539C299.303 127.99 300.202 126.429 301.135 124.952C302.986 122.02 305.075 119.232 307.731 117.33C311.145 114.884 315.583 113.299 319.462 113.299C321.893 113.299 323.777 113.864 325.342 114.748C326.831 115.589 327.963 116.688 328.887 117.585L328.939 117.635C329.924 118.591 330.666 119.294 331.56 119.776C332.384 120.219 333.422 120.512 334.994 120.379C336.4 120.259 338.321 119.564 340.65 118.346C342.938 117.151 345.444 115.547 347.978 113.792C350.508 112.04 353.025 110.165 355.344 108.434L355.604 108.24C357.803 106.598 359.84 105.077 361.475 103.976C362.759 103.112 364.069 101.435 365.675 99.0308C366.095 98.4032 366.532 97.7299 366.988 97.0278C368.189 95.1781 369.519 93.1285 370.996 91.1875C375.138 85.7427 380.887 80.5106 390.122 80.5106C396.169 80.5106 402.175 77.4153 406.993 74.0996C409.374 72.4612 411.397 70.8174 412.932 69.5561C413.027 69.4785 413.12 69.4019 413.211 69.3265C413.851 68.8004 414.424 68.3294 414.878 67.9826C415.135 67.7856 415.404 67.5904 415.656 67.437C415.781 67.3604 415.942 67.2696 416.124 67.1927C416.273 67.1296 416.607 67 417.031 67C418.118 67 419 67.8952 419 68.9996C419 69.8979 418.417 70.6579 417.614 70.9101C417.533 70.9638 417.414 71.0493 417.246 71.1777C416.853 71.4783 416.343 71.8978 415.689 72.435L415.409 72.6652C413.861 73.9371 411.729 75.671 409.202 77.4102Z" fill="#B99A7D"/>
  <path fill-rule="evenodd" clip-rule="evenodd" d="M420.999 165.948C421.029 167.053 420.168 167.975 419.075 168.005C416.289 168.083 414.516 169.025 413.073 170.397C411.773 171.633 410.756 173.184 409.547 175.026C409.299 175.405 409.042 175.795 408.774 176.198C407.262 178.466 405.445 180.963 402.701 182.901C399.918 184.866 396.326 186.16 391.386 186.317C382.087 186.613 377.906 186.198 374.661 185.689C374.097 185.601 373.571 185.511 373.058 185.424C370.703 185.023 368.62 184.669 364.363 184.669C361.221 184.669 359.037 185.151 357.306 185.839C355.55 186.536 354.172 187.476 352.582 188.578L352.485 188.645C350.939 189.716 349.199 190.922 346.917 191.901C344.567 192.909 341.712 193.652 337.891 193.906C333.696 194.185 328.084 192.799 322.801 190.641C317.487 188.471 312.182 185.386 308.628 181.992C308.325 181.702 308.022 181.411 307.718 181.12C301.548 175.197 295.084 168.993 282.865 168.993C276.206 168.993 271.35 169.927 267.38 171.429C263.405 172.933 260.214 175.046 256.89 177.558C247.701 184.503 239.332 189.503 228.905 194.235C227.683 194.79 225.625 195.422 223.279 196.046C220.889 196.682 218.068 197.343 215.24 197.942C209.671 199.122 203.79 200.121 201.163 200.121C194.932 200.121 190.779 199.316 187.857 197.957C184.845 196.556 183.304 194.642 182.181 192.852C181.929 192.451 181.696 192.052 181.484 191.688L181.441 191.616C181.212 191.223 181.006 190.873 180.793 190.541C180.372 189.886 179.968 189.374 179.474 188.957C178.549 188.176 176.96 187.441 173.429 187.441C162.945 187.441 159.154 186.551 156.309 185.573C155.948 185.449 155.625 185.333 155.321 185.223C154.438 184.905 153.715 184.645 152.698 184.424C151.366 184.133 149.52 183.918 146.402 183.918C141.072 183.918 136.339 186.058 132.132 189.053C128.156 191.883 124.778 195.38 121.876 198.384C121.693 198.573 121.512 198.761 121.332 198.946C118.818 201.545 114.006 203.689 108.741 205.187C103.375 206.713 97.1472 207.675 91.4716 207.675C84.4141 207.675 80.0768 206.345 76.2361 205.05C76.0135 204.975 75.7934 204.901 75.575 204.827C72.1016 203.65 69.0936 202.631 64.4618 202.631C58.5688 202.631 52.3538 205.7 47.4445 208.983C45.0246 210.602 42.9935 212.223 41.5682 213.439C40.8565 214.047 40.2986 214.551 39.9217 214.9C39.7333 215.075 39.5903 215.21 39.4962 215.301C39.4491 215.346 39.4143 215.38 39.3921 215.401L39.3683 215.425L39.3638 215.429C38.5825 216.202 37.3291 216.189 36.5647 215.398C35.8001 214.608 35.8137 213.339 36.595 212.566L37.9794 213.997C36.595 212.566 36.5958 212.565 36.5958 212.565L36.6002 212.561L36.6102 212.551L36.6451 212.517C36.6748 212.488 36.7173 212.446 36.7723 212.394C36.8823 212.288 37.042 212.137 37.2482 211.946C37.6604 211.564 38.2588 211.023 39.0158 210.377C40.5278 209.087 42.6835 207.366 45.2617 205.641C50.3486 202.24 57.3748 198.625 64.4618 198.625C69.752 198.625 73.2962 199.828 76.7815 201.011C77.0168 201.091 77.2519 201.17 77.4873 201.25C81.1296 202.477 85.012 203.669 91.4716 203.669C96.7479 203.669 102.615 202.768 107.67 201.33C112.826 199.864 116.761 197.944 118.504 196.144C118.694 195.947 118.888 195.746 119.086 195.541C121.953 192.572 125.567 188.828 129.854 185.776C134.457 182.5 139.978 179.912 146.402 179.912C149.692 179.912 151.836 180.138 153.533 180.507C154.823 180.789 155.853 181.161 156.789 181.498C157.06 181.596 157.323 181.691 157.582 181.78C159.862 182.564 163.177 183.435 173.429 183.435C177.492 183.435 180.12 184.285 182.011 185.881C182.926 186.654 183.579 187.529 184.112 188.359C184.376 188.77 184.622 189.188 184.848 189.576L184.884 189.637C185.103 190.011 185.307 190.359 185.523 190.705C186.389 192.084 187.41 193.34 189.51 194.317C191.7 195.336 195.209 196.116 201.163 196.116C203.308 196.116 208.78 195.218 214.428 194.022C217.208 193.433 219.962 192.786 222.272 192.172C224.626 191.545 226.394 190.984 227.285 190.58C237.443 185.97 245.561 181.121 254.521 174.348C257.965 171.745 261.505 169.375 265.993 167.677C270.487 165.976 275.826 164.987 282.865 164.987C296.691 164.987 304.19 172.199 310.352 178.125C310.687 178.447 311.018 178.766 311.346 179.079C314.422 182.018 319.247 184.869 324.283 186.927C329.351 188.997 334.31 190.13 337.631 189.909C341.056 189.681 343.471 189.028 345.371 188.213C347.287 187.391 348.749 186.378 350.338 185.277L350.345 185.273L350.35 185.269C351.92 184.182 353.635 182.993 355.859 182.11C358.11 181.215 360.794 180.663 364.363 180.663C368.963 180.663 371.338 181.068 373.74 181.477C374.241 181.563 374.744 181.648 375.268 181.731C378.212 182.193 382.139 182.603 391.262 182.313C395.534 182.177 398.36 181.082 400.435 179.616C402.55 178.123 404.031 176.149 405.492 173.958C405.716 173.622 405.942 173.276 406.172 172.923C407.378 171.078 408.695 169.062 410.362 167.478C412.47 165.474 415.155 164.107 418.966 164.001C420.059 163.97 420.969 164.842 420.999 165.948Z" fill="#FCC563"/>
  <defs>
  <clipPath id="clip0_250_691">
  <rect width="385" height="215" fill="white" transform="translate(36 55)"/>
  </clipPath>
  </defs>
  </svg>
  