<svg width="400" height="300" viewBox="0 0 400 300" fill="none" xmlns="http://www.w3.org/2000/svg">
  <path d="M26 101C26 98.2386 28.2386 96 31 96C33.7614 96 36 98.2386 36 101V241H26V101Z" fill="#FCC563"/>
  <path d="M52 65C52 62.2386 54.2386 60 57 60C59.7614 60 62 62.2386 62 65V241H52V65Z" fill="#FCC563"/>
  <path fill-rule="evenodd" clip-rule="evenodd" d="M78 85C78 82.2386 80.2386 80 83 80C85.7614 80 88 82.2386 88 85V241H78V85Z" fill="#FCC563"/>
  <path d="M104 85C104 82.2386 106.239 80 109 80C111.761 80 114 82.2386 114 85V241H104V85Z" fill="#FCC563"/>
  <path d="M130 98C130 95.2386 132.239 93 135 93C137.761 93 140 95.2386 140 98V241H130V98Z" fill="#FCC563"/>
  <path d="M156 85C156 82.2386 158.239 80 161 80C163.761 80 166 82.2386 166 85V241H156V85Z" fill="#FCC563"/>
  <path d="M182 124C182 121.239 184.239 119 187 119C189.761 119 192 121.239 192 124V241H182V124Z" fill="#FCC563"/>
  <path d="M208 140C208 137.239 210.239 135 213 135C215.761 135 218 137.239 218 140V241H208V140Z" fill="#FCC563"/>
  <path d="M234 152C234 149.239 236.239 147 239 147C241.761 147 244 149.239 244 152V241H234V152Z" fill="#FCC563"/>
  <path d="M260 178C260 175.239 262.239 173 265 173C267.761 173 270 175.239 270 178V241H260V178Z" fill="#B99A7D"/>
  <path d="M286 182C286 179.239 288.239 177 291 177C293.761 177 296 179.239 296 182V241H286V182Z" fill="#B99A7D"/>
  <path d="M312 174C312 171.239 314.239 169 317 169C319.761 169 322 171.239 322 174V241H312V174Z" fill="#B99A7D"/>
  <path d="M338 178C338 175.239 340.239 173 343 173C345.761 173 348 175.239 348 178V241H338V178Z" fill="#B99A7D"/>
  <path d="M364 190C364 187.239 366.239 185 369 185C371.761 185 374 187.239 374 190V241H364V190Z" fill="#B99A7D"/>
  </svg>
  