<svg width="287" height="300" viewBox="0 0 287 300" fill="none" xmlns="http://www.w3.org/2000/svg">
  <mask id="path-1-outside-1_1849_9301" maskUnits="userSpaceOnUse" x="26" y="32" width="237" height="237" fill="black">
  <rect fill="white" x="26" y="32" width="237" height="237"/>
  <path fill-rule="evenodd" clip-rule="evenodd" d="M144.07 267.14C79.414 267.14 27 214.726 27 150.07C27 85.414 79.414 33 144.07 33C208.726 33 261.14 85.414 261.14 150.07C261.14 214.726 208.726 267.14 144.07 267.14ZM144.07 250.173C199.355 250.173 244.173 205.355 244.173 150.07C244.173 94.7844 199.355 49.9666 144.07 49.9666C88.7844 49.9666 43.9666 94.7844 43.9666 150.07C43.9666 205.355 88.7844 250.173 144.07 250.173Z"/>
  </mask>
  <path fill-rule="evenodd" clip-rule="evenodd" d="M144.07 267.14C79.414 267.14 27 214.726 27 150.07C27 85.414 79.414 33 144.07 33C208.726 33 261.14 85.414 261.14 150.07C261.14 214.726 208.726 267.14 144.07 267.14ZM144.07 250.173C199.355 250.173 244.173 205.355 244.173 150.07C244.173 94.7844 199.355 49.9666 144.07 49.9666C88.7844 49.9666 43.9666 94.7844 43.9666 150.07C43.9666 205.355 88.7844 250.173 144.07 250.173Z" fill="#ABECB9"/>
  <path d="M144.07 266.14C79.9663 266.14 28 214.174 28 150.07H26C26 215.278 78.8617 268.14 144.07 268.14V266.14ZM28 150.07C28 85.9663 79.9663 34 144.07 34V32C78.8617 32 26 84.8617 26 150.07H28ZM144.07 34C208.174 34 260.14 85.9663 260.14 150.07H262.14C262.14 84.8617 209.278 32 144.07 32V34ZM260.14 150.07C260.14 214.174 208.174 266.14 144.07 266.14V268.14C209.278 268.14 262.14 215.278 262.14 150.07H260.14ZM144.07 251.173C199.908 251.173 245.173 205.908 245.173 150.07H243.173C243.173 204.803 198.803 249.173 144.07 249.173V251.173ZM245.173 150.07C245.173 94.2321 199.908 48.9666 144.07 48.9666V50.9666C198.803 50.9666 243.173 95.3366 243.173 150.07H245.173ZM144.07 48.9666C88.2321 48.9666 42.9666 94.2321 42.9666 150.07H44.9666C44.9666 95.3366 89.3366 50.9666 144.07 50.9666V48.9666ZM42.9666 150.07C42.9666 205.908 88.2321 251.173 144.07 251.173V249.173C89.3366 249.173 44.9666 204.803 44.9666 150.07H42.9666Z" fill="white" mask="url(#path-1-outside-1_1849_9301)"/>
  <path d="M135.087 41.4833C135.087 36.5219 139.109 32.5 144.07 32.5C208.739 32.5 261.257 84.7283 261.638 149.364C261.667 154.325 257.669 158.371 252.708 158.4C247.746 158.429 243.701 154.431 243.672 149.47C243.349 94.714 198.856 50.4666 144.07 50.4666C139.109 50.4666 135.087 46.4447 135.087 41.4833Z" fill="#D5DD26" stroke="white"/>
  </svg>
  