<svg width="400" height="300" viewBox="0 0 400 300" fill="none" xmlns="http://www.w3.org/2000/svg">
  <path d="M325.267 216.099C324.822 216.099 324.421 216.014 324.066 215.844C323.714 215.671 323.432 215.434 323.221 215.134C323.01 214.833 322.898 214.49 322.884 214.104H323.949C323.975 214.416 324.114 214.673 324.365 214.874C324.616 215.076 324.916 215.176 325.267 215.176C325.546 215.176 325.793 215.112 326.009 214.984C326.227 214.854 326.397 214.675 326.52 214.448C326.646 214.221 326.708 213.962 326.708 213.67C326.708 213.375 326.644 213.111 326.517 212.879C326.389 212.647 326.212 212.464 325.988 212.332C325.765 212.199 325.509 212.132 325.22 212.129C325 212.129 324.779 212.167 324.556 212.243C324.334 212.319 324.154 212.418 324.017 212.541L323.012 212.392L323.42 208.727H327.419V209.668H324.333L324.102 211.703H324.144C324.287 211.566 324.475 211.451 324.709 211.359C324.946 211.266 325.199 211.22 325.469 211.22C325.912 211.22 326.306 211.326 326.652 211.536C327 211.747 327.273 212.035 327.472 212.399C327.673 212.761 327.773 213.178 327.77 213.649C327.773 214.12 327.666 214.54 327.451 214.91C327.238 215.279 326.942 215.57 326.563 215.783C326.186 215.994 325.754 216.099 325.267 216.099ZM331.599 216.121C331.038 216.118 330.559 215.97 330.161 215.677C329.763 215.383 329.459 214.956 329.248 214.395C329.038 213.834 328.932 213.158 328.932 212.367C328.932 211.579 329.038 210.905 329.248 210.347C329.461 209.788 329.767 209.362 330.165 209.068C330.565 208.775 331.043 208.628 331.599 208.628C332.156 208.628 332.633 208.776 333.03 209.072C333.428 209.365 333.732 209.791 333.943 210.35C334.156 210.906 334.263 211.579 334.263 212.367C334.263 213.16 334.157 213.837 333.947 214.398C333.736 214.957 333.432 215.384 333.034 215.68C332.636 215.974 332.158 216.121 331.599 216.121ZM331.599 215.173C332.092 215.173 332.476 214.932 332.753 214.452C333.033 213.971 333.172 213.276 333.172 212.367C333.172 211.763 333.108 211.253 332.981 210.837C332.855 210.418 332.674 210.1 332.437 209.885C332.203 209.667 331.924 209.558 331.599 209.558C331.109 209.558 330.724 209.8 330.445 210.283C330.166 210.766 330.025 211.46 330.023 212.367C330.023 212.973 330.085 213.486 330.211 213.905C330.339 214.321 330.52 214.638 330.754 214.853C330.988 215.066 331.27 215.173 331.599 215.173ZM338.054 216.121C337.493 216.118 337.014 215.97 336.616 215.677C336.218 215.383 335.914 214.956 335.703 214.395C335.493 213.834 335.387 213.158 335.387 212.367C335.387 211.579 335.493 210.905 335.703 210.347C335.917 209.788 336.222 209.362 336.62 209.068C337.02 208.775 337.498 208.628 338.054 208.628C338.611 208.628 339.088 208.776 339.485 209.072C339.883 209.365 340.187 209.791 340.398 210.35C340.611 210.906 340.718 211.579 340.718 212.367C340.718 213.16 340.612 213.837 340.402 214.398C340.191 214.957 339.887 215.384 339.489 215.68C339.091 215.974 338.613 216.121 338.054 216.121ZM338.054 215.173C338.547 215.173 338.931 214.932 339.208 214.452C339.488 213.971 339.627 213.276 339.627 212.367C339.627 211.763 339.564 211.253 339.436 210.837C339.31 210.418 339.129 210.1 338.892 209.885C338.658 209.667 338.379 209.558 338.054 209.558C337.564 209.558 337.18 209.8 336.9 210.283C336.621 210.766 336.48 211.46 336.478 212.367C336.478 212.973 336.54 213.486 336.666 213.905C336.794 214.321 336.975 214.638 337.209 214.853C337.443 215.066 337.725 215.173 338.054 215.173Z" fill="#9AA1A9"/>
  <path d="M261.88 214.58V213.692L265.023 208.727H265.723V210.034H265.279L263.031 213.592V213.649H267.338V214.58H261.88ZM265.329 216V214.31L265.336 213.905V208.727H266.376V216H265.329ZM271.108 216.121C270.547 216.118 270.068 215.97 269.67 215.677C269.272 215.383 268.968 214.956 268.757 214.395C268.546 213.834 268.441 213.158 268.441 212.367C268.441 211.579 268.546 210.905 268.757 210.347C268.97 209.788 269.276 209.362 269.673 209.068C270.073 208.775 270.552 208.628 271.108 208.628C271.664 208.628 272.141 208.776 272.539 209.072C272.937 209.365 273.241 209.791 273.452 210.35C273.665 210.906 273.771 211.579 273.771 212.367C273.771 213.16 273.666 213.837 273.455 214.398C273.245 214.957 272.94 215.384 272.543 215.68C272.145 215.974 271.667 216.121 271.108 216.121ZM271.108 215.173C271.6 215.173 271.985 214.932 272.262 214.452C272.541 213.971 272.681 213.276 272.681 212.367C272.681 211.763 272.617 211.253 272.489 210.837C272.364 210.418 272.183 210.1 271.946 209.885C271.712 209.667 271.432 209.558 271.108 209.558C270.618 209.558 270.233 209.8 269.954 210.283C269.675 210.766 269.534 211.46 269.531 212.367C269.531 212.973 269.594 213.486 269.72 213.905C269.847 214.321 270.028 214.638 270.263 214.853C270.497 215.066 270.779 215.173 271.108 215.173ZM277.563 216.121C277.002 216.118 276.523 215.97 276.125 215.677C275.727 215.383 275.423 214.956 275.212 214.395C275.002 213.834 274.896 213.158 274.896 212.367C274.896 211.579 275.002 210.905 275.212 210.347C275.425 209.788 275.731 209.362 276.128 209.068C276.529 208.775 277.007 208.628 277.563 208.628C278.119 208.628 278.596 208.776 278.994 209.072C279.392 209.365 279.696 209.791 279.907 210.35C280.12 210.906 280.226 211.579 280.226 212.367C280.226 213.16 280.121 213.837 279.91 214.398C279.7 214.957 279.395 215.384 278.998 215.68C278.6 215.974 278.122 216.121 277.563 216.121ZM277.563 215.173C278.056 215.173 278.44 214.932 278.717 214.452C278.997 213.971 279.136 213.276 279.136 212.367C279.136 211.763 279.072 211.253 278.944 210.837C278.819 210.418 278.638 210.1 278.401 209.885C278.167 209.667 277.887 209.558 277.563 209.558C277.073 209.558 276.688 209.8 276.409 210.283C276.13 210.766 275.989 211.46 275.986 212.367C275.986 212.973 276.049 213.486 276.175 213.905C276.302 214.321 276.484 214.638 276.718 214.853C276.952 215.066 277.234 215.173 277.563 215.173Z" fill="#9AA1A9"/>
  <rect x="321.583" y="78.25" width="0.5" height="119.5" stroke="#E9EBF1" stroke-width="0.5"/>
  <path d="M202.732 216.099C202.244 216.099 201.808 216.015 201.425 215.847C201.044 215.679 200.742 215.446 200.519 215.148C200.299 214.847 200.181 214.499 200.164 214.104H201.279C201.293 214.319 201.366 214.506 201.496 214.665C201.628 214.821 201.801 214.942 202.014 215.027C202.227 215.112 202.464 215.155 202.724 215.155C203.011 215.155 203.264 215.105 203.484 215.006C203.707 214.906 203.881 214.768 204.006 214.59C204.132 214.41 204.195 214.203 204.195 213.969C204.195 213.725 204.132 213.511 204.006 213.326C203.883 213.139 203.702 212.992 203.463 212.886C203.226 212.779 202.94 212.726 202.604 212.726H201.989V211.831H202.604C202.874 211.831 203.11 211.782 203.314 211.685C203.52 211.588 203.681 211.453 203.797 211.281C203.913 211.105 203.971 210.901 203.971 210.666C203.971 210.441 203.92 210.246 203.818 210.08C203.719 209.912 203.577 209.781 203.392 209.686C203.21 209.591 202.994 209.544 202.746 209.544C202.509 209.544 202.288 209.588 202.082 209.675C201.878 209.761 201.712 209.884 201.585 210.045C201.457 210.203 201.388 210.394 201.379 210.616H200.317C200.329 210.223 200.445 209.878 200.665 209.58C200.887 209.281 201.181 209.048 201.545 208.88C201.91 208.712 202.315 208.628 202.76 208.628C203.226 208.628 203.629 208.719 203.967 208.901C204.308 209.081 204.571 209.321 204.756 209.622C204.943 209.923 205.035 210.252 205.033 210.609C205.035 211.017 204.921 211.362 204.692 211.646C204.464 211.93 204.161 212.121 203.783 212.218V212.275C204.266 212.348 204.64 212.54 204.905 212.85C205.172 213.16 205.305 213.545 205.303 214.004C205.305 214.404 205.194 214.763 204.969 215.08C204.746 215.397 204.442 215.647 204.056 215.83C203.67 216.009 203.229 216.099 202.732 216.099ZM209.177 216.121C208.616 216.118 208.136 215.97 207.739 215.677C207.341 215.383 207.037 214.956 206.826 214.395C206.615 213.834 206.51 213.158 206.51 212.367C206.51 211.579 206.615 210.905 206.826 210.347C207.039 209.788 207.344 209.362 207.742 209.068C208.142 208.775 208.621 208.628 209.177 208.628C209.733 208.628 210.21 208.776 210.608 209.072C211.006 209.365 211.31 209.791 211.521 210.35C211.734 210.906 211.84 211.579 211.84 212.367C211.84 213.16 211.735 213.837 211.524 214.398C211.313 214.957 211.009 215.384 210.612 215.68C210.214 215.974 209.736 216.121 209.177 216.121ZM209.177 215.173C209.669 215.173 210.054 214.932 210.331 214.452C210.61 213.971 210.75 213.276 210.75 212.367C210.75 211.763 210.686 211.253 210.558 210.837C210.433 210.418 210.252 210.1 210.015 209.885C209.781 209.667 209.501 209.558 209.177 209.558C208.687 209.558 208.302 209.8 208.023 210.283C207.743 210.766 207.603 211.46 207.6 212.367C207.6 212.973 207.663 213.486 207.788 213.905C207.916 214.321 208.097 214.638 208.332 214.853C208.566 215.066 208.848 215.173 209.177 215.173ZM215.632 216.121C215.071 216.118 214.591 215.97 214.194 215.677C213.796 215.383 213.492 214.956 213.281 214.395C213.07 213.834 212.965 213.158 212.965 212.367C212.965 211.579 213.07 210.905 213.281 210.347C213.494 209.788 213.8 209.362 214.197 209.068C214.597 208.775 215.076 208.628 215.632 208.628C216.188 208.628 216.665 208.776 217.063 209.072C217.461 209.365 217.765 209.791 217.976 210.35C218.189 210.906 218.295 211.579 218.295 212.367C218.295 213.16 218.19 213.837 217.979 214.398C217.769 214.957 217.464 215.384 217.067 215.68C216.669 215.974 216.191 216.121 215.632 216.121ZM215.632 215.173C216.124 215.173 216.509 214.932 216.786 214.452C217.065 213.971 217.205 213.276 217.205 212.367C217.205 211.763 217.141 211.253 217.013 210.837C216.888 210.418 216.707 210.1 216.47 209.885C216.236 209.667 215.956 209.558 215.632 209.558C215.142 209.558 214.757 209.8 214.478 210.283C214.198 210.766 214.058 211.46 214.055 212.367C214.055 212.973 214.118 213.486 214.243 213.905C214.371 214.321 214.552 214.638 214.787 214.853C215.021 215.066 215.303 215.173 215.632 215.173Z" fill="#9AA1A9"/>
  <rect x="260.75" y="78.25" width="0.5" height="119.5" stroke="#E9EBF1" stroke-width="0.5"/>
  <path d="M140.366 216V215.205L142.827 212.655C143.09 212.378 143.306 212.135 143.477 211.927C143.65 211.716 143.779 211.516 143.864 211.327C143.949 211.137 143.992 210.936 143.992 210.723C143.992 210.482 143.935 210.273 143.821 210.098C143.708 209.92 143.553 209.784 143.356 209.69C143.16 209.593 142.938 209.544 142.692 209.544C142.432 209.544 142.204 209.597 142.01 209.704C141.816 209.81 141.667 209.961 141.563 210.155C141.459 210.349 141.407 210.576 141.407 210.837H140.359C140.359 210.394 140.461 210.007 140.664 209.675C140.868 209.344 141.147 209.087 141.502 208.905C141.858 208.72 142.261 208.628 142.713 208.628C143.17 208.628 143.573 208.719 143.921 208.901C144.271 209.081 144.545 209.327 144.741 209.64C144.938 209.95 145.036 210.3 145.036 210.691C145.036 210.961 144.985 211.225 144.883 211.483C144.784 211.741 144.61 212.029 144.361 212.346C144.113 212.661 143.767 213.043 143.324 213.493L141.879 215.006V215.059H145.153V216H140.366ZM149.031 216.121C148.47 216.118 147.99 215.97 147.593 215.677C147.195 215.383 146.891 214.956 146.68 214.395C146.469 213.834 146.364 213.158 146.364 212.367C146.364 211.579 146.469 210.905 146.68 210.347C146.893 209.788 147.198 209.362 147.596 209.068C147.996 208.775 148.475 208.628 149.031 208.628C149.587 208.628 150.064 208.776 150.462 209.072C150.86 209.365 151.164 209.791 151.375 210.35C151.588 210.906 151.694 211.579 151.694 212.367C151.694 213.16 151.589 213.837 151.378 214.398C151.167 214.957 150.863 215.384 150.466 215.68C150.068 215.974 149.59 216.121 149.031 216.121ZM149.031 215.173C149.523 215.173 149.908 214.932 150.185 214.452C150.464 213.971 150.604 213.276 150.604 212.367C150.604 211.763 150.54 211.253 150.412 210.837C150.287 210.418 150.106 210.1 149.869 209.885C149.635 209.667 149.355 209.558 149.031 209.558C148.541 209.558 148.156 209.8 147.877 210.283C147.597 210.766 147.457 211.46 147.454 212.367C147.454 212.973 147.517 213.486 147.642 213.905C147.77 214.321 147.951 214.638 148.186 214.853C148.42 215.066 148.702 215.173 149.031 215.173ZM155.486 216.121C154.925 216.118 154.445 215.97 154.048 215.677C153.65 215.383 153.346 214.956 153.135 214.395C152.924 213.834 152.819 213.158 152.819 212.367C152.819 211.579 152.924 210.905 153.135 210.347C153.348 209.788 153.654 209.362 154.051 209.068C154.451 208.775 154.93 208.628 155.486 208.628C156.042 208.628 156.519 208.776 156.917 209.072C157.315 209.365 157.619 209.791 157.83 210.35C158.043 210.906 158.149 211.579 158.149 212.367C158.149 213.16 158.044 213.837 157.833 214.398C157.623 214.957 157.318 215.384 156.921 215.68C156.523 215.974 156.045 216.121 155.486 216.121ZM155.486 215.173C155.978 215.173 156.363 214.932 156.64 214.452C156.919 213.971 157.059 213.276 157.059 212.367C157.059 211.763 156.995 211.253 156.867 210.837C156.742 210.418 156.561 210.1 156.324 209.885C156.09 209.667 155.81 209.558 155.486 209.558C154.996 209.558 154.611 209.8 154.332 210.283C154.052 210.766 153.912 211.46 153.909 212.367C153.909 212.973 153.972 213.486 154.097 213.905C154.225 214.321 154.406 214.638 154.641 214.853C154.875 215.066 155.157 215.173 155.486 215.173Z" fill="#9AA1A9"/>
  <rect x="199.917" y="78.25" width="0.5" height="119.5" stroke="#E9EBF1" stroke-width="0.5"/>
  <path d="M81.2923 208.727V216H80.1915V209.828H80.1488L78.4088 210.964V209.913L80.2234 208.727H81.2923ZM85.7916 216.121C85.2305 216.118 84.7511 215.97 84.3534 215.677C83.9557 215.383 83.6514 214.956 83.4407 214.395C83.23 213.834 83.1247 213.158 83.1247 212.367C83.1247 211.579 83.23 210.905 83.4407 210.347C83.6538 209.788 83.9592 209.362 84.3569 209.068C84.757 208.775 85.2352 208.628 85.7916 208.628C86.3479 208.628 86.825 208.776 87.2227 209.072C87.6204 209.365 87.9246 209.791 88.1353 210.35C88.3484 210.906 88.4549 211.579 88.4549 212.367C88.4549 213.16 88.3496 213.837 88.1389 214.398C87.9282 214.957 87.624 215.384 87.2263 215.68C86.8285 215.974 86.3503 216.121 85.7916 216.121ZM85.7916 215.173C86.284 215.173 86.6687 214.932 86.9457 214.452C87.2251 213.971 87.3647 213.276 87.3647 212.367C87.3647 211.763 87.3008 211.253 87.173 210.837C87.0475 210.418 86.8664 210.1 86.6297 209.885C86.3953 209.667 86.1159 209.558 85.7916 209.558C85.3015 209.558 84.9168 209.8 84.6375 210.283C84.3581 210.766 84.2173 211.46 84.2149 212.367C84.2149 212.973 84.2776 213.486 84.4031 213.905C84.5309 214.321 84.712 214.638 84.9464 214.853C85.1808 215.066 85.4625 215.173 85.7916 215.173ZM92.2467 216.121C91.6856 216.118 91.2062 215.97 90.8085 215.677C90.4107 215.383 90.1065 214.956 89.8958 214.395C89.6851 213.834 89.5798 213.158 89.5798 212.367C89.5798 211.579 89.6851 210.905 89.8958 210.347C90.1089 209.788 90.4143 209.362 90.812 209.068C91.2121 208.775 91.6903 208.628 92.2467 208.628C92.803 208.628 93.2801 208.776 93.6778 209.072C94.0755 209.365 94.3797 209.791 94.5904 210.35C94.8035 210.906 94.91 211.579 94.91 212.367C94.91 213.16 94.8047 213.837 94.594 214.398C94.3833 214.957 94.0791 215.384 93.6813 215.68C93.2836 215.974 92.8054 216.121 92.2467 216.121ZM92.2467 215.173C92.7391 215.173 93.1238 214.932 93.4008 214.452C93.6801 213.971 93.8198 213.276 93.8198 212.367C93.8198 211.763 93.7559 211.253 93.6281 210.837C93.5026 210.418 93.3215 210.1 93.0847 209.885C92.8504 209.667 92.571 209.558 92.2467 209.558C91.7566 209.558 91.3719 209.8 91.0926 210.283C90.8132 210.766 90.6723 211.46 90.67 212.367C90.67 212.973 90.7327 213.486 90.8582 213.905C90.986 214.321 91.1671 214.638 91.4015 214.853C91.6359 215.066 91.9176 215.173 92.2467 215.173Z" fill="#9AA1A9"/>
  <rect x="139.083" y="78.25" width="0.5" height="119.5" stroke="#E9EBF1" stroke-width="0.5"/>
  <path d="M21.2315 216.121C20.6705 216.118 20.1911 215.97 19.7933 215.677C19.3956 215.383 19.0914 214.956 18.8807 214.395C18.67 213.834 18.5646 213.158 18.5646 212.367C18.5646 211.579 18.67 210.905 18.8807 210.347C19.0938 209.788 19.3991 209.362 19.7969 209.068C20.197 208.775 20.6752 208.628 21.2315 208.628C21.7879 208.628 22.2649 208.776 22.6626 209.072C23.0604 209.365 23.3646 209.791 23.5753 210.35C23.7884 210.906 23.8949 211.579 23.8949 212.367C23.8949 213.16 23.7895 213.837 23.5788 214.398C23.3681 214.957 23.0639 215.384 22.6662 215.68C22.2685 215.974 21.7902 216.121 21.2315 216.121ZM21.2315 215.173C21.724 215.173 22.1087 214.932 22.3857 214.452C22.665 213.971 22.8047 213.276 22.8047 212.367C22.8047 211.763 22.7408 211.253 22.6129 210.837C22.4875 210.418 22.3063 210.1 22.0696 209.885C21.8352 209.667 21.5559 209.558 21.2315 209.558C20.7415 209.558 20.3568 209.8 20.0774 210.283C19.7981 210.766 19.6572 211.46 19.6548 212.367C19.6548 212.973 19.7176 213.486 19.843 213.905C19.9709 214.321 20.152 214.638 20.3864 214.853C20.6207 215.066 20.9025 215.173 21.2315 215.173Z" fill="#9AA1A9"/>
  <rect x="18.25" y="78.25" width="0.5" height="119.5" stroke="#E9EBF1" stroke-width="0.5"/>
  <rect x="78.25" y="78.25" width="0.5" height="119.5" stroke="#E9EBF1" stroke-width="0.5"/>
  <path d="M82 157.5H81.5V158V170V170.5H82H361C364.59 170.5 367.5 167.59 367.5 164C367.5 160.41 364.59 157.5 361 157.5H82Z" fill="#E2EE41" stroke="white"/>
  <path d="M82 157.5H82.5V158V170V170.5H82H33C29.4101 170.5 26.5 167.59 26.5 164C26.5 160.41 29.4101 157.5 33 157.5H82Z" fill="#60C770" stroke="white"/>
  <path d="M161 103.5H160.5V104V116V116.5H161H361C364.59 116.5 367.5 113.59 367.5 110C367.5 106.41 364.59 103.5 361 103.5H161Z" fill="#E2EE41" stroke="white"/>
  <path d="M161 103.5H161.5V104V116V116.5H161H33C29.4102 116.5 26.5 113.59 26.5 110C26.5 106.41 29.4102 103.5 33 103.5H161Z" fill="#60C770" stroke="white"/>
  </svg>
  