<svg width="287" height="300" viewBox="0 0 287 300" fill="none" xmlns="http://www.w3.org/2000/svg">
  <mask id="path-1-outside-1_1849_9282" maskUnits="userSpaceOnUse" x="25.0315" y="33.0977" width="237" height="235" fill="black">
  <rect fill="white" x="25.0315" y="33.0977" width="237" height="235"/>
  <path fill-rule="evenodd" clip-rule="evenodd" d="M143.07 266.305C78.4314 266.305 26.0315 214.324 26.0315 150.201C26.0315 86.0791 78.4314 34.0977 143.07 34.0977C207.708 34.0977 260.108 86.0791 260.108 150.201C260.108 214.324 207.708 266.305 143.07 266.305ZM143.07 254.024C200.871 254.024 247.728 207.541 247.728 150.201C247.728 92.8618 200.871 46.3789 143.07 46.3789C85.2687 46.3789 38.4116 92.8618 38.4116 150.201C38.4116 207.541 85.2687 254.024 143.07 254.024Z"/>
  </mask>
  <path fill-rule="evenodd" clip-rule="evenodd" d="M143.07 266.305C78.4314 266.305 26.0315 214.324 26.0315 150.201C26.0315 86.0791 78.4314 34.0977 143.07 34.0977C207.708 34.0977 260.108 86.0791 260.108 150.201C260.108 214.324 207.708 266.305 143.07 266.305ZM143.07 254.024C200.871 254.024 247.728 207.541 247.728 150.201C247.728 92.8618 200.871 46.3789 143.07 46.3789C85.2687 46.3789 38.4116 92.8618 38.4116 150.201C38.4116 207.541 85.2687 254.024 143.07 254.024Z" fill="#FFF2DF"/>
  <path d="M143.07 265.305C78.9761 265.305 27.0315 213.764 27.0315 150.201H25.0315C25.0315 214.884 77.8867 267.305 143.07 267.305V265.305ZM27.0315 150.201C27.0315 86.6389 78.9761 35.0977 143.07 35.0977V33.0977C77.8867 33.0977 25.0315 85.5192 25.0315 150.201H27.0315ZM143.07 35.0977C207.164 35.0977 259.108 86.6389 259.108 150.201H261.108C261.108 85.5192 208.253 33.0977 143.07 33.0977V35.0977ZM259.108 150.201C259.108 213.764 207.164 265.305 143.07 265.305V267.305C208.253 267.305 261.108 214.884 261.108 150.201H259.108ZM143.07 255.024C201.416 255.024 248.728 208.101 248.728 150.201H246.728C246.728 206.981 200.326 253.024 143.07 253.024V255.024ZM248.728 150.201C248.728 92.302 201.416 45.3789 143.07 45.3789V47.3789C200.326 47.3789 246.728 93.4216 246.728 150.201H248.728ZM143.07 45.3789C84.724 45.3789 37.4116 92.302 37.4116 150.201H39.4116C39.4116 93.4216 85.8135 47.3789 143.07 47.3789V45.3789ZM37.4116 150.201C37.4116 208.101 84.724 255.024 143.07 255.024V253.024C85.8135 253.024 39.4116 206.981 39.4116 150.201H37.4116Z" fill="white" mask="url(#path-1-outside-1_1849_9282)"/>
  <path d="M41.9804 104.378C38.5343 103.066 34.6643 104.772 33.3389 108.197C10.0735 168.322 40.3476 235.768 100.949 258.845C161.549 281.921 229.536 251.896 252.801 191.774C276.067 131.65 245.792 64.2033 185.191 41.1263C173.526 36.6845 161.401 34.1416 149.165 33.5091C145.479 33.3186 142.328 36.1289 142.136 39.7951C141.943 43.4615 144.783 46.5819 148.469 46.7724C159.306 47.3325 170.049 49.5853 180.398 53.5264C234.104 73.9774 260.924 133.742 240.311 187.012C219.697 240.284 159.449 266.897 105.742 246.445C52.0361 225.994 25.2163 166.229 45.8293 112.96C47.1555 109.532 45.4284 105.691 41.9804 104.378Z" fill="#E8D5BE" stroke="white"/>
  <mask id="path-4-outside-2_1849_9282" maskUnits="userSpaceOnUse" x="71" y="79" width="144" height="144" fill="black">
  <rect fill="white" x="71" y="79" width="144" height="144"/>
  <path fill-rule="evenodd" clip-rule="evenodd" d="M142.53 221.059C103.577 221.059 72 189.482 72 150.53C72 111.577 103.577 80 142.53 80C181.482 80 213.059 111.577 213.059 150.53C213.059 189.482 181.482 221.059 142.53 221.059ZM142.53 210.157C175.461 210.157 202.157 183.461 202.157 150.53C202.157 117.598 175.461 90.9025 142.53 90.9025C109.598 90.9025 82.9025 117.598 82.9025 150.53C82.9025 183.461 109.598 210.157 142.53 210.157Z"/>
  </mask>
  <path fill-rule="evenodd" clip-rule="evenodd" d="M142.53 221.059C103.577 221.059 72 189.482 72 150.53C72 111.577 103.577 80 142.53 80C181.482 80 213.059 111.577 213.059 150.53C213.059 189.482 181.482 221.059 142.53 221.059ZM142.53 210.157C175.461 210.157 202.157 183.461 202.157 150.53C202.157 117.598 175.461 90.9025 142.53 90.9025C109.598 90.9025 82.9025 117.598 82.9025 150.53C82.9025 183.461 109.598 210.157 142.53 210.157Z" fill="#FFF4C7"/>
  <path d="M142.53 220.059C104.129 220.059 73 188.93 73 150.53H71C71 190.034 103.025 222.059 142.53 222.059V220.059ZM73 150.53C73 112.129 104.129 81 142.53 81V79C103.025 79 71 111.025 71 150.53H73ZM142.53 81C180.93 81 212.059 112.129 212.059 150.53H214.059C214.059 111.025 182.034 79 142.53 79V81ZM212.059 150.53C212.059 188.93 180.93 220.059 142.53 220.059V222.059C182.034 222.059 214.059 190.034 214.059 150.53H212.059ZM142.53 211.157C176.013 211.157 203.157 184.013 203.157 150.53H201.157C201.157 182.909 174.909 209.157 142.53 209.157V211.157ZM203.157 150.53C203.157 117.046 176.013 89.9025 142.53 89.9025V91.9025C174.909 91.9025 201.157 118.151 201.157 150.53H203.157ZM142.53 89.9025C109.046 89.9025 81.9025 117.046 81.9025 150.53H83.9025C83.9025 118.151 110.151 91.9025 142.53 91.9025V89.9025ZM81.9025 150.53C81.9025 184.013 109.046 211.157 142.53 211.157V209.157C110.151 209.157 83.9025 182.909 83.9025 150.53H81.9025Z" fill="white" mask="url(#path-4-outside-2_1849_9282)"/>
  <path d="M194.851 190.15C197.625 191.884 201.283 191.029 203.021 188.247C223.779 155.028 213.793 111.339 180.711 90.6676C170.043 84.0015 158.016 80.3918 145.694 80.0006C142.422 79.8967 139.678 82.4692 139.562 85.7447C139.446 89.0216 142.004 91.7646 145.277 91.8685C155.526 92.194 165.523 95.1939 174.412 100.748C201.945 117.953 210.261 154.317 192.98 181.972C191.241 184.754 192.076 188.416 194.851 190.15Z" fill="#FCC563" stroke="white"/>
  <mask id="path-7-outside-3_1849_9282" maskUnits="userSpaceOnUse" x="49" y="57" width="187" height="187" fill="black">
  <rect fill="white" x="49" y="57" width="187" height="187"/>
  <path fill-rule="evenodd" clip-rule="evenodd" d="M142.5 243C91.4137 243 50 201.586 50 150.5C50 99.4137 91.4137 58 142.5 58C193.586 58 235 99.4137 235 150.5C235 201.586 193.586 243 142.5 243ZM142.5 231.382C187.17 231.382 223.382 195.17 223.382 150.5C223.382 105.83 187.17 69.6185 142.5 69.6185C97.8303 69.6185 61.6185 105.83 61.6185 150.5C61.6185 195.17 97.8303 231.382 142.5 231.382Z"/>
  </mask>
  <path fill-rule="evenodd" clip-rule="evenodd" d="M142.5 243C91.4137 243 50 201.586 50 150.5C50 99.4137 91.4137 58 142.5 58C193.586 58 235 99.4137 235 150.5C235 201.586 193.586 243 142.5 243ZM142.5 231.382C187.17 231.382 223.382 195.17 223.382 150.5C223.382 105.83 187.17 69.6185 142.5 69.6185C97.8303 69.6185 61.6185 105.83 61.6185 150.5C61.6185 195.17 97.8303 231.382 142.5 231.382Z" fill="#FFF4C7"/>
  <path d="M142.5 242C91.9659 242 51 201.034 51 150.5H49C49 202.139 90.8614 244 142.5 244V242ZM51 150.5C51 99.9659 91.9659 59 142.5 59V57C90.8614 57 49 98.8614 49 150.5H51ZM142.5 59C193.034 59 234 99.9659 234 150.5H236C236 98.8614 194.139 57 142.5 57V59ZM234 150.5C234 201.034 193.034 242 142.5 242V244C194.139 244 236 202.139 236 150.5H234ZM142.5 232.382C187.722 232.382 224.382 195.722 224.382 150.5H222.382C222.382 194.617 186.617 230.382 142.5 230.382V232.382ZM224.382 150.5C224.382 105.278 187.722 68.6185 142.5 68.6185V70.6185C186.617 70.6185 222.382 106.383 222.382 150.5H224.382ZM142.5 68.6185C97.2781 68.6185 60.6185 105.278 60.6185 150.5H62.6185C62.6185 106.383 98.3826 70.6185 142.5 70.6185V68.6185ZM60.6185 150.5C60.6185 195.722 97.2781 232.382 142.5 232.382V230.382C98.3826 230.382 62.6185 194.617 62.6185 150.5H60.6185Z" fill="white" mask="url(#path-7-outside-3_1849_9282)"/>
  <path d="M142.428 237.432C142.671 240.908 145.69 243.527 149.169 243.284C200.467 239.696 239.15 195.267 235.569 144.047C232.289 97.1429 194.476 60.2317 147.858 57.7062C144.375 57.5175 141.397 60.1834 141.208 63.6624C141.018 67.1414 143.688 70.1136 147.171 70.3022C187.447 72.4841 220.132 104.391 222.967 144.928C226.063 189.197 192.629 227.599 148.289 230.7C144.81 230.943 142.185 233.957 142.428 237.432Z" fill="#FCC563" stroke="white"/>
  </svg>
  