<svg width="1280" height="824" viewBox="0 0 1280 824" fill="none" xmlns="http://www.w3.org/2000/svg">
  <path d="M1068.27 31.6859C1168.84 35.7448 1271.68 31.8842 1372.99 33.1965V37.7743C1271.58 37.7743 1170.15 37.7667 1068.74 37.7819C1059.11 36.317 1052.92 45.8693 1047.55 52.4079C1154.92 56.6271 1264.79 54.5061 1372.99 54.941V59.5187C1265.31 60.1138 1157.67 58.1454 1049.99 58.3667C1038.26 56.3448 1032.95 66.0116 1025.62 73.0919C1028.15 76.0598 1030.95 75.5104 1033.5 75.5104C1146.68 72.9393 1259.82 75.3273 1372.99 75.541V81.2632C1258.2 80.9275 1143.31 81.9041 1028.38 79.989C1021.61 79.7907 1016.05 80.8741 1012.04 86.8099C1010.09 89.7092 1006.52 91.2885 1004.95 94.5845C1126.35 98.8647 1250.62 96.7208 1372.99 97.2854V101.863C1252.75 101.825 1132.48 102.313 1012.27 100.703C999.52 98.4299 993.141 104.411 985.267 113.575C984.451 114.505 983.138 115.36 984.176 117.885H1372.98V122.463C1241.81 122.494 1110.65 122.402 979.476 122.501C973.54 122.013 966.711 133.496 961.866 137.326C962.072 137.715 962.271 138.096 962.477 138.485H1372.98V144.208C1236.29 144.803 1099.61 142.911 962.911 143.071C954.007 143.071 944.684 149.922 941.258 159.085C1085.17 159.841 1229.06 160.939 1372.99 160.23V164.808C1228.25 164.792 1083.51 164.838 938.771 164.792C934.902 164.586 931.698 165.845 929.05 168.706C926.052 172.971 920.169 174.429 920.94 180.822C1071.56 180.281 1222.37 181.105 1372.99 181.974V186.552C1221.46 186.682 1069.94 186.75 918.742 185.423C911.677 185.431 901.827 193.259 899.889 200.43C1056.87 204.466 1215.29 201.834 1372.99 202.574V207.152C1211.63 209.38 1048.12 202.841 887.773 209.441C882.669 212.584 879.861 217.322 876.099 222.083C913.31 225.158 952.214 222.16 990.005 223.182C994.995 222.64 999.84 224.136 1004.76 224.235C1018.4 222.068 1032.14 223.449 1045.82 223.243C1154.92 224.784 1264.14 223.762 1372.99 223.182V228.904C1207.6 229.484 1042.86 227.416 877.495 227.645C866.959 226.684 861.687 235.366 855.194 241.882C1025.94 246.811 1200.7 243.622 1372.99 244.919V250.641C1200.05 248.215 1027.01 250 854.026 249.504C851.76 249.504 849.257 249.023 847.411 250.664C842.932 254.654 838.37 258.637 835.737 264.496C1014.31 268.105 1194.03 263.115 1372.99 266.663V271.241C1254.86 268.616 1136.73 273.293 1018.57 270.371C957.952 269.097 897.287 270.371 836.653 269.868C824.895 269.768 820.63 277.94 813.977 284.211C998.825 290.414 1187.03 286.149 1373 287.263V291.841C1184.8 291.91 996.612 291.711 808.415 291.91C802.799 292.085 800.366 298.502 795.986 301.302C794.62 302.576 793.033 303.835 793.621 306.391C985.625 310.595 1180.16 306.444 1373 307.863V313.585C1180.11 312.334 987.174 312.243 794.246 312.449C784.969 312.449 775.797 318.667 772.288 327.296C971.663 332.148 1172.98 328.753 1372.99 329.615V335.337C1173.27 331.538 973.044 336.566 773.188 332.881C761.4 332.034 757.349 341.159 750.596 347.324C956.777 354.442 1165.85 347.278 1372.99 351.36V357.082C1165.06 353.725 957.258 357.173 749.261 354.671C742.653 354.16 731.666 361.522 737.732 367.786C946.82 377.117 1161.94 369.419 1372.99 371.96V376.537C1164.39 378.895 953.496 372.372 746.194 377.194C746.781 380.291 750.192 381.916 751.245 384.961C753.373 391.148 757.86 392.682 764.185 392.666C967.138 392.14 1170.06 392.689 1372.99 393.697V398.274C1169.31 398 962.629 393.994 760.378 398.808C765.36 403.882 767.153 414.113 775.782 413.221C974.86 412.664 1173.92 415.128 1372.99 414.289V418.867C1174.08 420.827 972.556 415.677 774.943 419.782C775.53 423.429 778.971 425.855 780.322 429.212C782.397 434.362 786.021 434.935 790.79 434.95C984.863 434.736 1178.92 434.843 1372.99 436.033V440.611C1178.99 438.666 984.969 439.49 790.958 439.512C784.007 439.596 790.256 445.547 791.484 448.592C793.453 454.627 797.649 455.619 803.425 455.603C993.233 455.886 1182.94 457.236 1372.98 456.641V461.219C1182.64 461.272 992.286 461.104 801.945 461.28C797.932 461.226 799.755 464.927 801.09 467.109C805.081 476.844 805.752 477.241 816.251 477.241C1001.83 477.241 1187.4 477.241 1372.98 477.241V482.963C1185.36 484.192 996.948 478.729 809.75 483.108C811.841 490.517 812.939 498.406 822.469 497.818C1005.99 496.941 1189.46 499.657 1372.98 498.985V503.563C1189.77 503.052 1006.37 504.792 823.278 502.51C819.692 502.434 818.83 503.716 819.471 507.149C820.47 511.834 822.576 518.784 828.527 518.464C1009.97 521.104 1191.52 518.517 1372.98 520.73V525.308C1190.63 526.063 1009 523.957 826.46 524.507C827.886 528.558 828.955 531.587 830.023 534.616C831.907 539.987 832.052 540.109 837.767 540.178C1016.17 541.597 1194.57 541.673 1372.98 541.33V545.908C1194.45 546.121 1015.66 545.412 837.302 544.969C835.02 545.213 834.135 546.602 834.479 548.99C835.867 558.703 839.423 561.892 849.097 561.93C1023.73 561.93 1198.35 561.93 1372.98 561.93V567.652C1198.62 568.194 1024.27 565.966 849.898 566.546C845.946 566.141 839.659 565.935 841.872 571.94C843.07 582.148 843.497 582.53 853.851 582.53C1027.09 582.042 1199.71 584.323 1372.98 583.674V589.396C1197.97 587.771 1022.53 588.084 847.693 588.107C846.859 590.94 846.887 594.14 847.777 597.705C848.861 602.059 851.646 604.249 856.132 604.274C1028.42 604.488 1200.7 603.611 1372.99 605.419V609.997C1199.34 608.173 1025.49 608.577 851.798 609.172C851.455 615.337 852.721 619.053 852.996 624.714C1026.15 625.645 1199.48 626.408 1372.99 626.019V630.596C1201.17 632.954 1024.8 626.065 855.14 632.969C855.483 638.119 856.155 646.1 862.594 646.619C1032.72 646.619 1202.86 646.619 1372.99 646.619V652.341C1202.47 652.288 1031.97 650.647 861.45 651.197C857.94 653.714 859.169 657.438 859.291 660.695C859.497 666.105 860.832 667.15 866.364 667.219C1035.22 668.317 1204.11 668.668 1372.99 668.371V672.949C1204.25 672.59 1035.5 673.925 866.776 671.819C860.275 671.842 860.138 672.086 861.145 678.778C861.58 683.744 861.175 690.71 868.164 688.62C1036.3 688.231 1204.75 688.711 1372.99 690.115V694.693C1205.99 694.327 1038.99 695.609 871.994 693.549C865.504 693.549 862.373 696.834 862.602 703.406C862.785 708.648 863.464 709.487 868.561 709.533C1036.68 711.997 1204.85 710.227 1372.99 710.708V715.285C1205.6 715.049 1038.22 715.987 870.835 714.156C863.708 714.179 863.296 714.66 863.266 721.954C863.235 730.682 863.785 731.3 871.979 731.3C1038.98 731.361 1205.99 730.941 1372.99 732.452V737.03C1206.14 735.542 1039.29 735.588 872.437 735.885C862.51 735.885 862.121 736.305 862.61 746.185C862.472 749.474 863.663 751.992 867.294 751.862C1035.86 752.716 1204.43 750.374 1373 753.044V758.767C1204.3 758.057 1035.43 757.874 866.798 757.004C862.678 756.028 862.526 760.369 862.594 763.283C862.32 772.538 862.32 772.401 871.415 772.53C1038.6 775.506 1205.8 771.745 1372.99 774.789V779.367C1205.09 777.879 1037.17 777.925 869.255 778.222C863.233 778.222 860.25 781.274 860.305 787.378C860.367 794.008 860.519 794.176 866.966 794.244C1035.63 795.068 1204.3 796.083 1372.99 795.389V799.967C1202.68 803.53 1025.84 793.108 858.627 803.583C854.774 813.166 856.613 815.981 866.737 815.989C1035.49 815.989 1204.24 815.989 1372.99 815.989V821.711C1202 824.626 1022.85 813.189 855.728 824H851.15C856.811 777.864 861.267 730.987 855.941 684.424C855.071 679.205 855.293 673.818 854.98 668.539C854.591 661.817 851.829 655.599 851.798 648.969C851.485 640.05 848.052 631.596 848.853 622.585C844.641 616.215 845.977 607.288 843.543 600.086C841.734 592.387 838.736 584.903 837.637 577.128C826.131 534.73 809.285 493.828 789.012 454.871C719.97 327.616 603.043 227.058 465.683 180.616C340.866 137.478 201.439 139.393 77.4767 184.736C45.7213 197.066 14.4238 211.341 -15.0427 228.385C-42.2354 242.988 -65.9718 264.29 -91.8293 280.389V274.667C-56.2133 252.556 -29.3639 219.596 0.476425 190.535C30.8203 160.054 61.8508 130.451 91.9505 99.9176C115.054 77.4713 138.164 54.796 160.382 31.3959C169.905 20.4779 183.051 12.3066 190.833 0H198.845C123.485 78.3258 44.0123 153.508 -31.6528 231.17C-30.226 231.91 -29.6233 231.01 -28.8298 230.575C-18.3693 224.815 -8.40471 218.2 2.4144 213.012C8.84634 209.929 15.9268 207.282 20.4742 201.369C37.504 182.959 55.6096 165.601 73.3566 147.87C123.378 99.1699 173.109 50.0733 221.734 0.00762963H228.601C189.208 42.0774 146.29 82.133 105.745 123.554C83.3441 145.634 61.2023 167.982 38.9842 190.245C37.7024 191.527 35.9552 192.686 36.4664 195.029C38.5417 196.196 40.1973 194.983 41.7157 193.968C48.8191 189.94 56.6396 187.414 64.361 184.698C72.0824 182.524 75.966 175.184 81.3527 170.042C95.0101 156.385 108.896 143.048 122.424 129.284C164.709 85.5816 210.099 44.6181 251.49 0.00762963H258.357C216.233 45.6862 168.516 88.1604 125.621 133.824C112.116 146.191 99.6414 159.597 86.5791 172.414C85.5567 173.414 84.1376 174.52 85.7704 176.481C97.4669 170.888 112.116 170.835 121.348 160.573C135.845 146.008 150.662 131.764 165.014 117.054C203.323 77.6315 243.723 40.1471 281.247 0.00762963H288.114C263.82 29.0689 233.85 54.6358 207.405 82.2703C190.177 98.056 174.887 115.665 157.827 131.504C149.205 140.072 140.354 148.45 131.786 157.094C130.344 158.551 128.146 159.97 128.574 162.793C129.253 162.961 129.863 163.335 130.29 163.183C137.318 160.688 144.764 159.948 151.929 158.055C153.653 157.598 155.301 157.14 156.362 155.713C172.934 138.173 190.482 121.502 207.413 104.274C230.669 80.9809 254.077 57.8402 277.287 34.5012C286.908 24.7658 296.415 14.9159 306.708 5.85956C308.554 4.23444 310.591 2.70852 311.011 0.0152593H317.878C317.549 2.51015 315.627 3.90637 314.063 5.54674C307.738 12.1464 300.993 18.3264 294.614 24.8802C265.171 54.3382 236.04 84.2006 205.765 112.766C195.678 124.706 183.295 134.358 172.689 145.879C170.53 148.045 168.234 150.365 167.616 153.745C172.583 155.431 179.152 151.441 184.699 151.769C189.139 151.387 192.344 149.136 195.434 146.016C217.141 124.111 239 102.344 260.806 80.5384C287.137 53.3998 315.108 27.749 340.752 0.00762963H347.619C345.139 6.06556 339.577 9.48363 335.297 13.9241C313.353 36.0653 290.99 57.8173 269.192 80.1111C247.592 101.802 225.213 122.738 204.254 145.047C203.483 145.932 201.698 146.245 202.56 148.633C211.731 145.909 222.741 150.655 229.516 141.652C238.665 131.199 249.644 122.578 259.09 112.362C295.53 74.5262 336.136 39.2316 370.508 0.00762963H378.52C344.574 37.1334 307.295 70.8869 271.969 106.685C260.99 117.74 249.804 128.597 238.962 139.79C237.474 141.331 235.468 142.773 236.276 145.833C244.005 143.994 253.207 148.167 259.158 141.774C269.939 131.069 281.125 120.762 291.829 109.973C323.402 77.517 356.279 46.35 387.881 13.9317C392.162 9.46074 397.686 6.01215 400.265 0.00762963H408.276C379.077 31.7621 345.81 61.8687 315.489 93.3714C300.306 109.829 280.72 125.614 267.414 142.865C271.61 145.879 278.027 143.315 282.963 144.253C286.557 144.482 289.197 142.903 291.555 140.53C303.48 128.513 315.383 116.474 327.3 104.45C360.597 68.949 398.22 36.3018 430.013 0.00762963H439.169C402.889 36.8587 365.534 72.7104 329.498 109.813C319.076 119.327 309.477 129.627 299.291 139.348C290.799 147.61 308.516 144.917 312.697 145.268C314.253 145.253 315.94 144.978 316.97 143.902C320.403 140.317 324.836 137.883 328.163 134.259C341.767 120.38 355.554 106.716 368.959 92.6924C398.746 62.9597 432.775 30.9992 460.914 0.00762963H467.781C467.453 2.50252 465.553 3.92926 463.958 5.53148C434.591 34.8521 405.392 64.3483 375.788 93.4324C364.626 105.411 352.387 116.352 340.714 127.758C337.334 132.183 333.526 136.074 329.071 139.447C327.094 140.95 324.744 142.636 324.683 146.176C331.81 146.252 340.225 150.388 346.2 145.07C370.043 122.425 392.429 98.2773 416.157 75.5639C428.533 62.5553 442.74 51.0499 454.482 37.5149C459.602 30.7016 466.797 26.2688 472.435 20.0888C477.417 14.6336 481.889 8.62148 488.038 4.28022C489.442 3.28837 490.434 1.81585 490.67 0H497.537C495.943 2.1363 494.745 4.82956 492.677 6.30207C487.496 9.97956 484.033 15.305 479.226 19.364C475.083 22.866 470.947 26.7418 467.644 31.0068C445.571 54.445 421.91 75.9835 399.616 99.2081C390.292 108.776 380.824 118.442 371.141 127.651C366.304 131.665 362.543 136.692 357.805 140.812C355.569 142.75 353.15 145.23 351.983 148.129C352.868 149.876 354.318 149.609 355.584 149.922C365.816 152.493 372.957 149.144 380.358 141.179C425.786 93.0967 476.952 49.6994 520.419 0.00762963H528.431C493.272 37.6827 455.306 72.7943 419.477 109.874C406.521 122.784 393.497 135.617 380.534 148.518C379.534 149.51 377.924 150.342 378.703 152.539C384.471 153.531 393.802 158.315 398.494 153.18C404.682 146.527 411.122 140.103 417.279 133.419C462.73 89.7931 507.357 45.1369 551.32 0.00762963H558.187C537.663 25.3304 511.103 46.4492 488.504 70.3681C460.838 97.5906 433.607 125.248 406.14 152.669C404.995 153.821 403.309 154.721 403.431 157.193C407.292 158.902 411.656 159.368 415.753 160.68C418.973 161.718 421.186 160.642 423.307 158.269C433.592 146.306 445.334 135.807 456.718 124.928C498.033 83.2087 540.364 42.2834 581.076 0.00762963H587.943C587.562 2.71615 585.464 4.23444 583.709 5.92822C567.953 21.157 552.815 36.9961 536.999 52.179C520.007 68.6667 503.862 86.0622 486.535 102.222C468.3 120.273 450.385 138.76 431.944 156.629C430.502 158.048 428.556 159.2 428.304 161.809C430.509 165.853 435.133 165.166 438.658 166.578C441.962 167.905 445.12 166.852 447.531 164.274C464.927 146.443 482.804 129.086 500.223 111.271C536.9 74.0227 575.056 38.0795 610.833 0.00762963H618.844C563.39 56.9628 506.472 112.613 450.209 168.722C452.826 173.467 458.404 172.231 462.616 174.009C465.126 174.902 466.934 174.329 468.75 172.468C481.438 159.589 494.348 146.931 507.105 134.121C532.909 107.044 560.705 82.4381 586.501 55.3987C603.89 36.5383 625.154 20.0964 640.581 0.00762963H647.448C647.227 1.60222 646.35 2.82296 645.243 3.914C638.193 10.8722 631.128 17.8152 624.101 24.7963C601.318 47.235 579.154 70.2765 556.249 92.5779C529.499 118.831 503.374 145.657 476.746 172.025C475.418 173.322 473.923 174.657 474.221 177.076C476.448 180.685 481.103 179.617 484.155 181.806C486.65 183.599 488.458 182.722 490.541 180.609C506.052 164.861 521.701 149.243 537.319 133.602C581.641 88.6258 627.634 45.4344 671.482 0.00762963H677.205C676.419 3.68511 673.283 5.51622 670.902 7.9043C660.701 18.1356 650.393 28.2754 640.185 38.4991C591.934 87.3135 542.828 135.212 494.791 184.233C496.904 187.33 500.292 187.834 502.962 189.482C507.441 192.251 510.668 191.084 513.926 187.582C519.626 181.448 525.325 175.298 531.315 169.446C544.827 155.843 558.881 142.773 572.363 129.116C614.709 85.5129 659.236 44.0001 701.239 0.00762963H708.106C704.313 6.77511 697.836 11.1469 692.67 16.6402C689.473 20.0354 686.551 23.9418 682.744 26.7342C648.86 60.1901 614.846 93.6613 581.374 127.628C560.857 148 540.852 169.057 519.435 188.444C510.745 194.708 524.288 199.149 529.88 200.858C596.451 134.22 665.516 68.2852 729.843 0.00762963H737.854C737.595 2.05237 736.176 3.35704 734.856 4.738C729.202 10.6052 723.075 15.9612 717.483 21.9199C681.996 58.3209 644.923 93.1196 609.215 129.337C586.089 152.539 563.085 175.878 539.669 198.798C538.365 200.095 536.61 201.224 536.953 203.62C538.281 205.786 540.509 206.862 542.759 207.892C547.642 210.12 552.009 209.309 555.86 205.458C623.75 136.593 692.983 68.9642 760.744 0.00762963H768.755C728.599 42.1079 685.765 82.4458 644.595 123.814C615.647 153.867 582.801 182.127 556.348 213.66C557.737 217.559 561.803 217.49 564.611 219.23C567.701 221.145 570.509 220.817 573.271 217.963C645.335 145.199 719.749 74.2897 790.5 0.00762963H798.511C744.156 56.3524 687.253 110.492 632.364 166.341C617.204 181.326 601.677 195.654 586.89 210.982C582.465 214.911 577.757 218.993 574.828 224.654C576.926 226.775 578.871 228.141 581.481 229.324C585.85 231.628 589.696 231.127 593.017 227.821C622.102 198.744 651.179 169.668 680.257 140.584C707.869 112.194 737.03 85.0627 764.36 56.6118C781.604 42.024 796.581 24.9031 812.924 9.30052C815.679 6.5157 819.089 4.11237 820.249 0.0152593H827.116C819.463 12.2837 806.53 20.8365 797.008 31.7469C775.408 54.2848 752.191 75.3044 730.858 98.0331C730.026 99.086 729.248 100.169 727.966 100.726C723.327 102.466 722.663 108.104 718.307 110.157C716.323 111.026 714.988 112.659 713.828 114.452C710.517 119.594 705.336 122.974 701.239 127.392C669.506 158.643 638.338 190.55 606.514 221.633C602.913 224.502 599.953 228.37 596.359 231.498C592.689 234.695 593.032 236.236 597.023 238.838C601.54 241.363 605.095 246.681 609.604 240.967C689.809 160.405 772.204 81.5607 851.15 0.00762963H858.017C801.113 58.4353 742.89 115.749 685.308 173.521C660.968 198.332 633.707 221.664 611.794 248.169C613.167 251.038 616.143 252.205 618.615 253.884C623.132 256.951 623.391 256.905 627.29 253.029C636.065 244.324 644.869 235.641 653.506 226.791C729.767 151.738 805.897 76.2658 880.906 0.00762963H887.773C809.109 82.255 725.586 161.199 645.709 242.63C640.185 246.521 636.515 252.197 631.83 256.897C627.168 260.239 631.746 263.077 634.798 266.015C642.596 275.369 647.761 260.933 653.636 256.798C658.733 253.113 662.685 248.154 666.973 243.69C688.398 221.938 710.715 201.079 732.063 179.22C791.034 119.022 852.439 60.8463 910.662 0.00762963H917.529C917.201 2.50252 915.332 3.95978 913.699 5.53148C907.122 11.8336 900.065 17.716 893.991 24.4682C877.763 41.7264 860.542 58.153 843.825 74.8696C817.113 102.054 790.34 129.215 762.743 155.576C724.464 193.35 686.574 231.529 648.562 269.578C647.403 270.737 645.755 271.683 645.938 273.911C649.524 277.352 653.049 281.037 657.588 283.242C721.244 220.145 784.412 156.858 847.663 93.3943C878.274 62.0518 911.425 32.5633 940.411 0.00762963H948.422C871.414 78.7073 792.69 155.835 714.614 233.367C699.354 249.512 683.187 264.657 667.545 280.305C660.755 286.729 661.121 287.118 668.079 293.573C671.948 297.166 673.382 297.235 677.189 293.519C711.287 260.346 744.431 226.219 778.247 192.763C841.46 127.995 908.862 65.9887 970.167 0.00762963H978.179C903.506 76.1284 826.986 150.838 751.855 226.493C735.13 240.898 721.244 258.293 705.076 273.255C697.05 280.595 689.542 288.431 681.722 295.946C676.243 301.21 676.343 301.302 681.844 306.246C684.476 308.619 687.612 313.303 691.083 309.381C738.03 262.505 784.877 215.529 831.938 168.767C868.08 133.007 904.368 97.5448 939.793 61.0599C959.776 40.3455 982.314 21.8665 1001.07 0H1006.79C1006.55 1.82348 1005.53 3.23496 1004.17 4.29548C998.749 8.51467 994.728 14.1072 989.669 18.7307C958.418 49.3103 928.066 80.9198 896.738 111.461C830.747 177.29 765.337 243.744 698.698 308.832C691.694 315.233 692.014 316.736 698.996 323.336C702.566 326.716 703.39 326.785 706.999 323.229C712.409 317.904 717.971 312.746 723.213 307.23C825.132 204.26 929.432 103.542 1030.82 0.00762963H1037.69C953.061 88.0307 864.578 172.582 778.697 259.575C755.403 281.526 734.024 305.078 711.005 327.311C702.612 332.927 713.088 337.115 717.109 341.823C832.754 229.774 947.308 113.956 1060.57 0.00762963H1068.58C980.01 90.5332 888.94 178.549 799.625 268.418C775.866 292.1 752.206 315.89 728.431 339.557C719.146 348.804 721.862 346.263 727.348 355.174C729.484 358.646 731.857 358.776 734.856 355.983C853.851 237.312 971.861 118.061 1091.47 0.00762963H1098.34C1096.57 4.21156 1091.26 5.64593 1089.84 10.506C1183.81 12.5126 1278.7 11.7267 1372.99 12.5965V17.1743C1278.6 17.1743 1184.2 17.2201 1089.81 17.0751C1083.91 17.0675 1079.1 17.777 1075.64 23.1559C1073.65 26.2536 1069.93 28.0465 1068.27 31.6859ZM826.696 613.674C780.604 386.158 586.639 204.589 356.34 174.375C335.617 171.621 314.734 170.37 293.866 168.958C285.092 167.814 276.333 167.982 267.62 168.477C256.045 169.141 244.517 170.721 232.904 170.469C209.793 170.507 187.323 176.229 164.701 180.174C152.592 181.394 141.018 185.377 129.314 188.543C78.3999 202.994 28.9128 223.64 -16.0193 251.557C-40.6865 266.747 -64.751 283.525 -86.3282 302.942C-87.9152 304.437 -89.5404 305.628 -91.8217 305.551V311.274C-89.6777 311.319 -87.5871 311.129 -86.023 309.42C-79.6521 302.484 -71.5111 297.723 -64.3543 291.757C-24.4884 258.728 21.5577 234.001 69.1755 214.103C231.584 147.336 424.619 164.518 572.996 258.24C762.544 377.781 864.464 602.779 825.979 823.969H830.557C842.948 754.784 841.742 682.409 826.704 613.659L826.696 613.674ZM813.519 700.659C807.003 560.412 741.456 424.932 637.43 330.943C427.747 143.094 114.13 148.709 -91.8293 338.756V344.478C-85.8704 343.776 -82.0631 337.283 -77.325 333.972C-68.6728 326.235 -60.1197 318.392 -50.8266 311.411C-14.0889 283.105 25.5175 258.622 68.443 240.86C203.354 181.898 362.199 184.698 496.271 244.545C720.817 349.208 841.406 579.997 801.937 823.992H806.515C813.359 783.326 816.457 741.867 813.519 700.667V700.659ZM642.794 690.855C619.516 480.545 423.97 332.003 215.043 368.328C0.644272 407.178 -129.399 613.376 -78.0956 823.992H-72.3733C-135.792 582.614 56.6473 350.04 305.952 369.297C530.033 385.54 686.65 607.494 626.855 823.992H632.578C644.076 780.61 646.106 735.473 642.809 690.863L642.794 690.855ZM763.01 675.497C741.532 472.602 588.393 300.165 389.583 254.524C274.006 227.287 148.587 243.599 44.1343 300.775C11.2498 319.025 -20.0249 340.503 -47.851 365.856C-54.878 372.532 -62.2561 378.842 -69.1916 385.601C-75.9974 392.239 -82.376 399.304 -88.4035 406.682C-89.2886 407.758 -90.4712 408.345 -91.837 408.567V415.433C-89.4793 415.525 -88.0602 414.228 -86.7173 412.404C-82.0784 406.095 -76.6002 400.517 -70.9465 395.123C-39.9846 363.621 -5.13914 335.635 32.7506 312.83C147.87 245.399 291.639 227.538 419.064 267.869C657.398 340.877 797.642 580.027 752.725 823.985H756.158C760.248 811.922 760.675 798.998 762.636 786.424C763.689 775.834 765.909 765.351 765.36 754.616C765.161 750.817 765.039 746.933 765.619 743.202C768.076 720.542 763.941 698.088 763.01 675.497ZM740.662 695.25C725.059 482.162 560.896 303.957 349.725 270.936C335.579 270.531 321.998 266.358 307.799 266.671C301.313 266.572 294.835 266.602 288.35 266.656C284.528 266.686 280.835 264.786 277.02 265.641C269.649 267.289 262.187 266.862 254.802 266.549C214.707 267.243 174.94 275.75 136.791 287.797C44.2488 315.775 -31.5155 373.112 -91.8293 447.478V454.344C-90.0134 454.093 -88.5714 453.116 -87.5719 451.689C-71.5874 430.952 -54.2295 410.878 -34.7505 393.414C7.38142 354.946 56.0292 323.679 109.163 302.698C229.219 255.829 370.279 260.27 484.826 320.757C670.582 413.724 767.992 621.25 727.562 824H732.14C741.425 781.671 742.882 738.495 740.677 695.265L740.662 695.25ZM614.739 665.342C575.316 472.884 388.301 351.138 196.51 396.878C9.87637 440.657 -106.814 639.958 -51.7727 823.992H-47.1948C-108.607 604.373 56.6473 387.661 285.298 392.56C504.976 396.191 664.455 613.308 601.669 823.992H607.392C621.995 772.447 623.33 718.002 614.739 665.349V665.342ZM663.471 664.403C646.739 562.311 586.578 468.581 501.917 409.383C375.536 318.072 195.106 316.019 65.0325 401.067C15.3165 433.767 -27.5174 477.462 -57.8842 528.726C-70.6489 547.693 -79.1409 569.079 -87.7931 590.159C-88.7011 592.441 -89.5328 594.844 -91.8293 596.233V608.822C-89.8379 608.783 -88.8613 607.746 -88.2357 605.846C-81.1705 584.315 -71.1448 564.104 -61.0124 543.901C-57.2357 536.363 -52.0092 529.908 -47.9654 522.653C-44.8295 517.022 -41.5945 511.49 -36.9021 506.974C33.3229 404.714 159.04 339.488 283.429 344.463C342.034 343.494 400.661 360.027 453.063 385.678C527.195 424.055 588.775 487.022 625.444 562.121C665.546 643.376 671.925 736.107 653.171 823.977H657.749C669.987 771.737 672.367 717.315 663.471 664.403ZM711.936 663.007C690.328 509.24 580.039 373.936 435.179 319.14C239.29 245.064 24.0679 316.218 -91.8293 489.822V496.689C-78.9959 486.915 -72.8158 470.626 -62.1035 458.648C-39.0919 429.487 -12.0594 403.638 17.5825 381.42C157.567 274.926 359.308 266.511 507.593 361.072C663.677 457.511 741.593 645.398 702.375 823.992H708.098C716.987 770.936 721.511 716.537 711.936 663.022V663.007ZM689.405 676.008C676.434 568.957 618.341 468.383 533.161 402.478C327.575 242.233 30.2633 309.053 -91.8293 537.889V547.044C-89.6014 546.739 -88.8232 545.099 -88.0297 543.253C-78.8052 524.293 -67.0095 506.714 -55.0383 489.372C-31.4773 456.855 -2.89597 428.03 28.6381 403.295C146.107 313.158 311.934 293.397 446.486 355.999C624.971 435.553 722.129 634.312 677.197 823.992H682.919C692.243 775.498 696.508 725.181 689.397 676.023L689.405 676.008ZM590.347 671.911C561.445 507.256 405.018 394.192 239.702 413.511C119.487 428.236 16.2473 511.231 -23.3439 625.843C-38.8478 667.631 -41.7852 713.088 -40.0685 757.325C-38.863 780.023 -31.6528 801.836 -27.7463 823.969H-22.024C-81.2849 627.056 56.983 428.106 262.775 416.662C480.683 407.766 641.055 616.031 576.498 823.992H582.221C596.374 774.812 600.38 722.205 590.347 671.934V671.911ZM566.702 676.702C541.439 527.024 394.512 418.325 243.853 437.948C115.115 450.484 4.25319 557.695 -13.2649 685.736C-17.2095 715.369 -17.7894 745.377 -12.8071 774.919C-11.037 791.589 -4.58979 807.291 -2.56789 823.969H4.29897C-59.3796 638.363 76.5687 444.807 272.663 440.649C399.158 438.337 514.918 521.79 552.899 642.476C566.236 682.73 569.41 726.226 563.749 768.204C561.987 780.023 560.751 791.917 556.821 803.431C554.601 809.946 552.228 816.775 552.457 823.969H557.035C556.882 821.436 557.325 818.88 558.37 816.714C562.727 807.65 563.757 797.701 565.985 788.125C573.004 751.786 574.522 712.913 566.694 676.702H566.702ZM545.842 700.835C529.468 539.59 369.822 428.968 212.99 467.91C136.158 486.32 69.969 540.658 35.0243 611.316C2.07869 679.068 0.468788 753.144 23.7551 823.985H29.4774C-36.5435 643.994 101.053 454.94 293.256 465.835C399.105 470.763 498.148 546.35 528.736 648.107C541.752 684.073 545.102 723.151 540.226 760.987C537.769 778.71 534.916 796.8 528.286 813.486C526.821 816.874 525.798 820.269 526.142 823.992H530.719C533.794 816.447 534.824 808.26 538.021 800.73C543.53 784.929 544.255 767.96 546.467 751.473C547.162 745.438 548.466 739.189 547.604 733.322C546.025 722.511 547.169 711.669 545.849 700.85L545.842 700.835ZM510.149 652.165C491.708 593.066 447.074 543.199 393.695 512.993C370.531 503.029 347.458 492.653 322.272 488.655C302.351 483.856 281.712 485.305 261.394 485.283C243.426 485.031 226.106 489.952 208.771 494.102C67.6418 536.073 -3.86495 687.75 50.078 823.969H55.8004C-10.77 661.199 109.331 484.222 285.779 489.799C453.879 495.178 564.375 669.225 498.682 823.969H505.549C524.86 769.158 530.521 707.702 510.149 652.158V652.165ZM497.293 703.91C480.851 561.251 331.894 471.854 198.036 523.431C77.4462 569.765 24.2052 707.228 76.4009 823.969H82.1233C71.3881 796.8 62.156 768.403 61.6448 738.899C60.6072 709.151 65.2385 678.45 76.3246 650.96C105.265 575.297 180.22 520.379 260.845 514.252C357.866 505.509 456.352 570.902 483.201 665.006C501.749 720.268 494.066 770.905 473.503 823.969H478.081C481.156 813.372 487.023 803.858 489.663 793.031C492.09 783.075 494.333 773.095 496.484 763.085C498.239 743.34 500.009 723.556 497.293 703.902V703.91ZM785.419 660.138C763.315 490.7 650.317 336.657 494.806 265.412C297.369 172.735 59.2796 216.842 -91.8293 374.233V378.811C-85.7178 378.666 -69.6875 358.394 -62.958 353.626C-55.9004 347.24 -48.4919 341.296 -41.358 335.017C9.08288 294.328 67.329 263.031 129.276 244.064C317.9 187.079 523.212 243.759 655.162 390.683C759.241 505.844 807.629 671.545 775.622 823.992H781.344C790.851 770.02 794.124 714.438 785.419 660.154V660.138ZM473.297 708.93C460.876 582.057 329.254 501.175 210.068 545.099C96.5437 586.192 48.1705 717.902 103.861 823.969H109.583C45.8892 704.52 115.984 560.854 250.46 540.17C333.229 528.482 415.021 572.466 451.049 647.855C478.875 704.963 472.672 768.014 446.036 823.977H451.758C461.616 800.554 471.741 776.765 472.977 751.007C474.907 737.015 474.8 722.991 473.297 708.93ZM449.797 716.964C442.259 600.948 318.236 525.208 211.426 570.582C153.752 594.051 111.101 650.388 105.76 712.638C102.8 743.561 107.882 774.964 121.302 803.034C124.69 808.947 126.59 815.653 130.748 821.208C131.259 821.887 131.153 823.031 131.328 823.962H137.05C136.066 817.042 130.535 811.999 127.742 805.834C123.668 796.64 119.57 787.454 116.984 777.711C111.979 760.75 110.186 742.897 109.774 725.418C110.895 720.702 110.666 715.957 110.743 711.203C120.288 629.124 189.208 564.928 272.259 562.662C364.618 557.497 445.769 636.906 444.899 729.026C444.556 736.007 445.54 743.256 444.38 750.13C440.756 760.766 440.031 772.065 436.499 782.777C433.927 790.59 430.082 797.754 427.129 805.338C424.581 811.884 419.469 817.133 417.416 823.962H423.139C443.243 788.576 451.751 757.813 449.79 716.956L449.797 716.964ZM426.191 726.936C422.979 630.185 331.581 561.609 238.077 586.81C135.349 615.009 95.6739 741.234 162.229 823.969H167.951C86.3044 718.642 164.373 571.772 298.635 588.252C365.678 596.362 419.019 658.635 420.865 725.486C421.559 747.208 416.577 768.716 408.085 788.743C404.499 796.579 400.188 803.743 395.443 810.831C392.497 815.226 388.011 818.598 386.531 823.969H393.398C400.86 810.396 411.519 798.418 416.089 783.319C421.544 765.137 427.686 746.056 426.191 726.936ZM401.295 740.944C408.322 639.973 303.099 572.329 214.669 622.891C141.293 666.608 133.678 766.64 195.419 823.969H203.43C201.324 819.216 195.876 817.522 192.71 813.952C189.506 808.283 184.264 804.315 180.747 798.807C165.082 776.124 156.957 748.863 158.757 721.282C162.046 667.181 206.314 619.572 259.99 612.278C381.922 597.675 445.281 745.689 351.06 823.969H360.216C362.115 819.91 365.228 816.851 368.448 813.86C375.071 807.726 380.496 800.653 384.654 792.642C393.321 776.727 399.555 759.057 401.302 740.944H401.295ZM355.249 791.818C414.906 720.756 346.558 612.339 256.534 632.359C158.651 657.087 150.532 783.41 241.182 823.969H260.639C195.808 808.504 163.526 742.233 195.35 682.806C207.688 662.458 227.243 646.069 250.445 639.836C268.589 632.466 288.472 634.915 306.822 640.301C334.694 648.236 356.744 670.904 366.22 698.096C376.284 717.94 372.545 750.557 362.863 770.554C349.48 799.021 324.996 815.012 296.117 823.977H314.429C314.986 821.803 316.718 821.139 318.625 820.605C333.42 815.134 345.765 804.254 355.249 791.826V791.818ZM-75.0284 244.263C-24.496 193.823 26.0135 143.277 76.3933 92.6924C83.6798 84.46 92.5685 77.8527 99.8627 69.6204C107.897 59.6103 118.403 51.767 126.903 42.1766C134.502 35.081 141.239 27.2149 148.778 19.9667C155.614 13.7257 162.435 7.50756 167.944 0.0152593H161.077C78.0489 85.2535 -7.31364 169.004 -91.8293 252.93V257.508C-84.2911 255.6 -80.2701 249.008 -75.0361 244.27L-75.0284 244.263ZM-83.8485 222.579C-10.0299 147.74 65.5894 74.8543 139.339 0.00762963H131.328C126.186 8.69015 116.839 13.8478 110.705 21.7826C99.9924 32.3573 89.6692 43.3897 78.4686 53.5676C22.0765 110.424 -34.3919 167.325 -91.8293 223.174V227.752C-88.3806 227.241 -86.1604 224.914 -83.8562 222.587L-83.8485 222.579ZM-82.994 191.466C-18.4151 128.101 45.3856 63.4785 109.583 0.00762963H100.427C67.4816 37.8201 28.6229 71.9169 -6.31413 108.47C-35.1931 135.777 -61.6839 166.936 -91.8293 192.274V197.997C-87.1904 198.126 -85.7102 193.953 -83.0016 191.466H-82.994ZM-84.3368 163.595C-30.3939 108.943 25.7464 54.8418 78.6899 0.00762963H70.6785C70.2665 2.70852 68.1531 4.15815 66.3982 5.88244C62.3315 9.88037 58.2724 13.8859 54.2362 17.9144C30.6524 41.4136 7.29749 65.1418 -16.3703 88.5647C-31.9885 103.771 -47.5839 118.992 -62.8741 134.533C-67.6809 139.378 -72.213 144.528 -77.2563 149.113C-82.1394 153.554 -85.4355 159.726 -91.8217 162.519V168.241C-88.2662 168.401 -86.4503 165.716 -84.3368 163.595ZM-82.5515 132.107C-56.0225 105.396 -29.3791 78.7454 -2.71285 52.1485C14.3322 34.6538 33.3457 18.7155 48.9335 0.00762963H42.0667C17.6054 25.9026 -8.75568 49.9741 -33.7052 75.4036C-51.6964 94.142 -70.626 111.896 -88.3959 130.879C-89.2886 131.947 -90.4636 132.534 -91.8293 132.756V139.622C-88.3806 137.562 -85.3669 134.983 -82.5591 132.099L-82.5515 132.107ZM-88.3272 107.73C-64.339 84.1472 -40.6331 60.2817 -16.9349 36.401C-6.18443 25.6661 4.64231 15.0075 15.4462 4.31837C16.6822 3.09763 17.8114 1.82348 18.0479 0.00762963H11.1811C-18.9797 33.4483 -53.3673 63.3717 -84.4284 96.2096C-87.7092 100.078 -93.0196 103.053 -91.8293 108.73C-90.3797 109.378 -89.3878 108.829 -88.3349 107.738L-88.3272 107.73ZM-85.1837 74.7933C-61.8441 48.9822 -33.3543 26.8563 -11.7161 0.00762963H-18.5829C-24.0917 5.98926 -28.8984 12.6194 -35.1015 17.9678C-55.0077 35.371 -71.7476 56.0625 -91.8293 73.2521V78.9743C-89.1436 78.3334 -87.0225 76.7617 -85.1914 74.7933H-85.1837ZM-87.2209 47.3495C-75.9211 35.0963 -63.2022 24.163 -51.788 11.9327C-48.1409 8.1637 -43.7232 5.00504 -41.4724 0.00762963H-48.3393C-62.1111 15.1296 -76.4857 29.9692 -91.8293 43.4965V49.2187C-90.044 49.2111 -88.2357 48.8449 -87.2285 47.3495H-87.2209ZM278.599 805.475C180.396 806.398 176.192 657.109 277.272 654.622C381.93 658.529 371.073 805.78 278.599 805.475ZM347.68 733.23C349.763 635.312 206.024 637.967 207.161 730.514C207.703 821.352 343.872 821.742 347.68 733.23ZM328.948 733.802C320.205 800.272 224.145 795.587 226.709 725.852C229.433 662.839 329.704 663.045 328.948 733.802ZM323.928 729.484C320.556 669.439 232.813 670.461 231.676 730.041C233.789 788.415 319.945 792.52 323.928 729.484ZM304.197 730.026C304.068 764.344 251.139 766.579 250.323 728.721C252.642 695.09 304.205 696.204 304.197 730.026ZM299.482 728.836C294.782 700.324 256.999 703.07 256.076 729.637C256.976 759.125 297.964 758.782 299.482 728.836Z" fill="#F4EFDE" fill-opacity="0.2"/>
  </svg>
  